SplineFontDB: 3.2
FontName: Atari-1029-Expanded
FullName: Atari 1029 Expanded Regular
FamilyName: Atari 1029 Expanded
Weight: Book
Copyright: Copyright jeffpiep 2020\n"Atari 1029 Regular
Version: 1.0
ItalicAngle: 0
UnderlinePosition: 74
UnderlineWidth: 49
Ascent: 800
Descent: 200
InvalidEm: 0
sfntRevision: 0x00010000
LayerCount: 2
Layer: 0 1 "Back" 1
Layer: 1 1 "Fore" 0
XUID: [1021 376 -1330786101 1060]
StyleMap: 0x0040
FSType: 4
OS2Version: 2
OS2_WeightWidthSlopeOnly: 0
OS2_UseTypoMetrics: 0
CreationTime: 1590642299
ModificationTime: 1590642503
PfmFamily: 81
TTFWeight: 400
TTFWidth: 5
LineGap: 0
VLineGap: 0
Panose: 0 0 4 0 0 0 0 0 0 0
OS2TypoAscent: 1000
OS2TypoAOffset: 0
OS2TypoDescent: 0
OS2TypoDOffset: 0
OS2TypoLinegap: 0
OS2WinAscent: 1000
OS2WinAOffset: 0
OS2WinDescent: 0
OS2WinDOffset: 0
HheadAscent: 1000
HheadAOffset: 0
HheadDescent: 0
HheadDOffset: 0
OS2SubXSize: 500
OS2SubYSize: 500
OS2SubXOff: 0
OS2SubYOff: 0
OS2SupXSize: 500
OS2SupYSize: 500
OS2SupXOff: 0
OS2SupYOff: 500
OS2StrikeYSize: 50
OS2StrikeYPos: 200
OS2CapHeight: 1007
OS2XHeight: 721
OS2Vendor: 'FSTR'
OS2CodePages: 00000111.00000000
OS2UnicodeRanges: 80000003.00000000.00000000.00000000
MarkAttachClasses: 1
DEI: 91125
ShortTable: maxp 16
  1
  0
  141
  1384
  46
  0
  0
  2
  0
  0
  0
  0
  0
  0
  0
  0
EndShort
LangName: 1033 "Copyright jeffpiep 2020+AAogHAAA-Atari 1029 Regular" "" "Regular" "Atari 1029 Expanded" "" "Version 1.0" "" "FontStruct is a trademark of FontStruct.com" "https://fontstruct.com" "jeffpiep" "+IBwA-Atari 1029 Expanded+IB0A was built with FontStruct+AAogHAAA-Atari 1029 Regular" "https://fontstruct.com/fontstructions/show/1766801/atari-1029-regular-2" "https://fontstruct.com/fontstructors/show/1011029/jeffpiep" "Open Font License" "" "" "" "" "" "Five big quacking zephyrs jolt my wax bed"
Encoding: win
UnicodeInterp: none
NameList: AGL For New Fonts
DisplaySize: -48
AntiAlias: 1
FitToEm: 0
WinInfo: 0 38 12
BeginPrivate: 0
EndPrivate
BeginChars: 256 136

StartChar: exclam
Encoding: 33 33 1
Width: 1200
VWidth: 696
Flags: W
LayerCount: 2
Fore
SplineSet
452 -2 m 1,0,1
 430 -2 430 -2 415 12 c 0,2,3
 400 28 400 28 400 50 c 128,-1,4
 400 72 400 72 415 88 c 256,5,6
 430 102 430 102 452 102 c 128,-1,7
 474 102 474 102 489 88 c 256,8,9
 504 72 504 72 505 50 c 0,10,11
 505 28 505 28 489 12 c 0,12,13
 474 -2 474 -2 452 -2 c 1,14,-1
 452 -2 l 1,0,1
557 -2 m 1,15,16
 535 -2 535 -2 520 12 c 0,17,18
 505 28 505 28 505 50 c 128,-1,19
 505 72 505 72 520 88 c 256,20,21
 535 102 535 102 557 102 c 128,-1,22
 579 102 579 102 594 88 c 256,23,24
 609 72 609 72 610 50 c 0,25,26
 610 28 610 28 594 12 c 0,27,28
 579 -2 579 -2 557 -2 c 1,29,-1
 557 -2 l 1,15,16
452 298 m 1,30,31
 430 298 430 298 415 312 c 256,32,33
 400 328 400 328 400 350 c 128,-1,34
 400 372 400 372 415 388 c 0,35,36
 424 396 424 396 436 400 c 1,37,-1
 436 400 l 1,38,39
 425 404 425 404 415 412 c 0,40,41
 400 428 400 428 400 450 c 128,-1,42
 400 472 400 472 415 486 c 0,43,44
 424 494 424 494 436 500 c 1,45,-1
 436 500 l 1,46,47
 425 504 425 504 415 512 c 0,48,49
 400 528 400 528 400 550 c 256,50,51
 400 572 400 572 415 586 c 0,52,53
 424 596 424 596 436 600 c 1,54,-1
 436 600 l 1,55,56
 425 604 425 604 415 612 c 0,57,58
 400 628 400 628 400 650 c 128,-1,59
 400 672 400 672 415 688 c 256,60,61
 430 702 430 702 452 702 c 0,62,63
 454.444444444 702.222222222 454.444444444 702.222222222 456.802469136 702.222222222 c 0,64,65
 475.666666667 702.222222222 475.666666667 702.222222222 489 688 c 256,66,67
 504 674 504 674 505 650 c 0,68,69
 505 628 505 628 489 612 c 0,70,71
 480 604 480 604 469 600 c 1,72,-1
 469 600 l 1,73,74
 480 596 480 596 489 586 c 0,75,76
 504 572 504 572 505 550 c 256,77,78
 505 528 505 528 489 512 c 0,79,80
 480 502 480 502 469 500 c 1,81,-1
 469 500 l 1,82,83
 480 496 480 496 489 486 c 0,84,85
 504 472 504 472 505 450 c 0,86,87
 505 428 505 428 489 412 c 0,88,89
 480 404 480 404 469 400 c 1,90,-1
 469 400 l 1,91,92
 480 396 480 396 489 388 c 0,93,94
 504 374 504 374 505 350 c 0,95,96
 505 328 505 328 489 312 c 256,97,98
 474 298 474 298 452 298 c 1,99,-1
 452 298 l 1,30,31
557 298 m 1,100,101
 535 298 535 298 520 312 c 256,102,103
 505 328 505 328 505 350 c 128,-1,104
 505 372 505 372 520 388 c 0,105,106
 529 396 529 396 540 400 c 1,107,-1
 540 400 l 1,108,109
 529 404 529 404 520 412 c 0,110,111
 505 428 505 428 505 450 c 128,-1,112
 505 472 505 472 520 486 c 0,113,114
 529 494 529 494 540 500 c 1,115,-1
 540 500 l 1,116,117
 529 504 529 504 520 512 c 0,118,119
 505 528 505 528 505 550 c 256,120,121
 505 572 505 572 520 586 c 0,122,123
 529 596 529 596 540 600 c 1,124,-1
 540 600 l 1,125,126
 529 604 529 604 520 612 c 0,127,128
 505 628 505 628 505 650 c 128,-1,129
 505 672 505 672 520 688 c 256,130,131
 535 702 535 702 557 702 c 0,132,133
 559.444444444 702.222222222 559.444444444 702.222222222 561.802469136 702.222222222 c 0,134,135
 580.666666667 702.222222222 580.666666667 702.222222222 594 688 c 256,136,137
 609 674 609 674 610 650 c 0,138,139
 610 628 610 628 594 612 c 0,140,141
 585 604 585 604 574 600 c 1,142,-1
 574 600 l 1,143,144
 585 596 585 596 594 586 c 0,145,146
 609 572 609 572 610 550 c 256,147,148
 610 528 610 528 594 512 c 0,149,150
 585 502 585 502 574 500 c 1,151,-1
 574 500 l 1,152,153
 585 496 585 496 594 486 c 0,154,155
 609 472 609 472 610 450 c 0,156,157
 610 428 610 428 594 412 c 0,158,159
 585 404 585 404 574 400 c 1,160,-1
 574 400 l 1,161,162
 585 396 585 396 594 388 c 0,163,164
 609 374 609 374 610 350 c 0,165,166
 610 328 610 328 594 312 c 256,167,168
 579 298 579 298 557 298 c 1,169,-1
 557 298 l 1,100,101
EndSplineSet
EndChar

StartChar: quotedbl
Encoding: 34 34 2
Width: 1200
VWidth: 696
Flags: W
LayerCount: 2
Fore
SplineSet
252 398 m 1,0,1
 230 398 230 398 215 412 c 0,2,3
 200 428 200 428 200 450 c 128,-1,4
 200 472 200 472 215 486 c 0,5,6
 224 494 224 494 236 500 c 1,7,-1
 236 500 l 1,8,9
 224 504 224 504 215 512 c 0,10,11
 200 528 200 528 200 550 c 256,12,13
 200 572 200 572 215 586 c 0,14,15
 224 596 224 596 236 600 c 1,16,-1
 236 600 l 1,17,18
 224 604 224 604 215 612 c 0,19,20
 200 628 200 628 200 650 c 128,-1,21
 200 672 200 672 215 688 c 0,22,23
 230 702 230 702 252 702 c 0,24,25
 254.444444444 702.222222222 254.444444444 702.222222222 256.814814815 702.222222222 c 0,26,27
 275.777777778 702.222222222 275.777777778 702.222222222 290 688 c 256,28,29
 305 674 305 674 305 650 c 0,30,31
 305 628 305 628 290 612 c 0,32,33
 281 604 281 604 269 600 c 1,34,-1
 269 600 l 1,35,36
 280 596 280 596 290 586 c 0,37,38
 305 572 305 572 305 550 c 256,39,40
 305 528 305 528 290 512 c 0,41,42
 281 502 281 502 269 500 c 1,43,-1
 269 500 l 1,44,45
 280 496 280 496 290 486 c 0,46,47
 305 472 305 472 305 450 c 128,-1,48
 305 428 305 428 290 412 c 256,49,50
 275 398 275 398 252 398 c 1,51,-1
 252 398 l 1,0,1
357 398 m 1,52,53
 335 398 335 398 321 412 c 256,54,55
 306 428 306 428 305 450 c 0,56,57
 305 472 305 472 321 486 c 0,58,59
 330 494 330 494 341 500 c 1,60,-1
 341 500 l 1,61,62
 330 504 330 504 321 512 c 0,63,64
 306 528 306 528 305 550 c 256,65,66
 305 572 305 572 321 586 c 0,67,68
 330 596 330 596 341 600 c 1,69,-1
 341 600 l 1,70,71
 330 604 330 604 321 612 c 0,72,73
 306 628 306 628 305 650 c 0,74,75
 305 672 305 672 321 688 c 256,76,77
 336 702 336 702 357 702 c 0,78,79
 359.444444444 702.222222222 359.444444444 702.222222222 361.802469136 702.222222222 c 0,80,81
 380.666666667 702.222222222 380.666666667 702.222222222 394 688 c 256,82,83
 410 674 410 674 410 650 c 0,84,85
 410 628 410 628 394 612 c 0,86,87
 385 604 385 604 374 600 c 1,88,-1
 374 600 l 1,89,90
 385 596 385 596 394 586 c 0,91,92
 410 572 410 572 410 550 c 256,93,94
 410 528 410 528 394 512 c 0,95,96
 385 502 385 502 374 500 c 1,97,-1
 374 500 l 1,98,99
 385 496 385 496 394 486 c 0,100,101
 410 472 410 472 410 450 c 128,-1,102
 410 428 410 428 394 412 c 256,103,104
 379 398 379 398 357 398 c 1,105,-1
 357 398 l 1,52,53
652 398 m 1,106,107
 630 398 630 398 615 412 c 256,108,109
 600 428 600 428 600 450 c 128,-1,110
 600 472 600 472 615 486 c 0,111,112
 624 494 624 494 636 500 c 1,113,-1
 636 500 l 1,114,115
 625 504 625 504 615 512 c 0,116,117
 600 528 600 528 600 550 c 256,118,119
 600 572 600 572 615 586 c 0,120,121
 624 596 624 596 636 600 c 1,122,-1
 636 600 l 1,123,124
 625 604 625 604 615 612 c 0,125,126
 600 628 600 628 600 650 c 128,-1,127
 600 672 600 672 615 688 c 256,128,129
 630 702 630 702 652 702 c 0,130,131
 654.444444444 702.222222222 654.444444444 702.222222222 656.814814815 702.222222222 c 0,132,133
 675.777777778 702.222222222 675.777777778 702.222222222 690 688 c 256,134,135
 705.058823529 673.945098039 705.058823529 673.945098039 705.058823529 647.432525952 c 0,136,137
 705.058823529 627.058823529 705.058823529 627.058823529 690 612 c 0,138,139
 681 604 681 604 669 600 c 1,140,-1
 669 600 l 1,141,142
 680 596 680 596 690 586 c 0,143,144
 705.058823529 571.945098039 705.058823529 571.945098039 705.058823529 547.432525952 c 0,145,146
 705.058823529 527.058823529 705.058823529 527.058823529 690 512 c 0,147,148
 681 502 681 502 669 500 c 1,149,-1
 669 500 l 1,150,151
 680 496 680 496 690 486 c 0,152,153
 705.058823529 471.945098039 705.058823529 471.945098039 705.058823529 447.432525952 c 0,154,155
 705.058823529 427.058823529 705.058823529 427.058823529 690 412 c 256,156,157
 675 398 675 398 652 398 c 1,158,-1
 652 398 l 1,106,107
757 398 m 1,159,160
 735 398 735 398 720 412 c 256,161,162
 705 428 705 428 705 450 c 128,-1,163
 705 472 705 472 720 486 c 0,164,165
 729 494 729 494 741 500 c 1,166,-1
 741 500 l 1,167,168
 730 504 730 504 720 512 c 0,169,170
 705 528 705 528 705 550 c 256,171,172
 705 572 705 572 720 586 c 0,173,174
 729 596 729 596 741 600 c 1,175,-1
 741 600 l 1,176,177
 730 604 730 604 720 612 c 0,178,179
 705 628 705 628 705 650 c 128,-1,180
 705 672 705 672 720 688 c 256,181,182
 735 702 735 702 757 702 c 0,183,184
 759.333333333 702.222222222 759.333333333 702.222222222 761.604938272 702.222222222 c 0,185,186
 779.777777778 702.222222222 779.777777778 702.222222222 794 688 c 256,187,188
 809 674 809 674 810 650 c 0,189,190
 810 628 810 628 794 612 c 0,191,192
 786 604 786 604 774 600 c 1,193,-1
 774 600 l 1,194,195
 786 596 786 596 794 586 c 0,196,197
 809 572 809 572 810 550 c 256,198,199
 810 528 810 528 794 512 c 0,200,201
 786 502 786 502 774 500 c 1,202,-1
 774 500 l 1,203,204
 786 496 786 496 794 486 c 0,205,206
 809 472 809 472 810 450 c 0,207,208
 810 428 810 428 794 412 c 256,209,210
 779 398 779 398 757 398 c 1,211,-1
 757 398 l 1,159,160
EndSplineSet
EndChar

StartChar: numbersign
Encoding: 35 35 3
Width: 1200
VWidth: 696
Flags: W
LayerCount: 2
Fore
SplineSet
204 228 m 1,0,1
 204 228 l 1,2,-1
 204 228 l 1,3,4
 204 228 l 1,5,-1
 204 228 l 1,0,1
605 228 m 1,6,7
 605 228 l 1,8,-1
 605 228 l 1,9,10
 605 228 l 1,11,-1
 605 228 l 1,6,7
52 198 m 1,12,13
 30 198 30 198 15 212 c 0,14,15
 0 228 0 228 0 250 c 128,-1,16
 0 272 0 272 15 288 c 0,17,18
 30 302 30 302 52 302 c 128,-1,19
 74 302 74 302 90 288 c 256,20,21
 105 274 105 274 105 250 c 0,22,23
 105 228 105 228 90 212 c 0,24,25
 74 198 74 198 52 198 c 1,26,-1
 52 198 l 1,12,13
958 198 m 1,27,28
 936 198 936 198 920 212 c 0,29,30
 905 228 905 228 904 250 c 0,31,32
 904 272 904 272 920 288 c 256,33,34
 935 302 935 302 958 302 c 0,35,36
 980 302 980 302 995 288 c 0,37,38
 1009.0625 274.875 1009.0625 274.875 1009.0625 252.9609375 c 0,39,40
 1009.0625 228.071428571 1009.0625 228.071428571 995 212 c 0,41,42
 980 198 980 198 958 198 c 1,43,-1
 958 198 l 1,27,28
405 428 m 1,44,-1
 405 428 l 1,45,-1
 405 428 l 1,46,-1
 405 428 l 1,47,-1
 405 428 l 1,44,-1
805 428 m 1,48,-1
 805 428 l 1,49,-1
 805 428 l 1,50,-1
 805 428 l 1,51,-1
 805 428 l 1,48,-1
52 398 m 1,52,53
 30 398 30 398 15 412 c 0,54,55
 0 428 0 428 0 450 c 128,-1,56
 0 472 0 472 15 486 c 128,-1,57
 30 500 30 500 52 502 c 0,58,59
 74 502 74 502 90 486 c 256,60,61
 105 472 105 472 105 450 c 128,-1,62
 105 428 105 428 90 412 c 256,63,64
 74 398 74 398 52 398 c 1,65,-1
 52 398 l 1,52,53
958 398 m 1,66,67
 936 398 936 398 920 412 c 256,68,69
 905 428 905 428 904 450 c 0,70,71
 904 472 904 472 920 486 c 256,72,73
 935 500 935 500 958 502 c 0,74,75
 980 502 980 502 995 486 c 0,76,77
 1009.0625 472.875 1009.0625 472.875 1009.0625 452.71875 c 0,78,79
 1009.0625 428.071428571 1009.0625 428.071428571 995 412 c 0,80,81
 980 398 980 398 958 398 c 1,82,-1
 958 398 l 1,66,67
252 -2 m 1,83,84
 230 -2 230 -2 215 12 c 0,85,86
 200 28 200 28 200 50 c 128,-1,87
 200 72 200 72 215 88 c 0,88,89
 224 98 224 98 236 100 c 1,90,-1
 236 100 l 1,91,92
 224 104 224 104 215 114 c 0,93,94
 200 128 200 128 200 150 c 128,-1,95
 200 172 200 172 215 188 c 0,96,97
 224 198 224 198 236 200 c 1,98,-1
 236 200 l 1,99,100
 224 204 224 204 215 212 c 0,101,102
 209 220 209 220 204 228 c 1,103,104
 200 220 200 220 195 212 c 0,105,106
 180 198 180 198 158 198 c 128,-1,107
 136 198 136 198 120 212 c 0,108,109
 105 228 105 228 105 250 c 128,-1,110
 105 272 105 272 120 288 c 256,111,112
 136 302 136 302 158 302 c 128,-1,113
 180 302 180 302 195 288 c 0,114,115
 201 282 201 282 204 272 c 1,116,-1
 204 272 l 1,117,118
 208 280 208 280 215 288 c 0,119,120
 224 298 224 298 236 300 c 1,121,-1
 236 300 l 1,122,123
 224 304 224 304 215 312 c 0,124,125
 200 328 200 328 200 350 c 128,-1,126
 200 372 200 372 215 388 c 0,127,128
 224 396 224 396 236 400 c 1,129,-1
 236 400 l 1,130,131
 224 404 224 404 215 412 c 0,132,133
 209 418 209 418 204 428 c 1,134,135
 200 420 200 420 195 412 c 0,136,137
 180 398 180 398 158 398 c 128,-1,138
 136 398 136 398 120 412 c 256,139,140
 105 428 105 428 105 450 c 128,-1,141
 105 472 105 472 120 486 c 256,142,143
 136 500 136 500 158 502 c 0,144,145
 180 502 180 502 195 486 c 0,146,147
 201 480 201 480 204 472 c 1,148,-1
 204 472 l 1,149,150
 208 480 208 480 215 486 c 0,151,152
 224 494 224 494 236 500 c 1,153,-1
 236 500 l 1,154,155
 224 504 224 504 215 512 c 0,156,157
 200 528 200 528 200 550 c 256,158,159
 200 572 200 572 215 586 c 0,160,161
 224 596 224 596 236 600 c 1,162,-1
 236 600 l 1,163,164
 224 604 224 604 215 612 c 0,165,166
 200 628 200 628 200 650 c 128,-1,167
 200 672 200 672 215 688 c 0,168,169
 230 702 230 702 252 702 c 0,170,171
 254.444444444 702.222222222 254.444444444 702.222222222 256.814814815 702.222222222 c 0,172,173
 275.777777778 702.222222222 275.777777778 702.222222222 290 688 c 256,174,175
 305 674 305 674 305 650 c 0,176,177
 305 628 305 628 290 612 c 0,178,179
 281 604 281 604 269 600 c 1,180,-1
 269 600 l 1,181,182
 280 596 280 596 290 586 c 0,183,184
 305 572 305 572 305 550 c 256,185,186
 305 528 305 528 290 512 c 0,187,188
 281 502 281 502 269 500 c 1,189,-1
 269 500 l 1,190,191
 280 496 280 496 290 486 c 0,192,193
 305 472 305 472 305 450 c 128,-1,194
 305 428 305 428 290 412 c 0,195,196
 281 404 281 404 269 400 c 1,197,-1
 269 400 l 1,198,199
 280 396 280 396 290 388 c 0,200,201
 305 374 305 374 305 350 c 0,202,203
 305 328 305 328 290 312 c 0,204,205
 281 304 281 304 269 300 c 1,206,-1
 269 300 l 1,207,208
 280 296 280 296 290 288 c 0,209,210
 305 274 305 274 305 250 c 0,211,212
 305 228 305 228 290 212 c 0,213,214
 281 204 281 204 269 200 c 1,215,-1
 269 200 l 1,216,217
 280 196 280 196 290 188 c 0,218,219
 305 172 305 172 305 150 c 0,220,221
 305 130 305 130 290 114 c 0,222,223
 281 106 281 106 269 100 c 1,224,-1
 269 100 l 1,225,226
 280 96 280 96 290 88 c 0,227,228
 305 72 305 72 305 50 c 128,-1,229
 305 28 305 28 290 12 c 0,230,231
 275 -2 275 -2 252 -2 c 1,232,-1
 252 -2 l 1,83,84
357 -2 m 1,233,234
 335 -2 335 -2 321 12 c 0,235,236
 306 28 306 28 305 50 c 0,237,238
 305 72 305 72 321 88 c 0,239,240
 330 98 330 98 341 100 c 1,241,-1
 341 100 l 1,242,243
 330 104 330 104 321 114 c 0,244,245
 306 128 306 128 305 150 c 0,246,247
 305 172 305 172 321 188 c 0,248,249
 330 198 330 198 341 200 c 1,250,-1
 341 200 l 1,251,252
 330 204 330 204 321 212 c 0,253,254
 306 228 306 228 305 250 c 0,255,256
 305 272 305 272 321 288 c 0,257,258
 330 298 330 298 341 300 c 1,259,-1
 341 300 l 1,260,261
 330 304 330 304 321 312 c 0,262,263
 306 328 306 328 305 350 c 0,264,265
 305 372 305 372 321 388 c 0,266,267
 330 396 330 396 341 400 c 1,268,-1
 341 400 l 1,269,270
 330 404 330 404 321 412 c 0,271,272
 306 428 306 428 305 450 c 0,273,274
 305 472 305 472 321 486 c 0,275,276
 330 494 330 494 341 500 c 1,277,-1
 341 500 l 1,278,279
 330 504 330 504 321 512 c 0,280,281
 306 528 306 528 305 550 c 256,282,283
 305 572 305 572 321 586 c 0,284,285
 330 596 330 596 341 600 c 1,286,-1
 341 600 l 1,287,288
 330 604 330 604 321 612 c 0,289,290
 306 628 306 628 305 650 c 0,291,292
 305 672 305 672 321 688 c 256,293,294
 336 702 336 702 357 702 c 0,295,296
 359.444444444 702.222222222 359.444444444 702.222222222 361.802469136 702.222222222 c 0,297,298
 380.666666667 702.222222222 380.666666667 702.222222222 394 688 c 256,299,300
 410 674 410 674 410 650 c 0,301,302
 410 628 410 628 394 612 c 0,303,304
 385 604 385 604 374 600 c 1,305,-1
 374 600 l 1,306,307
 385 596 385 596 394 586 c 0,308,309
 410 572 410 572 410 550 c 256,310,311
 410 528 410 528 394 512 c 0,312,313
 385 502 385 502 374 500 c 1,314,-1
 374 500 l 1,315,316
 385 496 385 496 394 486 c 0,317,318
 400 480 400 480 405 472 c 1,319,-1
 405 472 l 1,320,321
 409 480 409 480 415 486 c 0,322,323
 430 500 430 500 452 502 c 0,324,325
 474 502 474 502 489 486 c 256,326,327
 504 472 504 472 505 450 c 0,328,329
 505 428 505 428 489 412 c 256,330,331
 474 398 474 398 452 398 c 128,-1,332
 430 398 430 398 415 412 c 0,333,334
 408 418 408 418 405 428 c 1,335,-1
 405 428 l 1,336,337
 401 420 401 420 394 412 c 0,338,339
 385 404 385 404 374 400 c 1,340,-1
 374 400 l 1,341,342
 385 396 385 396 394 388 c 0,343,344
 410 374 410 374 410 350 c 0,345,346
 410 328 410 328 394 312 c 0,347,348
 385 304 385 304 374 300 c 1,349,-1
 374 300 l 1,350,351
 385 296 385 296 394 288 c 0,352,353
 400 282 400 282 405 272 c 1,354,-1
 405 272 l 1,355,356
 409 280 409 280 415 288 c 0,357,358
 430 302 430 302 452 302 c 128,-1,359
 474 302 474 302 489 288 c 256,360,361
 504 274 504 274 505 250 c 0,362,363
 505 228 505 228 489 212 c 0,364,365
 474 198 474 198 452 198 c 128,-1,366
 430 198 430 198 415 212 c 0,367,368
 408 220 408 220 405 228 c 1,369,-1
 405 228 l 1,370,371
 401 220 401 220 394 212 c 0,372,373
 385 204 385 204 374 200 c 1,374,-1
 374 200 l 1,375,376
 385 196 385 196 394 188 c 0,377,378
 410 172 410 172 410 150 c 0,379,380
 410 130 410 130 394 114 c 0,381,382
 385 106 385 106 374 100 c 1,383,-1
 374 100 l 1,384,385
 385 96 385 96 394 88 c 0,386,387
 410 72 410 72 410 50 c 128,-1,388
 410 28 410 28 394 12 c 0,389,390
 379 -2 379 -2 357 -2 c 1,391,-1
 357 -2 l 1,233,234
652 -2 m 1,392,393
 630 -2 630 -2 615 12 c 0,394,395
 600 28 600 28 600 50 c 128,-1,396
 600 72 600 72 615 88 c 0,397,398
 624 98 624 98 636 100 c 1,399,-1
 636 100 l 1,400,401
 625 104 625 104 615 114 c 0,402,403
 600 128 600 128 600 150 c 128,-1,404
 600 172 600 172 615 188 c 0,405,406
 624 198 624 198 636 200 c 1,407,-1
 636 200 l 1,408,409
 625 204 625 204 615 212 c 0,410,411
 609 220 609 220 605 228 c 1,412,413
 601 220 601 220 594 212 c 0,414,415
 579 198 579 198 557 198 c 128,-1,416
 535 198 535 198 520 212 c 0,417,418
 505 228 505 228 505 250 c 128,-1,419
 505 272 505 272 520 288 c 256,420,421
 535 302 535 302 557 302 c 128,-1,422
 579 302 579 302 594 288 c 0,423,424
 601 282 601 282 605 272 c 1,425,-1
 605 272 l 1,426,427
 609 280 609 280 615 288 c 0,428,429
 624 298 624 298 636 300 c 1,430,-1
 636 300 l 1,431,432
 625 304 625 304 615 312 c 0,433,434
 600 328 600 328 600 350 c 128,-1,435
 600 372 600 372 615 388 c 0,436,437
 624 396 624 396 636 400 c 1,438,-1
 636 400 l 1,439,440
 625 404 625 404 615 412 c 0,441,442
 609 418 609 418 605 428 c 1,443,444
 601 420 601 420 594 412 c 0,445,446
 579 398 579 398 557 398 c 128,-1,447
 535 398 535 398 520 412 c 256,448,449
 505 428 505 428 505 450 c 128,-1,450
 505 472 505 472 520 486 c 256,451,452
 535 500 535 500 557 502 c 0,453,454
 579 502 579 502 594 486 c 0,455,456
 601 480 601 480 605 472 c 1,457,-1
 605 472 l 1,458,459
 609 480 609 480 615 486 c 256,460,461
 621 492 621 492 629 498 c 1,462,-1
 600 498 l 1,463,-1
 600 602 l 1,464,-1
 629 602 l 1,465,466
 621 606 621 606 615 612 c 0,467,468
 600 628 600 628 600 650 c 128,-1,469
 600 672 600 672 615 688 c 256,470,471
 630 702 630 702 652 702 c 0,472,473
 654.444444444 702.222222222 654.444444444 702.222222222 656.814814815 702.222222222 c 0,474,475
 675.777777778 702.222222222 675.777777778 702.222222222 690 688 c 256,476,477
 705.058823529 673.945098039 705.058823529 673.945098039 705.058823529 647.432525952 c 0,478,479
 705.058823529 627.058823529 705.058823529 627.058823529 690 612 c 0,480,481
 684 606 684 606 675 602 c 1,482,-1
 734 602 l 1,483,484
 726 606 726 606 720 612 c 0,485,486
 705 628 705 628 705 650 c 128,-1,487
 705 672 705 672 720 688 c 256,488,489
 735 702 735 702 757 702 c 0,490,491
 759.333333333 702.222222222 759.333333333 702.222222222 761.604938272 702.222222222 c 0,492,493
 779.777777778 702.222222222 779.777777778 702.222222222 794 688 c 256,494,495
 809 674 809 674 810 650 c 0,496,497
 810 628 810 628 794 612 c 0,498,499
 788 606 788 606 780 602 c 1,500,-1
 810 602 l 1,501,-1
 810 498 l 1,502,-1
 780 498 l 1,503,504
 788 494 788 494 794 486 c 0,505,506
 801 480 801 480 805 472 c 1,507,-1
 805 472 l 1,508,509
 810 480 810 480 816 486 c 0,510,511
 831 500 831 500 853 502 c 0,512,513
 875 502 875 502 890 486 c 256,514,515
 904.0625 472.875 904.0625 472.875 904.0625 452.71875 c 0,516,517
 904.0625 428.071428571 904.0625 428.071428571 890 412 c 256,518,519
 875 398 875 398 853 398 c 0,520,521
 832 398 832 398 816 412 c 0,522,523
 810 418 810 418 805 428 c 1,524,-1
 805 428 l 1,525,526
 800 420 800 420 794 412 c 0,527,528
 786 404 786 404 774 400 c 1,529,-1
 774 400 l 1,530,531
 786 396 786 396 794 388 c 0,532,533
 809 374 809 374 810 350 c 0,534,535
 810 328 810 328 794 312 c 0,536,537
 786 304 786 304 774 300 c 1,538,-1
 774 300 l 1,539,540
 786 296 786 296 794 288 c 0,541,542
 801 282 801 282 805 272 c 1,543,-1
 805 272 l 1,544,545
 810 280 810 280 816 288 c 0,546,547
 831 302 831 302 853 302 c 128,-1,548
 875 302 875 302 890 288 c 256,549,550
 904.0625 274.875 904.0625 274.875 904.0625 252.9609375 c 0,551,552
 904.0625 228.071428571 904.0625 228.071428571 890 212 c 0,553,554
 875 198 875 198 853 198 c 0,555,556
 832 198 832 198 816 212 c 0,557,558
 810 220 810 220 805 228 c 1,559,560
 800 220 800 220 794 212 c 0,561,562
 786 204 786 204 774 200 c 1,563,-1
 774 200 l 1,564,565
 786 196 786 196 794 188 c 0,566,567
 809 172 809 172 810 150 c 0,568,569
 810 130 810 130 794 114 c 0,570,571
 786 106 786 106 774 100 c 1,572,-1
 774 100 l 1,573,574
 786 96 786 96 794 88 c 0,575,576
 809 72 809 72 810 50 c 0,577,578
 810 28 810 28 794 12 c 0,579,580
 779 -2 779 -2 757 -2 c 128,-1,581
 735 -2 735 -2 720 12 c 0,582,583
 705 28 705 28 705 50 c 128,-1,584
 705 72 705 72 720 88 c 0,585,586
 729 98 729 98 741 100 c 1,587,-1
 741 100 l 1,588,589
 730 104 730 104 720 114 c 0,590,591
 705 128 705 128 705 150 c 128,-1,592
 705 172 705 172 720 188 c 0,593,594
 729 198 729 198 741 200 c 1,595,-1
 741 200 l 1,596,597
 730 204 730 204 720 212 c 0,598,599
 705 228 705 228 705 250 c 128,-1,600
 705 272 705 272 720 288 c 0,601,602
 729 298 729 298 741 300 c 1,603,-1
 741 300 l 1,604,605
 730 304 730 304 720 312 c 0,606,607
 705 328 705 328 705 350 c 128,-1,608
 705 372 705 372 720 388 c 0,609,610
 729 396 729 396 741 400 c 1,611,-1
 741 400 l 1,612,613
 730 404 730 404 720 412 c 0,614,615
 705 428 705 428 705 450 c 128,-1,616
 705 472 705 472 720 486 c 0,617,618
 726 492 726 492 734 498 c 1,619,-1
 675 498 l 1,620,621
 684 494 684 494 690 486 c 0,622,623
 705.058823529 471.945098039 705.058823529 471.945098039 705.058823529 447.432525952 c 0,624,625
 705.058823529 427.058823529 705.058823529 427.058823529 690 412 c 0,626,627
 681 404 681 404 669 400 c 1,628,-1
 669 400 l 1,629,630
 680 396 680 396 690 388 c 0,631,632
 705.058823529 373.945098039 705.058823529 373.945098039 705.058823529 347.432525952 c 0,633,634
 705.058823529 327.058823529 705.058823529 327.058823529 690 312 c 0,635,636
 681 304 681 304 669 300 c 1,637,-1
 669 300 l 1,638,639
 680 296 680 296 690 288 c 0,640,641
 705.058823529 273.945098039 705.058823529 273.945098039 705.058823529 247.432525952 c 0,642,643
 705.058823529 227.058823529 705.058823529 227.058823529 690 212 c 0,644,645
 681 204 681 204 669 200 c 1,646,-1
 669 200 l 1,647,648
 680 196 680 196 690 188 c 0,649,650
 705.058823529 171.937254902 705.058823529 171.937254902 705.058823529 147.660899654 c 0,651,652
 705.058823529 129.058823529 705.058823529 129.058823529 690 114 c 0,653,654
 681 106 681 106 669 100 c 1,655,-1
 669 100 l 1,656,657
 680 96 680 96 690 88 c 0,658,659
 705.058823529 71.937254902 705.058823529 71.937254902 705.058823529 47.4325259516 c 0,660,661
 705.058823529 27.0588235294 705.058823529 27.0588235294 690 12 c 0,662,663
 675 -2 675 -2 652 -2 c 1,664,-1
 652 -2 l 1,392,393
EndSplineSet
EndChar

StartChar: dollar
Encoding: 36 36 4
Width: 1200
VWidth: 696
Flags: W
LayerCount: 2
Fore
SplineSet
204 128 m 1,0,1
 204 128 l 1,2,-1
 204 128 l 1,3,4
 204 128 l 1,5,-1
 204 128 l 1,0,1
405 128 m 1,6,7
 405 128 l 1,8,-1
 405 128 l 1,9,10
 405 128 l 1,11,-1
 405 128 l 1,6,7
52 98 m 1,12,13
 30 98 30 98 15 114 c 0,14,15
 0 128 0 128 0 150 c 128,-1,16
 0 172 0 172 15 188 c 0,17,18
 28.3333333333 202.222222222 28.3333333333 202.222222222 47.1975308642 202.222222222 c 0,19,20
 49.5555555556 202.222222222 49.5555555556 202.222222222 52 202 c 0,21,22
 74 202 74 202 90 188 c 256,23,24
 105 172 105 172 105 150 c 0,25,26
 105 130 105 130 90 114 c 256,27,28
 74 100 74 100 52 98 c 1,29,-1
 52 98 l 1,12,13
158 98 m 1,30,31
 136 98 136 98 120 114 c 256,32,33
 105 128 105 128 105 150 c 128,-1,34
 105 172 105 172 120 188 c 256,35,36
 134.222222222 202.222222222 134.222222222 202.222222222 153.185185185 202.222222222 c 0,37,38
 155.555555556 202.222222222 155.555555556 202.222222222 158 202 c 0,39,40
 180 202 180 202 195 188 c 0,41,42
 201 182 201 182 204 172 c 1,43,-1
 204 172 l 1,44,45
 208 180 208 180 215 188 c 0,46,47
 228.333333333 202.222222222 228.333333333 202.222222222 247.197530864 202.222222222 c 0,48,49
 249.555555556 202.222222222 249.555555556 202.222222222 252 202 c 0,50,51
 274 202 274 202 290 188 c 256,52,53
 305 172 305 172 305 150 c 0,54,55
 305 130 305 130 290 114 c 256,56,57
 275 100 275 100 252 98 c 0,58,59
 230 98 230 98 215 114 c 0,60,61
 209 120 209 120 204 128 c 1,62,63
 200 120 200 120 195 114 c 0,64,65
 180 100 180 100 158 98 c 1,66,-1
 158 98 l 1,30,31
757 98 m 1,67,68
 735 98 735 98 720 114 c 256,69,70
 705 128 705 128 705 150 c 128,-1,71
 705 172 705 172 720 188 c 256,72,73
 733.333333333 202.222222222 733.333333333 202.222222222 752.197530864 202.222222222 c 0,74,75
 754.555555556 202.222222222 754.555555556 202.222222222 757 202 c 0,76,77
 778 202 778 202 794 188 c 256,78,79
 809 172 809 172 810 150 c 0,80,81
 810 130 810 130 794 114 c 256,82,83
 779 100 779 100 757 98 c 1,84,-1
 757 98 l 1,67,68
853 198 m 1,85,86
 832 198 832 198 816 212 c 0,87,88
 801 228 801 228 800 250 c 0,89,90
 800 272 800 272 816 288 c 256,91,92
 831 302 831 302 853 302 c 128,-1,93
 875 302 875 302 890 288 c 256,94,95
 904.0625 274.875 904.0625 274.875 904.0625 252.9609375 c 0,96,97
 904.0625 228.071428571 904.0625 228.071428571 890 212 c 0,98,99
 875 198 875 198 853 198 c 1,100,-1
 853 198 l 1,85,86
958 198 m 1,101,102
 936 198 936 198 920 212 c 0,103,104
 905 228 905 228 904 250 c 0,105,106
 904 272 904 272 920 288 c 256,107,108
 935 302 935 302 958 302 c 0,109,110
 980 302 980 302 995 288 c 0,111,112
 1009.0625 274.875 1009.0625 274.875 1009.0625 252.9609375 c 0,113,114
 1009.0625 228.071428571 1009.0625 228.071428571 995 212 c 0,115,116
 980 198 980 198 958 198 c 1,117,-1
 958 198 l 1,101,102
605 328 m 1,118,-1
 605 328 l 1,119,-1
 605 328 l 1,120,-1
 605 328 l 1,121,-1
 605 328 l 1,118,-1
252 298 m 1,122,123
 230 298 230 298 215 312 c 0,124,125
 200 328 200 328 200 350 c 128,-1,126
 200 372 200 372 215 388 c 0,127,128
 230 402 230 402 252 402 c 128,-1,129
 274 402 274 402 290 388 c 0,130,131
 305 374 305 374 305 350 c 0,132,133
 305 328 305 328 290 312 c 256,134,135
 275 298 275 298 252 298 c 1,136,-1
 252 298 l 1,122,123
757 298 m 1,137,138
 735 298 735 298 720 312 c 256,139,140
 705 328 705 328 705 350 c 128,-1,141
 705 372 705 372 720 388 c 0,142,143
 735 402 735 402 757 402 c 0,144,145
 778 402 778 402 794 388 c 0,146,147
 809 374 809 374 810 350 c 0,148,149
 810 328 810 328 794 312 c 256,150,151
 779 298 779 298 757 298 c 1,152,-1
 757 298 l 1,137,138
52 398 m 1,153,154
 30 398 30 398 15 412 c 0,155,156
 0 428 0 428 0 450 c 128,-1,157
 0 472 0 472 15 486 c 128,-1,158
 30 500 30 500 52 502 c 0,159,160
 74 502 74 502 90 486 c 256,161,162
 105 472 105 472 105 450 c 128,-1,163
 105 428 105 428 90 412 c 256,164,165
 74 398 74 398 52 398 c 1,166,-1
 52 398 l 1,153,154
158 398 m 1,167,168
 136 398 136 398 120 412 c 256,169,170
 105 428 105 428 105 450 c 128,-1,171
 105 472 105 472 120 486 c 256,172,173
 136 500 136 500 158 502 c 0,174,175
 180 502 180 502 195 486 c 256,176,177
 210 472 210 472 210 450 c 128,-1,178
 210 428 210 428 195 412 c 256,179,180
 180 398 180 398 158 398 c 1,181,-1
 158 398 l 1,167,168
405 526 m 1,182,-1
 405 526 l 1,183,-1
 405 526 l 1,184,-1
 405 526 l 1,185,-1
 405 526 l 1,182,-1
805 526 m 1,186,-1
 805 526 l 1,187,-1
 805 526 l 1,188,-1
 805 526 l 1,189,-1
 805 526 l 1,186,-1
252 498 m 1,190,191
 230 498 230 498 215 512 c 0,192,193
 200 528 200 528 200 550 c 256,194,195
 200 572 200 572 215 586 c 128,-1,196
 230 600 230 600 252 602 c 0,197,198
 274 602 274 602 290 586 c 256,199,200
 305 572 305 572 305 550 c 256,201,202
 305 528 305 528 290 512 c 256,203,204
 275 498 275 498 252 498 c 1,205,-1
 252 498 l 1,190,191
757 498 m 1,206,207
 735 498 735 498 720 512 c 256,208,209
 705 528 705 528 705 550 c 256,210,211
 705 572 705 572 720 586 c 256,212,213
 735 600 735 600 757 602 c 0,214,215
 778 602 778 602 794 586 c 0,216,217
 801 578 801 578 805 572 c 1,218,-1
 805 572 l 1,219,220
 810 580 810 580 816 586 c 0,221,222
 831 600 831 600 853 602 c 0,223,224
 875 602 875 602 890 586 c 256,225,226
 904.0625 572.875 904.0625 572.875 904.0625 552.71875 c 0,227,228
 904.0625 528.071428571 904.0625 528.071428571 890 512 c 256,229,230
 875 498 875 498 853 498 c 0,231,232
 832 498 832 498 816 512 c 0,233,234
 810 518 810 518 805 526 c 1,235,-1
 805 526 l 1,236,237
 800 518 800 518 794 512 c 0,238,239
 779 498 779 498 757 498 c 1,240,-1
 757 498 l 1,206,207
958 498 m 1,241,242
 936 498 936 498 920 512 c 256,243,244
 905 528 905 528 904 550 c 256,245,246
 904 572 904 572 920 586 c 256,247,248
 935 600 935 600 958 602 c 0,249,250
 980 602 980 602 995 586 c 0,251,252
 1009.0625 572.875 1009.0625 572.875 1009.0625 552.71875 c 0,253,254
 1009.0625 528.071428571 1009.0625 528.071428571 995 512 c 0,255,256
 980 498 980 498 958 498 c 1,257,-1
 958 498 l 1,241,242
452 -2 m 1,258,259
 430 -2 430 -2 415 12 c 0,260,261
 400 28 400 28 400 50 c 128,-1,262
 400 72 400 72 415 88 c 0,263,264
 424 98 424 98 436 100 c 1,265,-1
 436 100 l 1,266,267
 425 104 425 104 415 114 c 0,268,269
 408 120 408 120 405 128 c 1,270,271
 401 120 401 120 394 114 c 0,272,273
 379 100 379 100 357 98 c 0,274,275
 335 98 335 98 321 114 c 256,276,277
 306 128 306 128 305 150 c 0,278,279
 305 172 305 172 321 188 c 256,280,281
 334.333333333 202.222222222 334.333333333 202.222222222 352.407407407 202.222222222 c 0,282,283
 354.666666667 202.222222222 354.666666667 202.222222222 357 202 c 0,284,285
 379 202 379 202 394 188 c 0,286,287
 400 182 400 182 405 172 c 1,288,-1
 405 172 l 1,289,290
 409 180 409 180 415 188 c 0,291,292
 424 198 424 198 436 200 c 1,293,-1
 436 200 l 1,294,295
 425 204 425 204 415 212 c 0,296,297
 400 228 400 228 400 250 c 128,-1,298
 400 272 400 272 415 288 c 0,299,300
 424 298 424 298 436 300 c 1,301,-1
 436 300 l 1,302,303
 425 304 425 304 415 312 c 0,304,305
 408 318 408 318 405 328 c 1,306,-1
 405 328 l 1,307,308
 401 320 401 320 394 312 c 0,309,310
 379 298 379 298 357 298 c 128,-1,311
 335 298 335 298 321 312 c 256,312,313
 306 328 306 328 305 350 c 0,314,315
 305 372 305 372 321 388 c 0,316,317
 336 402 336 402 357 402 c 0,318,319
 379 402 379 402 394 388 c 0,320,321
 400 380 400 380 405 372 c 1,322,-1
 405 372 l 1,323,324
 409 380 409 380 415 388 c 0,325,326
 424 396 424 396 436 400 c 1,327,-1
 436 400 l 1,328,329
 425 404 425 404 415 412 c 0,330,331
 400 428 400 428 400 450 c 128,-1,332
 400 472 400 472 415 486 c 0,333,334
 424 494 424 494 436 500 c 1,335,-1
 436 500 l 1,336,337
 425 504 425 504 415 512 c 0,338,339
 408 518 408 518 405 526 c 1,340,-1
 405 526 l 1,341,342
 401 518 401 518 394 512 c 0,343,344
 379 498 379 498 357 498 c 128,-1,345
 335 498 335 498 321 512 c 256,346,347
 306 528 306 528 305 550 c 256,348,349
 305 572 305 572 321 586 c 256,350,351
 336 600 336 600 357 602 c 0,352,353
 379 602 379 602 394 586 c 0,354,355
 400 578 400 578 405 572 c 1,356,-1
 405 572 l 1,357,358
 409 580 409 580 415 586 c 0,359,360
 424 596 424 596 436 600 c 1,361,-1
 436 600 l 1,362,363
 425 604 425 604 415 612 c 0,364,365
 400 628 400 628 400 650 c 128,-1,366
 400 672 400 672 415 688 c 256,367,368
 430 702 430 702 452 702 c 0,369,370
 454.444444444 702.222222222 454.444444444 702.222222222 456.802469136 702.222222222 c 0,371,372
 475.666666667 702.222222222 475.666666667 702.222222222 489 688 c 256,373,374
 504 674 504 674 505 650 c 0,375,376
 505 628 505 628 489 612 c 0,377,378
 480 604 480 604 469 600 c 1,379,-1
 469 600 l 1,380,381
 480 596 480 596 489 586 c 0,382,383
 504 572 504 572 505 550 c 256,384,385
 505 528 505 528 489 512 c 0,386,387
 480 502 480 502 469 500 c 1,388,-1
 469 500 l 1,389,390
 480 496 480 496 489 486 c 0,391,392
 504 472 504 472 505 450 c 0,393,394
 505 428 505 428 489 412 c 0,395,396
 480 404 480 404 469 400 c 1,397,-1
 469 400 l 1,398,399
 480 396 480 396 489 388 c 0,400,401
 504 374 504 374 505 350 c 0,402,403
 505 328 505 328 489 312 c 0,404,405
 480 304 480 304 469 300 c 1,406,-1
 469 300 l 1,407,408
 480 296 480 296 489 288 c 0,409,410
 504 274 504 274 505 250 c 0,411,412
 505 228 505 228 489 212 c 0,413,414
 480 204 480 204 469 200 c 1,415,-1
 469 200 l 1,416,417
 480 196 480 196 489 188 c 0,418,419
 504 172 504 172 505 150 c 0,420,421
 505 130 505 130 489 114 c 0,422,423
 480 106 480 106 469 100 c 1,424,-1
 469 100 l 1,425,426
 480 96 480 96 489 88 c 0,427,428
 504 72 504 72 505 50 c 0,429,430
 505 28 505 28 489 12 c 0,431,432
 474 -2 474 -2 452 -2 c 1,433,-1
 452 -2 l 1,258,259
557 -2 m 1,434,435
 535 -2 535 -2 520 12 c 0,436,437
 505 28 505 28 505 50 c 128,-1,438
 505 72 505 72 520 88 c 0,439,440
 529 98 529 98 540 100 c 1,441,-1
 540 100 l 1,442,443
 529 104 529 104 520 114 c 0,444,445
 505 128 505 128 505 150 c 128,-1,446
 505 172 505 172 520 188 c 0,447,448
 529 198 529 198 540 200 c 1,449,-1
 540 200 l 1,450,451
 529 204 529 204 520 212 c 0,452,453
 505 228 505 228 505 250 c 128,-1,454
 505 272 505 272 520 288 c 0,455,456
 529 298 529 298 540 300 c 1,457,-1
 540 300 l 1,458,459
 529 304 529 304 520 312 c 0,460,461
 505 328 505 328 505 350 c 128,-1,462
 505 372 505 372 520 388 c 0,463,464
 529 396 529 396 540 400 c 1,465,-1
 540 400 l 1,466,467
 529 404 529 404 520 412 c 0,468,469
 505 428 505 428 505 450 c 128,-1,470
 505 472 505 472 520 486 c 0,471,472
 529 494 529 494 540 500 c 1,473,-1
 540 500 l 1,474,475
 529 504 529 504 520 512 c 0,476,477
 505 528 505 528 505 550 c 256,478,479
 505 572 505 572 520 586 c 0,480,481
 529 596 529 596 540 600 c 1,482,-1
 540 600 l 1,483,484
 529 604 529 604 520 612 c 0,485,486
 505 628 505 628 505 650 c 128,-1,487
 505 672 505 672 520 688 c 256,488,489
 535 702 535 702 557 702 c 0,490,491
 559.444444444 702.222222222 559.444444444 702.222222222 561.802469136 702.222222222 c 0,492,493
 580.666666667 702.222222222 580.666666667 702.222222222 594 688 c 256,494,495
 609 674 609 674 610 650 c 0,496,497
 610 628 610 628 594 612 c 0,498,499
 585 604 585 604 574 600 c 1,500,-1
 574 600 l 1,501,502
 585 596 585 596 594 586 c 0,503,504
 601 578 601 578 605 572 c 1,505,-1
 605 572 l 1,506,507
 609 580 609 580 615 586 c 0,508,509
 630 600 630 600 652 602 c 0,510,511
 674 602 674 602 690 586 c 256,512,513
 705.058823529 571.945098039 705.058823529 571.945098039 705.058823529 547.432525952 c 0,514,515
 705.058823529 527.058823529 705.058823529 527.058823529 690 512 c 256,516,517
 675 498 675 498 652 498 c 0,518,519
 630 498 630 498 615 512 c 0,520,521
 609 518 609 518 605 526 c 1,522,523
 601 518 601 518 594 512 c 0,524,525
 585 502 585 502 574 500 c 1,526,-1
 574 500 l 1,527,528
 585 496 585 496 594 486 c 0,529,530
 609 472 609 472 610 450 c 0,531,532
 610 428 610 428 594 412 c 0,533,534
 585 404 585 404 574 400 c 1,535,-1
 574 400 l 1,536,537
 585 396 585 396 594 388 c 0,538,539
 601 380 601 380 605 372 c 1,540,-1
 605 372 l 1,541,542
 609 380 609 380 615 388 c 0,543,544
 630 402 630 402 652 402 c 128,-1,545
 674 402 674 402 690 388 c 0,546,547
 705.058823529 373.945098039 705.058823529 373.945098039 705.058823529 347.432525952 c 0,548,549
 705.058823529 327.058823529 705.058823529 327.058823529 690 312 c 256,550,551
 675 298 675 298 652 298 c 0,552,553
 630 298 630 298 615 312 c 0,554,555
 609 318 609 318 605 328 c 1,556,-1
 605 328 l 1,557,558
 601 320 601 320 594 312 c 0,559,560
 585 304 585 304 574 300 c 1,561,-1
 574 300 l 1,562,563
 585 296 585 296 594 288 c 0,564,565
 609 274 609 274 610 250 c 0,566,567
 610 228 610 228 594 212 c 0,568,569
 585 204 585 204 574 200 c 1,570,-1
 574 200 l 1,571,572
 585 196 585 196 594 188 c 0,573,574
 601 182 601 182 605 172 c 1,575,-1
 605 172 l 1,576,577
 609 180 609 180 615 188 c 0,578,579
 628.333333333 202.222222222 628.333333333 202.222222222 647.197530864 202.222222222 c 0,580,581
 649.555555556 202.222222222 649.555555556 202.222222222 652 202 c 0,582,583
 674 202 674 202 690 188 c 256,584,585
 705.058823529 171.937254902 705.058823529 171.937254902 705.058823529 147.660899654 c 0,586,587
 705.058823529 129.058823529 705.058823529 129.058823529 690 114 c 256,588,589
 675 100 675 100 652 98 c 0,590,591
 630 98 630 98 615 114 c 0,592,593
 609 120 609 120 605 128 c 1,594,595
 601 120 601 120 594 114 c 0,596,597
 585 106 585 106 574 100 c 1,598,-1
 574 100 l 1,599,600
 585 96 585 96 594 88 c 0,601,602
 609 72 609 72 610 50 c 0,603,604
 610 28 610 28 594 12 c 0,605,606
 579 -2 579 -2 557 -2 c 1,607,-1
 557 -2 l 1,434,435
EndSplineSet
EndChar

StartChar: percent
Encoding: 37 37 5
Width: 1200
VWidth: 696
Flags: W
LayerCount: 2
Fore
SplineSet
805 128 m 1,0,1
 805 128 l 1,2,-1
 805 128 l 1,3,4
 805 128 l 1,5,-1
 805 128 l 1,0,1
52 98 m 1,6,7
 30 98 30 98 15 114 c 0,8,9
 0 128 0 128 0 150 c 128,-1,10
 0 172 0 172 15 188 c 0,11,12
 28.3333333333 202.222222222 28.3333333333 202.222222222 47.1975308642 202.222222222 c 0,13,14
 49.5555555556 202.222222222 49.5555555556 202.222222222 52 202 c 0,15,16
 74 202 74 202 90 188 c 256,17,18
 105 172 105 172 105 150 c 0,19,20
 105 130 105 130 90 114 c 256,21,22
 74 100 74 100 52 98 c 1,23,-1
 52 98 l 1,6,7
158 98 m 1,24,25
 136 98 136 98 120 114 c 256,26,27
 105 128 105 128 105 150 c 128,-1,28
 105 172 105 172 120 188 c 256,29,30
 134.222222222 202.222222222 134.222222222 202.222222222 153.185185185 202.222222222 c 0,31,32
 155.555555556 202.222222222 155.555555556 202.222222222 158 202 c 0,33,34
 180 202 180 202 195 188 c 256,35,36
 210 172 210 172 210 150 c 0,37,38
 210 130 210 130 195 114 c 256,39,40
 180 100 180 100 158 98 c 1,41,-1
 158 98 l 1,24,25
805 172 m 1,42,43
 810 180 810 180 816 188 c 0,44,45
 825 198 825 198 836 200 c 1,46,-1
 836 200 l 1,47,48
 826 204 826 204 816 212 c 0,49,50
 810 220 810 220 805 228 c 1,51,-1
 805 228 l 1,52,53
 800 220 800 220 794 212 c 0,54,55
 786 204 786 204 774 200 c 1,56,-1
 774 200 l 1,57,58
 786 196 786 196 794 188 c 0,59,60
 801 182 801 182 805 172 c 1,61,-1
 805 172 l 1,42,43
805 228 m 1,62,-1
 805 228 l 1,63,-1
 805 228 l 1,64,-1
 805 228 l 1,65,-1
 805 228 l 1,62,-1
252 198 m 1,66,67
 230 198 230 198 215 212 c 0,68,69
 200 228 200 228 200 250 c 128,-1,70
 200 272 200 272 215 288 c 0,71,72
 230 302 230 302 252 302 c 128,-1,73
 274 302 274 302 290 288 c 256,74,75
 305 274 305 274 305 250 c 0,76,77
 305 228 305 228 290 212 c 0,78,79
 275 198 275 198 252 198 c 1,80,-1
 252 198 l 1,66,67
357 198 m 1,81,82
 335 198 335 198 321 212 c 0,83,84
 306 228 306 228 305 250 c 0,85,86
 305 272 305 272 321 288 c 256,87,88
 336 302 336 302 357 302 c 0,89,90
 379 302 379 302 394 288 c 256,91,92
 410 274 410 274 410 250 c 0,93,94
 410 228 410 228 394 212 c 0,95,96
 379 198 379 198 357 198 c 1,97,-1
 357 198 l 1,81,82
652 98 m 1,98,99
 630 98 630 98 615 114 c 256,100,101
 600 128 600 128 600 150 c 128,-1,102
 600 172 600 172 615 188 c 0,103,104
 624 198 624 198 636 200 c 1,105,-1
 636 200 l 1,106,107
 625 204 625 204 615 212 c 0,108,109
 600 228 600 228 600 250 c 128,-1,110
 600 272 600 272 615 288 c 256,111,112
 630 302 630 302 652 302 c 128,-1,113
 674 302 674 302 690 288 c 256,114,115
 705.058823529 273.945098039 705.058823529 273.945098039 705.058823529 247.432525952 c 0,116,117
 705.058823529 227.058823529 705.058823529 227.058823529 690 212 c 0,118,119
 681 204 681 204 669 200 c 1,120,-1
 669 200 l 1,121,122
 680 196 680 196 690 188 c 0,123,124
 705.058823529 171.937254902 705.058823529 171.937254902 705.058823529 147.660899654 c 0,125,126
 705.058823529 129.058823529 705.058823529 129.058823529 690 114 c 256,127,128
 675 100 675 100 652 98 c 1,129,-1
 652 98 l 1,98,99
757 98 m 1,130,131
 735 98 735 98 720 114 c 256,132,133
 705 128 705 128 705 150 c 128,-1,134
 705 172 705 172 720 188 c 0,135,136
 729 198 729 198 741 200 c 1,137,-1
 741 200 l 1,138,139
 730 204 730 204 720 212 c 0,140,141
 705 228 705 228 705 250 c 128,-1,142
 705 272 705 272 720 288 c 256,143,144
 735 302 735 302 757 302 c 0,145,146
 778 302 778 302 794 288 c 0,147,148
 801 282 801 282 805 272 c 1,149,-1
 805 272 l 1,150,151
 810 280 810 280 816 288 c 0,152,153
 831 302 831 302 853 302 c 128,-1,154
 875 302 875 302 890 288 c 256,155,156
 904.0625 274.875 904.0625 274.875 904.0625 252.9609375 c 0,157,158
 904.0625 228.071428571 904.0625 228.071428571 890 212 c 0,159,160
 881 204 881 204 869 200 c 1,161,-1
 869 200 l 1,162,163
 880 196 880 196 890 188 c 0,164,165
 904.0625 173 904.0625 173 904.0625 152.7265625 c 0,166,167
 904.0625 130.071428571 904.0625 130.071428571 890 114 c 256,168,169
 875 100 875 100 853 98 c 0,170,171
 832 98 832 98 816 114 c 0,172,173
 810 120 810 120 805 128 c 1,174,175
 800 120 800 120 794 114 c 0,176,177
 779 100 779 100 757 98 c 1,178,-1
 757 98 l 1,130,131
958 98 m 1,179,180
 936 98 936 98 920 114 c 256,181,182
 905 128 905 128 904 150 c 0,183,184
 904 172 904 172 920 188 c 0,185,186
 929 198 929 198 941 200 c 1,187,-1
 941 200 l 1,188,189
 929 204 929 204 920 212 c 0,190,191
 905 228 905 228 904 250 c 0,192,193
 904 272 904 272 920 288 c 256,194,195
 935 302 935 302 958 302 c 0,196,197
 980 302 980 302 995 288 c 0,198,199
 1009.0625 274.875 1009.0625 274.875 1009.0625 252.9609375 c 0,200,201
 1009.0625 228.071428571 1009.0625 228.071428571 995 212 c 0,202,203
 986 204 986 204 974 200 c 1,204,-1
 974 200 l 1,205,206
 986 196 986 196 995 188 c 0,207,208
 1009.0625 173 1009.0625 173 1009.0625 152.7265625 c 0,209,210
 1009.0625 130.071428571 1009.0625 130.071428571 995 114 c 0,211,212
 980 100 980 100 958 98 c 1,213,-1
 958 98 l 1,179,180
452 298 m 1,214,215
 430 298 430 298 415 312 c 256,216,217
 400 328 400 328 400 350 c 128,-1,218
 400 372 400 372 415 388 c 0,219,220
 430 402 430 402 452 402 c 128,-1,221
 474 402 474 402 489 388 c 128,-1,222
 504 374 504 374 505 350 c 0,223,224
 505 328 505 328 489 312 c 256,225,226
 474 298 474 298 452 298 c 1,227,-1
 452 298 l 1,214,215
557 298 m 1,228,229
 535 298 535 298 520 312 c 256,230,231
 505 328 505 328 505 350 c 128,-1,232
 505 372 505 372 520 388 c 0,233,234
 535 402 535 402 557 402 c 128,-1,235
 579 402 579 402 594 388 c 128,-1,236
 609 374 609 374 610 350 c 0,237,238
 610 328 610 328 594 312 c 256,239,240
 579 298 579 298 557 298 c 1,241,-1
 557 298 l 1,228,229
652 398 m 1,242,243
 630 398 630 398 615 412 c 256,244,245
 600 428 600 428 600 450 c 128,-1,246
 600 472 600 472 615 486 c 256,247,248
 630 500 630 500 652 502 c 0,249,250
 674 502 674 502 690 486 c 256,251,252
 705.058823529 471.945098039 705.058823529 471.945098039 705.058823529 447.432525952 c 0,253,254
 705.058823529 427.058823529 705.058823529 427.058823529 690 412 c 256,255,256
 675 398 675 398 652 398 c 1,257,-1
 652 398 l 1,242,243
757 398 m 1,258,259
 735 398 735 398 720 412 c 256,260,261
 705 428 705 428 705 450 c 128,-1,262
 705 472 705 472 720 486 c 256,263,264
 735 500 735 500 757 502 c 0,265,266
 778 502 778 502 794 486 c 256,267,268
 809 472 809 472 810 450 c 0,269,270
 810 428 810 428 794 412 c 256,271,272
 779 398 779 398 757 398 c 1,273,-1
 757 398 l 1,258,259
204 472 m 1,274,275
 208 480 208 480 215 486 c 0,276,277
 224 494 224 494 236 500 c 1,278,-1
 236 500 l 1,279,280
 224 504 224 504 215 512 c 0,281,282
 209 518 209 518 204 526 c 1,283,-1
 204 526 l 1,284,285
 200 518 200 518 195 512 c 0,286,287
 186 502 186 502 174 500 c 1,288,-1
 174 500 l 1,289,290
 185 496 185 496 195 486 c 0,291,292
 201 480 201 480 204 472 c 1,293,-1
 204 472 l 1,274,275
204 526 m 1,294,-1
 204 526 l 1,295,-1
 204 526 l 1,296,-1
 204 526 l 1,297,-1
 204 526 l 1,294,-1
52 398 m 1,298,299
 30 398 30 398 15 412 c 0,300,301
 0 428 0 428 0 450 c 128,-1,302
 0 472 0 472 15 486 c 0,303,304
 24 494 24 494 36 500 c 1,305,-1
 36 500 l 1,306,307
 24 504 24 504 15 512 c 0,308,309
 0 528 0 528 0 550 c 256,310,311
 0 572 0 572 15 586 c 128,-1,312
 30 600 30 600 52 602 c 0,313,314
 74 602 74 602 90 586 c 256,315,316
 105 572 105 572 105 550 c 256,317,318
 105 528 105 528 90 512 c 0,319,320
 81 502 81 502 69 500 c 1,321,-1
 69 500 l 1,322,323
 81 496 81 496 90 486 c 0,324,325
 105 472 105 472 105 450 c 128,-1,326
 105 428 105 428 90 412 c 256,327,328
 74 398 74 398 52 398 c 1,329,-1
 52 398 l 1,298,299
158 398 m 1,330,331
 136 398 136 398 120 412 c 256,332,333
 105 428 105 428 105 450 c 128,-1,334
 105 472 105 472 120 486 c 0,335,336
 129 494 129 494 141 500 c 1,337,-1
 141 500 l 1,338,339
 129 504 129 504 120 512 c 0,340,341
 105 528 105 528 105 550 c 256,342,343
 105 572 105 572 120 586 c 256,344,345
 136 600 136 600 158 602 c 0,346,347
 180 602 180 602 195 586 c 0,348,349
 201 578 201 578 204 572 c 1,350,-1
 204 572 l 1,351,352
 208 580 208 580 215 586 c 0,353,354
 230 600 230 600 252 602 c 0,355,356
 274 602 274 602 290 586 c 256,357,358
 305 572 305 572 305 550 c 256,359,360
 305 528 305 528 290 512 c 0,361,362
 281 502 281 502 269 500 c 1,363,-1
 269 500 l 1,364,365
 280 496 280 496 290 486 c 0,366,367
 305 472 305 472 305 450 c 128,-1,368
 305 428 305 428 290 412 c 256,369,370
 275 398 275 398 252 398 c 0,371,372
 230 398 230 398 215 412 c 0,373,374
 209 418 209 418 204 428 c 1,375,-1
 204 428 l 1,376,377
 200 420 200 420 195 412 c 0,378,379
 180 398 180 398 158 398 c 1,380,-1
 158 398 l 1,330,331
357 398 m 1,381,382
 335 398 335 398 321 412 c 256,383,384
 306 428 306 428 305 450 c 0,385,386
 305 472 305 472 321 486 c 0,387,388
 330 494 330 494 341 500 c 1,389,-1
 341 500 l 1,390,391
 330 504 330 504 321 512 c 0,392,393
 306 528 306 528 305 550 c 256,394,395
 305 572 305 572 321 586 c 256,396,397
 336 600 336 600 357 602 c 0,398,399
 379 602 379 602 394 586 c 256,400,401
 410 572 410 572 410 550 c 256,402,403
 410 528 410 528 394 512 c 0,404,405
 385 502 385 502 374 500 c 1,406,-1
 374 500 l 1,407,408
 385 496 385 496 394 486 c 0,409,410
 410 472 410 472 410 450 c 128,-1,411
 410 428 410 428 394 412 c 256,412,413
 379 398 379 398 357 398 c 1,414,-1
 357 398 l 1,381,382
853 498 m 1,415,416
 832 498 832 498 816 512 c 256,417,418
 801 528 801 528 800 550 c 256,419,420
 800 572 800 572 816 586 c 256,421,422
 831 600 831 600 853 602 c 0,423,424
 875 602 875 602 890 586 c 256,425,426
 904.0625 572.875 904.0625 572.875 904.0625 552.71875 c 0,427,428
 904.0625 528.071428571 904.0625 528.071428571 890 512 c 256,429,430
 875 498 875 498 853 498 c 1,431,-1
 853 498 l 1,415,416
958 498 m 1,432,433
 936 498 936 498 920 512 c 256,434,435
 905 528 905 528 904 550 c 256,436,437
 904 572 904 572 920 586 c 256,438,439
 935 600 935 600 958 602 c 0,440,441
 980 602 980 602 995 586 c 0,442,443
 1009.0625 572.875 1009.0625 572.875 1009.0625 552.71875 c 0,444,445
 1009.0625 528.071428571 1009.0625 528.071428571 995 512 c 0,446,447
 980 498 980 498 958 498 c 1,448,-1
 958 498 l 1,432,433
EndSplineSet
EndChar

StartChar: ampersand
Encoding: 38 38 6
Width: 1200
VWidth: 696
Flags: W
LayerCount: 2
Fore
SplineSet
405 26 m 1,0,1
 405 26 l 1,2,-1
 405 26 l 1,3,4
 405 26 l 1,5,-1
 405 26 l 1,0,1
252 -2 m 1,6,7
 230 -2 230 -2 215 12 c 0,8,9
 200 28 200 28 200 50 c 128,-1,10
 200 72 200 72 215 88 c 0,11,12
 230 102 230 102 252 102 c 128,-1,13
 274 102 274 102 290 88 c 256,14,15
 305 72 305 72 305 50 c 128,-1,16
 305 28 305 28 290 12 c 0,17,18
 275 -2 275 -2 252 -2 c 1,19,-1
 252 -2 l 1,6,7
357 -2 m 1,20,21
 335 -2 335 -2 321 12 c 0,22,23
 306 28 306 28 305 50 c 0,24,25
 305 72 305 72 321 88 c 256,26,27
 336 102 336 102 357 102 c 0,28,29
 379 102 379 102 394 88 c 0,30,31
 400 80 400 80 405 72 c 1,32,-1
 405 72 l 1,33,34
 409 80 409 80 415 88 c 0,35,36
 430 102 430 102 452 102 c 128,-1,37
 474 102 474 102 489 88 c 256,38,39
 504 72 504 72 505 50 c 0,40,41
 505 28 505 28 489 12 c 0,42,43
 474 -2 474 -2 452 -2 c 128,-1,44
 430 -2 430 -2 415 12 c 0,45,46
 408 18 408 18 405 26 c 1,47,48
 401 18 401 18 394 12 c 0,49,50
 379 -2 379 -2 357 -2 c 1,51,-1
 357 -2 l 1,20,21
557 -2 m 1,52,53
 535 -2 535 -2 520 12 c 0,54,55
 505 28 505 28 505 50 c 128,-1,56
 505 72 505 72 520 88 c 256,57,58
 535 102 535 102 557 102 c 128,-1,59
 579 102 579 102 594 88 c 256,60,61
 609 72 609 72 610 50 c 0,62,63
 610 28 610 28 594 12 c 0,64,65
 579 -2 579 -2 557 -2 c 1,66,-1
 557 -2 l 1,52,53
853 -2 m 1,67,68
 832 -2 832 -2 816 12 c 0,69,70
 801 28 801 28 800 50 c 0,71,72
 800 72 800 72 816 88 c 256,73,74
 831 102 831 102 853 102 c 128,-1,75
 875 102 875 102 890 88 c 256,76,77
 904.0625 73 904.0625 73 904.0625 52.7265625 c 0,78,79
 904.0625 28.0714285714 904.0625 28.0714285714 890 12 c 0,80,81
 875 -2 875 -2 853 -2 c 1,82,-1
 853 -2 l 1,67,68
958 -2 m 1,83,84
 936 -2 936 -2 920 12 c 0,85,86
 905 28 905 28 904 50 c 0,87,88
 904 72 904 72 920 88 c 256,89,90
 935 102 935 102 958 102 c 0,91,92
 980 102 980 102 995 88 c 0,93,94
 1009.0625 73 1009.0625 73 1009.0625 52.7265625 c 0,95,96
 1009.0625 28.0714285714 1009.0625 28.0714285714 995 12 c 0,97,98
 980 -2 980 -2 958 -2 c 1,99,-1
 958 -2 l 1,83,84
652 98 m 1,100,101
 630 98 630 98 615 114 c 256,102,103
 600 128 600 128 600 150 c 128,-1,104
 600 172 600 172 615 188 c 256,105,106
 628.333333333 202.222222222 628.333333333 202.222222222 647.197530864 202.222222222 c 0,107,108
 649.555555556 202.222222222 649.555555556 202.222222222 652 202 c 0,109,110
 674 202 674 202 690 188 c 256,111,112
 705.058823529 171.937254902 705.058823529 171.937254902 705.058823529 147.660899654 c 0,113,114
 705.058823529 129.058823529 705.058823529 129.058823529 690 114 c 256,115,116
 675 100 675 100 652 98 c 1,117,-1
 652 98 l 1,100,101
757 98 m 1,118,119
 735 98 735 98 720 114 c 256,120,121
 705 128 705 128 705 150 c 128,-1,122
 705 172 705 172 720 188 c 256,123,124
 733.333333333 202.222222222 733.333333333 202.222222222 752.197530864 202.222222222 c 0,125,126
 754.555555556 202.222222222 754.555555556 202.222222222 757 202 c 0,127,128
 778 202 778 202 794 188 c 256,129,130
 809 172 809 172 810 150 c 0,131,132
 810 130 810 130 794 114 c 256,133,134
 779 100 779 100 757 98 c 1,135,-1
 757 98 l 1,118,119
52 98 m 1,136,137
 30 98 30 98 15 114 c 0,138,139
 0 128 0 128 0 150 c 128,-1,140
 0 172 0 172 15 188 c 0,141,142
 24 198 24 198 36 200 c 1,143,-1
 36 200 l 1,144,145
 24 204 24 204 15 212 c 0,146,147
 0 228 0 228 0 250 c 128,-1,148
 0 272 0 272 15 288 c 0,149,150
 30 302 30 302 52 302 c 128,-1,151
 74 302 74 302 90 288 c 256,152,153
 105 274 105 274 105 250 c 0,154,155
 105 228 105 228 90 212 c 0,156,157
 81 204 81 204 69 200 c 1,158,-1
 69 200 l 1,159,160
 81 196 81 196 90 188 c 0,161,162
 105 172 105 172 105 150 c 0,163,164
 105 130 105 130 90 114 c 256,165,166
 74 100 74 100 52 98 c 1,167,-1
 52 98 l 1,136,137
158 98 m 1,168,169
 136 98 136 98 120 114 c 256,170,171
 105 128 105 128 105 150 c 128,-1,172
 105 172 105 172 120 188 c 0,173,174
 129 198 129 198 141 200 c 1,175,-1
 141 200 l 1,176,177
 129 204 129 204 120 212 c 0,178,179
 105 228 105 228 105 250 c 128,-1,180
 105 272 105 272 120 288 c 256,181,182
 136 302 136 302 158 302 c 128,-1,183
 180 302 180 302 195 288 c 256,184,185
 210 274 210 274 210 250 c 0,186,187
 210 228 210 228 195 212 c 0,188,189
 186 204 186 204 174 200 c 1,190,-1
 174 200 l 1,191,192
 185 196 185 196 195 188 c 0,193,194
 210 172 210 172 210 150 c 0,195,196
 210 130 210 130 195 114 c 256,197,198
 180 100 180 100 158 98 c 1,199,-1
 158 98 l 1,168,169
452 198 m 1,200,201
 430 198 430 198 415 212 c 0,202,203
 400 228 400 228 400 250 c 128,-1,204
 400 272 400 272 415 288 c 256,205,206
 430 302 430 302 452 302 c 128,-1,207
 474 302 474 302 489 288 c 256,208,209
 504 274 504 274 505 250 c 0,210,211
 505 228 505 228 489 212 c 0,212,213
 474 198 474 198 452 198 c 1,214,-1
 452 198 l 1,200,201
557 198 m 1,215,216
 535 198 535 198 520 212 c 0,217,218
 505 228 505 228 505 250 c 128,-1,219
 505 272 505 272 520 288 c 256,220,221
 535 302 535 302 557 302 c 128,-1,222
 579 302 579 302 594 288 c 256,223,224
 609 274 609 274 610 250 c 0,225,226
 610 228 610 228 594 212 c 0,227,228
 579 198 579 198 557 198 c 1,229,-1
 557 198 l 1,215,216
853 198 m 1,230,231
 832 198 832 198 816 212 c 0,232,233
 801 228 801 228 800 250 c 0,234,235
 800 272 800 272 816 288 c 256,236,237
 831 302 831 302 853 302 c 128,-1,238
 875 302 875 302 890 288 c 256,239,240
 904.0625 274.875 904.0625 274.875 904.0625 252.9609375 c 0,241,242
 904.0625 228.071428571 904.0625 228.071428571 890 212 c 0,243,244
 875 198 875 198 853 198 c 1,245,-1
 853 198 l 1,230,231
958 198 m 1,246,247
 936 198 936 198 920 212 c 0,248,249
 905 228 905 228 904 250 c 0,250,251
 904 272 904 272 920 288 c 256,252,253
 935 302 935 302 958 302 c 0,254,255
 980 302 980 302 995 288 c 0,256,257
 1009.0625 274.875 1009.0625 274.875 1009.0625 252.9609375 c 0,258,259
 1009.0625 228.071428571 1009.0625 228.071428571 995 212 c 0,260,261
 980 198 980 198 958 198 c 1,262,-1
 958 198 l 1,246,247
252 298 m 1,263,264
 230 298 230 298 215 312 c 0,265,266
 200 328 200 328 200 350 c 128,-1,267
 200 372 200 372 215 388 c 0,268,269
 230 402 230 402 252 402 c 128,-1,270
 274 402 274 402 290 388 c 0,271,272
 305 374 305 374 305 350 c 0,273,274
 305 328 305 328 290 312 c 256,275,276
 275 298 275 298 252 298 c 1,277,-1
 252 298 l 1,263,264
357 298 m 1,278,279
 335 298 335 298 321 312 c 256,280,281
 306 328 306 328 305 350 c 0,282,283
 305 372 305 372 321 388 c 0,284,285
 336 402 336 402 357 402 c 0,286,287
 379 402 379 402 394 388 c 0,288,289
 410 374 410 374 410 350 c 0,290,291
 410 328 410 328 394 312 c 256,292,293
 379 298 379 298 357 298 c 1,294,-1
 357 298 l 1,278,279
52 398 m 1,295,296
 30 398 30 398 15 412 c 0,297,298
 0 428 0 428 0 450 c 128,-1,299
 0 472 0 472 15 486 c 0,300,301
 24 494 24 494 36 500 c 1,302,-1
 36 500 l 1,303,304
 24 504 24 504 15 512 c 0,305,306
 0 528 0 528 0 550 c 256,307,308
 0 572 0 572 15 586 c 128,-1,309
 30 600 30 600 52 602 c 0,310,311
 74 602 74 602 90 586 c 256,312,313
 105 572 105 572 105 550 c 256,314,315
 105 528 105 528 90 512 c 0,316,317
 81 502 81 502 69 500 c 1,318,-1
 69 500 l 1,319,320
 81 496 81 496 90 486 c 0,321,322
 105 472 105 472 105 450 c 128,-1,323
 105 428 105 428 90 412 c 256,324,325
 74 398 74 398 52 398 c 1,326,-1
 52 398 l 1,295,296
158 398 m 1,327,328
 136 398 136 398 120 412 c 256,329,330
 105 428 105 428 105 450 c 128,-1,331
 105 472 105 472 120 486 c 0,332,333
 129 494 129 494 141 500 c 1,334,-1
 141 500 l 1,335,336
 129 504 129 504 120 512 c 0,337,338
 105 528 105 528 105 550 c 256,339,340
 105 572 105 572 120 586 c 256,341,342
 136 600 136 600 158 602 c 0,343,344
 180 602 180 602 195 586 c 256,345,346
 210 572 210 572 210 550 c 256,347,348
 210 528 210 528 195 512 c 0,349,350
 186 502 186 502 174 500 c 1,351,-1
 174 500 l 1,352,353
 185 496 185 496 195 486 c 0,354,355
 210 472 210 472 210 450 c 128,-1,356
 210 428 210 428 195 412 c 256,357,358
 180 398 180 398 158 398 c 1,359,-1
 158 398 l 1,327,328
452 398 m 1,360,361
 430 398 430 398 415 412 c 256,362,363
 400 428 400 428 400 450 c 128,-1,364
 400 472 400 472 415 486 c 0,365,366
 424 494 424 494 436 500 c 1,367,-1
 436 500 l 1,368,369
 425 504 425 504 415 512 c 0,370,371
 400 528 400 528 400 550 c 256,372,373
 400 572 400 572 415 586 c 256,374,375
 430 600 430 600 452 602 c 0,376,377
 474 602 474 602 489 586 c 256,378,379
 504 572 504 572 505 550 c 256,380,381
 505 528 505 528 489 512 c 0,382,383
 480 502 480 502 469 500 c 1,384,-1
 469 500 l 1,385,386
 480 496 480 496 489 486 c 0,387,388
 504 472 504 472 505 450 c 0,389,390
 505 428 505 428 489 412 c 256,391,392
 474 398 474 398 452 398 c 1,393,-1
 452 398 l 1,360,361
557 398 m 1,394,395
 535 398 535 398 520 412 c 256,396,397
 505 428 505 428 505 450 c 128,-1,398
 505 472 505 472 520 486 c 0,399,400
 529 494 529 494 540 500 c 1,401,-1
 540 500 l 1,402,403
 529 504 529 504 520 512 c 0,404,405
 505 528 505 528 505 550 c 256,406,407
 505 572 505 572 520 586 c 256,408,409
 535 600 535 600 557 602 c 0,410,411
 579 602 579 602 594 586 c 256,412,413
 609 572 609 572 610 550 c 256,414,415
 610 528 610 528 594 512 c 0,416,417
 585 502 585 502 574 500 c 1,418,-1
 574 500 l 1,419,420
 585 496 585 496 594 486 c 0,421,422
 609 472 609 472 610 450 c 0,423,424
 610 428 610 428 594 412 c 256,425,426
 579 398 579 398 557 398 c 1,427,-1
 557 398 l 1,394,395
252 598 m 1,428,429
 230 598 230 598 215 612 c 0,430,431
 200 628 200 628 200 650 c 128,-1,432
 200 672 200 672 215 688 c 0,433,434
 230 702 230 702 252 702 c 0,435,436
 254.444444444 702.222222222 254.444444444 702.222222222 256.814814815 702.222222222 c 0,437,438
 275.777777778 702.222222222 275.777777778 702.222222222 290 688 c 256,439,440
 305 674 305 674 305 650 c 0,441,442
 305 628 305 628 290 612 c 256,443,444
 275 598 275 598 252 598 c 1,445,-1
 252 598 l 1,428,429
357 598 m 1,446,447
 335 598 335 598 321 612 c 256,448,449
 306 628 306 628 305 650 c 0,450,451
 305 672 305 672 321 688 c 256,452,453
 336 702 336 702 357 702 c 0,454,455
 359.444444444 702.222222222 359.444444444 702.222222222 361.802469136 702.222222222 c 0,456,457
 380.666666667 702.222222222 380.666666667 702.222222222 394 688 c 256,458,459
 410 674 410 674 410 650 c 0,460,461
 410 628 410 628 394 612 c 256,462,463
 379 598 379 598 357 598 c 1,464,-1
 357 598 l 1,446,447
EndSplineSet
EndChar

StartChar: quotesingle
Encoding: 39 39 7
Width: 1200
VWidth: 696
Flags: W
LayerCount: 2
Fore
SplineSet
252 398 m 1,0,1
 230 398 230 398 215 412 c 0,2,3
 200 428 200 428 200 450 c 128,-1,4
 200 472 200 472 215 486 c 128,-1,5
 230 500 230 500 252 502 c 0,6,7
 274 502 274 502 290 486 c 256,8,9
 305 472 305 472 305 450 c 128,-1,10
 305 428 305 428 290 412 c 256,11,12
 275 398 275 398 252 398 c 1,13,-1
 252 398 l 1,0,1
357 398 m 1,14,15
 335 398 335 398 321 412 c 256,16,17
 306 428 306 428 305 450 c 0,18,19
 305 472 305 472 321 486 c 256,20,21
 336 500 336 500 357 502 c 0,22,23
 379 502 379 502 394 486 c 256,24,25
 410 472 410 472 410 450 c 128,-1,26
 410 428 410 428 394 412 c 256,27,28
 379 398 379 398 357 398 c 1,29,-1
 357 398 l 1,14,15
452 498 m 1,30,31
 430 498 430 498 415 512 c 256,32,33
 400 528 400 528 400 550 c 256,34,35
 400 572 400 572 415 586 c 0,36,37
 424 596 424 596 436 600 c 1,38,-1
 436 600 l 1,39,40
 425 604 425 604 415 612 c 0,41,42
 400 628 400 628 400 650 c 128,-1,43
 400 672 400 672 415 688 c 256,44,45
 430 702 430 702 452 702 c 0,46,47
 454.444444444 702.222222222 454.444444444 702.222222222 456.802469136 702.222222222 c 0,48,49
 475.666666667 702.222222222 475.666666667 702.222222222 489 688 c 256,50,51
 504 674 504 674 505 650 c 0,52,53
 505 628 505 628 489 612 c 0,54,55
 480 604 480 604 469 600 c 1,56,-1
 469 600 l 1,57,58
 480 596 480 596 489 586 c 0,59,60
 504 572 504 572 505 550 c 256,61,62
 505 528 505 528 489 512 c 256,63,64
 474 498 474 498 452 498 c 1,65,-1
 452 498 l 1,30,31
557 498 m 1,66,67
 535 498 535 498 520 512 c 256,68,69
 505 528 505 528 505 550 c 256,70,71
 505 572 505 572 520 586 c 0,72,73
 529 596 529 596 540 600 c 1,74,-1
 540 600 l 1,75,76
 529 604 529 604 520 612 c 0,77,78
 505 628 505 628 505 650 c 128,-1,79
 505 672 505 672 520 688 c 256,80,81
 535 702 535 702 557 702 c 0,82,83
 559.444444444 702.222222222 559.444444444 702.222222222 561.802469136 702.222222222 c 0,84,85
 580.666666667 702.222222222 580.666666667 702.222222222 594 688 c 256,86,87
 609 674 609 674 610 650 c 0,88,89
 610 628 610 628 594 612 c 0,90,91
 585 604 585 604 574 600 c 1,92,-1
 574 600 l 1,93,94
 585 596 585 596 594 586 c 0,95,96
 609 572 609 572 610 550 c 256,97,98
 610 528 610 528 594 512 c 256,99,100
 579 498 579 498 557 498 c 1,101,-1
 557 498 l 1,66,67
EndSplineSet
EndChar

StartChar: parenleft
Encoding: 40 40 8
Width: 1200
VWidth: 696
Flags: W
LayerCount: 2
Fore
SplineSet
652 -2 m 1,0,1
 630 -2 630 -2 615 12 c 0,2,3
 600 28 600 28 600 50 c 128,-1,4
 600 72 600 72 615 88 c 256,5,6
 630 102 630 102 652 102 c 128,-1,7
 674 102 674 102 690 88 c 256,8,9
 705.058823529 71.937254902 705.058823529 71.937254902 705.058823529 47.4325259516 c 0,10,11
 705.058823529 27.0588235294 705.058823529 27.0588235294 690 12 c 0,12,13
 675 -2 675 -2 652 -2 c 1,14,-1
 652 -2 l 1,0,1
757 -2 m 1,15,16
 735 -2 735 -2 720 12 c 0,17,18
 705 28 705 28 705 50 c 128,-1,19
 705 72 705 72 720 88 c 256,20,21
 735 102 735 102 757 102 c 0,22,23
 778 102 778 102 794 88 c 256,24,25
 809 72 809 72 810 50 c 0,26,27
 810 28 810 28 794 12 c 0,28,29
 779 -2 779 -2 757 -2 c 1,30,-1
 757 -2 l 1,15,16
452 98 m 1,31,32
 430 98 430 98 415 114 c 256,33,34
 400 128 400 128 400 150 c 128,-1,35
 400 172 400 172 415 188 c 256,36,37
 428.333333333 202.222222222 428.333333333 202.222222222 447.197530864 202.222222222 c 0,38,39
 449.555555556 202.222222222 449.555555556 202.222222222 452 202 c 0,40,41
 474 202 474 202 489 188 c 256,42,43
 504 172 504 172 505 150 c 0,44,45
 505 130 505 130 489 114 c 256,46,47
 474 100 474 100 452 98 c 1,48,-1
 452 98 l 1,31,32
557 98 m 1,49,50
 535 98 535 98 520 114 c 256,51,52
 505 128 505 128 505 150 c 128,-1,53
 505 172 505 172 520 188 c 256,54,55
 533.333333333 202.222222222 533.333333333 202.222222222 552.197530864 202.222222222 c 0,56,57
 554.555555556 202.222222222 554.555555556 202.222222222 557 202 c 0,58,59
 579 202 579 202 594 188 c 256,60,61
 609 172 609 172 610 150 c 0,62,63
 610 130 610 130 594 114 c 256,64,65
 579 100 579 100 557 98 c 1,66,-1
 557 98 l 1,49,50
252 198 m 1,67,68
 230 198 230 198 215 212 c 0,69,70
 200 228 200 228 200 250 c 128,-1,71
 200 272 200 272 215 288 c 0,72,73
 224 298 224 298 236 300 c 1,74,-1
 236 300 l 1,75,76
 224 304 224 304 215 312 c 0,77,78
 200 328 200 328 200 350 c 128,-1,79
 200 372 200 372 215 388 c 0,80,81
 224 396 224 396 236 400 c 1,82,-1
 236 400 l 1,83,84
 224 404 224 404 215 412 c 0,85,86
 200 428 200 428 200 450 c 128,-1,87
 200 472 200 472 215 486 c 128,-1,88
 230 500 230 500 252 502 c 0,89,90
 274 502 274 502 290 486 c 256,91,92
 305 472 305 472 305 450 c 128,-1,93
 305 428 305 428 290 412 c 0,94,95
 281 404 281 404 269 400 c 1,96,-1
 269 400 l 1,97,98
 280 396 280 396 290 388 c 0,99,100
 305 374 305 374 305 350 c 0,101,102
 305 328 305 328 290 312 c 0,103,104
 281 304 281 304 269 300 c 1,105,-1
 269 300 l 1,106,107
 280 296 280 296 290 288 c 0,108,109
 305 274 305 274 305 250 c 0,110,111
 305 228 305 228 290 212 c 0,112,113
 275 198 275 198 252 198 c 1,114,-1
 252 198 l 1,67,68
357 198 m 1,115,116
 335 198 335 198 321 212 c 0,117,118
 306 228 306 228 305 250 c 0,119,120
 305 272 305 272 321 288 c 0,121,122
 330 298 330 298 341 300 c 1,123,-1
 341 300 l 1,124,125
 330 304 330 304 321 312 c 0,126,127
 306 328 306 328 305 350 c 0,128,129
 305 372 305 372 321 388 c 0,130,131
 330 396 330 396 341 400 c 1,132,-1
 341 400 l 1,133,134
 330 404 330 404 321 412 c 0,135,136
 306 428 306 428 305 450 c 0,137,138
 305 472 305 472 321 486 c 256,139,140
 336 500 336 500 357 502 c 0,141,142
 379 502 379 502 394 486 c 256,143,144
 410 472 410 472 410 450 c 128,-1,145
 410 428 410 428 394 412 c 0,146,147
 385 404 385 404 374 400 c 1,148,-1
 374 400 l 1,149,150
 385 396 385 396 394 388 c 0,151,152
 410 374 410 374 410 350 c 0,153,154
 410 328 410 328 394 312 c 0,155,156
 385 304 385 304 374 300 c 1,157,-1
 374 300 l 1,158,159
 385 296 385 296 394 288 c 0,160,161
 410 274 410 274 410 250 c 0,162,163
 410 228 410 228 394 212 c 0,164,165
 379 198 379 198 357 198 c 1,166,-1
 357 198 l 1,115,116
452 498 m 1,167,168
 430 498 430 498 415 512 c 256,169,170
 400 528 400 528 400 550 c 256,171,172
 400 572 400 572 415 586 c 256,173,174
 430 600 430 600 452 602 c 0,175,176
 474 602 474 602 489 586 c 256,177,178
 504 572 504 572 505 550 c 256,179,180
 505 528 505 528 489 512 c 256,181,182
 474 498 474 498 452 498 c 1,183,-1
 452 498 l 1,167,168
557 498 m 1,184,185
 535 498 535 498 520 512 c 256,186,187
 505 528 505 528 505 550 c 256,188,189
 505 572 505 572 520 586 c 256,190,191
 535 600 535 600 557 602 c 0,192,193
 579 602 579 602 594 586 c 256,194,195
 609 572 609 572 610 550 c 256,196,197
 610 528 610 528 594 512 c 256,198,199
 579 498 579 498 557 498 c 1,200,-1
 557 498 l 1,184,185
652 598 m 1,201,202
 630 598 630 598 615 612 c 256,203,204
 600 628 600 628 600 650 c 128,-1,205
 600 672 600 672 615 688 c 256,206,207
 630 702 630 702 652 702 c 0,208,209
 654.444444444 702.222222222 654.444444444 702.222222222 656.814814815 702.222222222 c 0,210,211
 675.777777778 702.222222222 675.777777778 702.222222222 690 688 c 256,212,213
 705.058823529 673.945098039 705.058823529 673.945098039 705.058823529 647.432525952 c 0,214,215
 705.058823529 627.058823529 705.058823529 627.058823529 690 612 c 256,216,217
 675 598 675 598 652 598 c 1,218,-1
 652 598 l 1,201,202
757 598 m 1,219,220
 735 598 735 598 720 612 c 256,221,222
 705 628 705 628 705 650 c 128,-1,223
 705 672 705 672 720 688 c 256,224,225
 735 702 735 702 757 702 c 0,226,227
 759.333333333 702.222222222 759.333333333 702.222222222 761.604938272 702.222222222 c 0,228,229
 779.777777778 702.222222222 779.777777778 702.222222222 794 688 c 256,230,231
 809 674 809 674 810 650 c 0,232,233
 810 628 810 628 794 612 c 256,234,235
 779 598 779 598 757 598 c 1,236,-1
 757 598 l 1,219,220
EndSplineSet
EndChar

StartChar: parenright
Encoding: 41 41 9
Width: 1200
VWidth: 696
Flags: W
LayerCount: 2
Fore
SplineSet
252 -2 m 1,0,1
 230 -2 230 -2 215 12 c 0,2,3
 200 28 200 28 200 50 c 128,-1,4
 200 72 200 72 215 88 c 0,5,6
 230 102 230 102 252 102 c 128,-1,7
 274 102 274 102 290 88 c 256,8,9
 305 72 305 72 305 50 c 128,-1,10
 305 28 305 28 290 12 c 0,11,12
 275 -2 275 -2 252 -2 c 1,13,-1
 252 -2 l 1,0,1
357 -2 m 1,14,15
 335 -2 335 -2 321 12 c 0,16,17
 306 28 306 28 305 50 c 0,18,19
 305 72 305 72 321 88 c 256,20,21
 336 102 336 102 357 102 c 0,22,23
 379 102 379 102 394 88 c 256,24,25
 410 72 410 72 410 50 c 128,-1,26
 410 28 410 28 394 12 c 0,27,28
 379 -2 379 -2 357 -2 c 1,29,-1
 357 -2 l 1,14,15
452 98 m 1,30,31
 430 98 430 98 415 114 c 256,32,33
 400 128 400 128 400 150 c 128,-1,34
 400 172 400 172 415 188 c 256,35,36
 428.333333333 202.222222222 428.333333333 202.222222222 447.197530864 202.222222222 c 0,37,38
 449.555555556 202.222222222 449.555555556 202.222222222 452 202 c 0,39,40
 474 202 474 202 489 188 c 256,41,42
 504 172 504 172 505 150 c 0,43,44
 505 130 505 130 489 114 c 256,45,46
 474 100 474 100 452 98 c 1,47,-1
 452 98 l 1,30,31
557 98 m 1,48,49
 535 98 535 98 520 114 c 256,50,51
 505 128 505 128 505 150 c 128,-1,52
 505 172 505 172 520 188 c 256,53,54
 533.333333333 202.222222222 533.333333333 202.222222222 552.197530864 202.222222222 c 0,55,56
 554.555555556 202.222222222 554.555555556 202.222222222 557 202 c 0,57,58
 579 202 579 202 594 188 c 256,59,60
 609 172 609 172 610 150 c 0,61,62
 610 130 610 130 594 114 c 256,63,64
 579 100 579 100 557 98 c 1,65,-1
 557 98 l 1,48,49
652 198 m 1,66,67
 630 198 630 198 615 212 c 0,68,69
 600 228 600 228 600 250 c 128,-1,70
 600 272 600 272 615 288 c 0,71,72
 624 298 624 298 636 300 c 1,73,-1
 636 300 l 1,74,75
 625 304 625 304 615 312 c 0,76,77
 600 328 600 328 600 350 c 128,-1,78
 600 372 600 372 615 388 c 0,79,80
 624 396 624 396 636 400 c 1,81,-1
 636 400 l 1,82,83
 625 404 625 404 615 412 c 0,84,85
 600 428 600 428 600 450 c 128,-1,86
 600 472 600 472 615 486 c 256,87,88
 630 500 630 500 652 502 c 0,89,90
 674 502 674 502 690 486 c 256,91,92
 705.058823529 471.945098039 705.058823529 471.945098039 705.058823529 447.432525952 c 0,93,94
 705.058823529 427.058823529 705.058823529 427.058823529 690 412 c 0,95,96
 681 404 681 404 669 400 c 1,97,-1
 669 400 l 1,98,99
 680 396 680 396 690 388 c 0,100,101
 705.058823529 373.945098039 705.058823529 373.945098039 705.058823529 347.432525952 c 0,102,103
 705.058823529 327.058823529 705.058823529 327.058823529 690 312 c 0,104,105
 681 304 681 304 669 300 c 1,106,-1
 669 300 l 1,107,108
 680 296 680 296 690 288 c 0,109,110
 705.058823529 273.945098039 705.058823529 273.945098039 705.058823529 247.432525952 c 0,111,112
 705.058823529 227.058823529 705.058823529 227.058823529 690 212 c 0,113,114
 675 198 675 198 652 198 c 1,115,-1
 652 198 l 1,66,67
757 198 m 1,116,117
 735 198 735 198 720 212 c 0,118,119
 705 228 705 228 705 250 c 128,-1,120
 705 272 705 272 720 288 c 0,121,122
 729 298 729 298 741 300 c 1,123,-1
 741 300 l 1,124,125
 730 304 730 304 720 312 c 0,126,127
 705 328 705 328 705 350 c 128,-1,128
 705 372 705 372 720 388 c 0,129,130
 729 396 729 396 741 400 c 1,131,-1
 741 400 l 1,132,133
 730 404 730 404 720 412 c 0,134,135
 705 428 705 428 705 450 c 128,-1,136
 705 472 705 472 720 486 c 256,137,138
 735 500 735 500 757 502 c 0,139,140
 778 502 778 502 794 486 c 256,141,142
 809 472 809 472 810 450 c 0,143,144
 810 428 810 428 794 412 c 0,145,146
 786 404 786 404 774 400 c 1,147,-1
 774 400 l 1,148,149
 786 396 786 396 794 388 c 0,150,151
 809 374 809 374 810 350 c 0,152,153
 810 328 810 328 794 312 c 0,154,155
 786 304 786 304 774 300 c 1,156,-1
 774 300 l 1,157,158
 786 296 786 296 794 288 c 0,159,160
 809 274 809 274 810 250 c 0,161,162
 810 228 810 228 794 212 c 0,163,164
 779 198 779 198 757 198 c 1,165,-1
 757 198 l 1,116,117
452 498 m 1,166,167
 430 498 430 498 415 512 c 256,168,169
 400 528 400 528 400 550 c 256,170,171
 400 572 400 572 415 586 c 256,172,173
 430 600 430 600 452 602 c 0,174,175
 474 602 474 602 489 586 c 256,176,177
 504 572 504 572 505 550 c 256,178,179
 505 528 505 528 489 512 c 256,180,181
 474 498 474 498 452 498 c 1,182,-1
 452 498 l 1,166,167
557 498 m 1,183,184
 535 498 535 498 520 512 c 256,185,186
 505 528 505 528 505 550 c 256,187,188
 505 572 505 572 520 586 c 256,189,190
 535 600 535 600 557 602 c 0,191,192
 579 602 579 602 594 586 c 256,193,194
 609 572 609 572 610 550 c 256,195,196
 610 528 610 528 594 512 c 256,197,198
 579 498 579 498 557 498 c 1,199,-1
 557 498 l 1,183,184
252 598 m 1,200,201
 230 598 230 598 215 612 c 0,202,203
 200 628 200 628 200 650 c 128,-1,204
 200 672 200 672 215 688 c 0,205,206
 230 702 230 702 252 702 c 0,207,208
 254.444444444 702.222222222 254.444444444 702.222222222 256.814814815 702.222222222 c 0,209,210
 275.777777778 702.222222222 275.777777778 702.222222222 290 688 c 256,211,212
 305 674 305 674 305 650 c 0,213,214
 305 628 305 628 290 612 c 256,215,216
 275 598 275 598 252 598 c 1,217,-1
 252 598 l 1,200,201
357 598 m 1,218,219
 335 598 335 598 321 612 c 256,220,221
 306 628 306 628 305 650 c 0,222,223
 305 672 305 672 321 688 c 256,224,225
 336 702 336 702 357 702 c 0,226,227
 359.444444444 702.222222222 359.444444444 702.222222222 361.802469136 702.222222222 c 0,228,229
 380.666666667 702.222222222 380.666666667 702.222222222 394 688 c 256,230,231
 410 674 410 674 410 650 c 0,232,233
 410 628 410 628 394 612 c 256,234,235
 379 598 379 598 357 598 c 1,236,-1
 357 598 l 1,218,219
EndSplineSet
EndChar

StartChar: asterisk
Encoding: 42 42 10
Width: 1200
VWidth: 696
Flags: W
LayerCount: 2
Fore
SplineSet
52 98 m 1,0,1
 30 98 30 98 15 114 c 0,2,3
 0 128 0 128 0 150 c 128,-1,4
 0 172 0 172 15 188 c 0,5,6
 28.3333333333 202.222222222 28.3333333333 202.222222222 47.1975308642 202.222222222 c 0,7,8
 49.5555555556 202.222222222 49.5555555556 202.222222222 52 202 c 0,9,10
 74 202 74 202 90 188 c 256,11,12
 105 172 105 172 105 150 c 0,13,14
 105 130 105 130 90 114 c 256,15,16
 74 100 74 100 52 98 c 1,17,-1
 52 98 l 1,0,1
158 98 m 1,18,19
 136 98 136 98 120 114 c 256,20,21
 105 128 105 128 105 150 c 128,-1,22
 105 172 105 172 120 188 c 256,23,24
 134.222222222 202.222222222 134.222222222 202.222222222 153.185185185 202.222222222 c 0,25,26
 155.555555556 202.222222222 155.555555556 202.222222222 158 202 c 0,27,28
 180 202 180 202 195 188 c 256,29,30
 210 172 210 172 210 150 c 0,31,32
 210 130 210 130 195 114 c 256,33,34
 180 100 180 100 158 98 c 1,35,-1
 158 98 l 1,18,19
853 98 m 1,36,37
 832 98 832 98 816 114 c 256,38,39
 801 128 801 128 800 150 c 0,40,41
 800 172 800 172 816 188 c 256,42,43
 829.333333333 202.222222222 829.333333333 202.222222222 848.197530864 202.222222222 c 0,44,45
 850.555555556 202.222222222 850.555555556 202.222222222 853 202 c 0,46,47
 875 202 875 202 890 188 c 256,48,49
 904.0625 173 904.0625 173 904.0625 152.7265625 c 0,50,51
 904.0625 130.071428571 904.0625 130.071428571 890 114 c 256,52,53
 875 100 875 100 853 98 c 1,54,-1
 853 98 l 1,36,37
958 98 m 1,55,56
 936 98 936 98 920 114 c 256,57,58
 905 128 905 128 904 150 c 0,59,60
 904 172 904 172 920 188 c 256,61,62
 933.333333333 202.222222222 933.333333333 202.222222222 952.987654321 202.222222222 c 0,63,64
 955.444444444 202.222222222 955.444444444 202.222222222 958 202 c 0,65,66
 980 202 980 202 995 188 c 0,67,68
 1009.0625 173 1009.0625 173 1009.0625 152.7265625 c 0,69,70
 1009.0625 130.071428571 1009.0625 130.071428571 995 114 c 0,71,72
 980 100 980 100 958 98 c 1,73,-1
 958 98 l 1,55,56
405 228 m 1,74,-1
 405 228 l 1,75,-1
 405 228 l 1,76,-1
 405 228 l 1,77,-1
 405 228 l 1,74,-1
252 198 m 1,78,79
 230 198 230 198 215 212 c 0,80,81
 200 228 200 228 200 250 c 128,-1,82
 200 272 200 272 215 288 c 0,83,84
 230 302 230 302 252 302 c 128,-1,85
 274 302 274 302 290 288 c 256,86,87
 305 274 305 274 305 250 c 0,88,89
 305 228 305 228 290 212 c 0,90,91
 275 198 275 198 252 198 c 1,92,-1
 252 198 l 1,78,79
757 198 m 1,93,94
 735 198 735 198 720 212 c 0,95,96
 705 228 705 228 705 250 c 128,-1,97
 705 272 705 272 720 288 c 256,98,99
 735 302 735 302 757 302 c 0,100,101
 778 302 778 302 794 288 c 256,102,103
 809 274 809 274 810 250 c 0,104,105
 810 228 810 228 794 212 c 0,106,107
 779 198 779 198 757 198 c 1,108,-1
 757 198 l 1,93,94
405 428 m 1,109,-1
 405 428 l 1,110,-1
 405 428 l 1,111,112
 405 428 l 1,113,-1
 405 428 l 1,109,-1
252 398 m 1,114,115
 230 398 230 398 215 412 c 0,116,117
 200 428 200 428 200 450 c 128,-1,118
 200 472 200 472 215 486 c 128,-1,119
 230 500 230 500 252 502 c 0,120,121
 274 502 274 502 290 486 c 256,122,123
 305 472 305 472 305 450 c 128,-1,124
 305 428 305 428 290 412 c 256,125,126
 275 398 275 398 252 398 c 1,127,-1
 252 398 l 1,114,115
757 398 m 1,128,129
 735 398 735 398 720 412 c 256,130,131
 705 428 705 428 705 450 c 128,-1,132
 705 472 705 472 720 486 c 256,133,134
 735 500 735 500 757 502 c 0,135,136
 778 502 778 502 794 486 c 256,137,138
 809 472 809 472 810 450 c 0,139,140
 810 428 810 428 794 412 c 256,141,142
 779 398 779 398 757 398 c 1,143,-1
 757 398 l 1,128,129
52 498 m 1,144,145
 30 498 30 498 15 512 c 0,146,147
 0 528 0 528 0 550 c 256,148,149
 0 572 0 572 15 586 c 128,-1,150
 30 600 30 600 52 602 c 0,151,152
 74 602 74 602 90 586 c 256,153,154
 105 572 105 572 105 550 c 256,155,156
 105 528 105 528 90 512 c 256,157,158
 74 498 74 498 52 498 c 1,159,-1
 52 498 l 1,144,145
158 498 m 1,160,161
 136 498 136 498 120 512 c 256,162,163
 105 528 105 528 105 550 c 256,164,165
 105 572 105 572 120 586 c 256,166,167
 136 600 136 600 158 602 c 0,168,169
 180 602 180 602 195 586 c 256,170,171
 210 572 210 572 210 550 c 256,172,173
 210 528 210 528 195 512 c 256,174,175
 180 498 180 498 158 498 c 1,176,-1
 158 498 l 1,160,161
853 498 m 1,177,178
 832 498 832 498 816 512 c 256,179,180
 801 528 801 528 800 550 c 256,181,182
 800 572 800 572 816 586 c 256,183,184
 831 600 831 600 853 602 c 0,185,186
 875 602 875 602 890 586 c 256,187,188
 904.0625 572.875 904.0625 572.875 904.0625 552.71875 c 0,189,190
 904.0625 528.071428571 904.0625 528.071428571 890 512 c 256,191,192
 875 498 875 498 853 498 c 1,193,-1
 853 498 l 1,177,178
958 498 m 1,194,195
 936 498 936 498 920 512 c 256,196,197
 905 528 905 528 904 550 c 256,198,199
 904 572 904 572 920 586 c 256,200,201
 935 600 935 600 958 602 c 0,202,203
 980 602 980 602 995 586 c 0,204,205
 1009.0625 572.875 1009.0625 572.875 1009.0625 552.71875 c 0,206,207
 1009.0625 528.071428571 1009.0625 528.071428571 995 512 c 0,208,209
 980 498 980 498 958 498 c 1,210,-1
 958 498 l 1,194,195
452 -2 m 1,211,212
 430 -2 430 -2 415 12 c 0,213,214
 400 28 400 28 400 50 c 128,-1,215
 400 72 400 72 415 88 c 0,216,217
 424 98 424 98 436 100 c 1,218,-1
 436 100 l 1,219,220
 425 104 425 104 415 114 c 0,221,222
 400 128 400 128 400 150 c 128,-1,223
 400 172 400 172 415 188 c 0,224,225
 424 198 424 198 436 200 c 1,226,-1
 436 200 l 1,227,228
 425 204 425 204 415 212 c 0,229,230
 408 220 408 220 405 228 c 1,231,232
 401 220 401 220 394 212 c 0,233,234
 379 198 379 198 357 198 c 128,-1,235
 335 198 335 198 321 212 c 0,236,237
 306 228 306 228 305 250 c 0,238,239
 305 272 305 272 321 288 c 256,240,241
 336 302 336 302 357 302 c 0,242,243
 379 302 379 302 394 288 c 0,244,245
 400 282 400 282 405 272 c 1,246,-1
 405 272 l 1,247,248
 409 280 409 280 415 288 c 0,249,250
 424 298 424 298 436 300 c 1,251,-1
 436 300 l 1,252,253
 425 304 425 304 415 312 c 0,254,255
 400 328 400 328 400 350 c 128,-1,256
 400 372 400 372 415 388 c 0,257,258
 424 396 424 396 436 400 c 1,259,-1
 436 400 l 1,260,261
 425 404 425 404 415 412 c 0,262,263
 408 418 408 418 405 428 c 1,264,-1
 405 428 l 1,265,266
 401 420 401 420 394 412 c 0,267,268
 379 398 379 398 357 398 c 128,-1,269
 335 398 335 398 321 412 c 256,270,271
 306 428 306 428 305 450 c 0,272,273
 305 472 305 472 321 486 c 256,274,275
 336 500 336 500 357 502 c 0,276,277
 379 502 379 502 394 486 c 0,278,279
 400 480 400 480 405 472 c 1,280,-1
 405 472 l 1,281,282
 409 480 409 480 415 486 c 0,283,284
 424 494 424 494 436 500 c 1,285,-1
 436 500 l 1,286,287
 425 504 425 504 415 512 c 0,288,289
 400 528 400 528 400 550 c 256,290,291
 400 572 400 572 415 586 c 0,292,293
 424 596 424 596 436 600 c 1,294,-1
 436 600 l 1,295,296
 425 604 425 604 415 612 c 0,297,298
 400 628 400 628 400 650 c 128,-1,299
 400 672 400 672 415 688 c 256,300,301
 430 702 430 702 452 702 c 0,302,303
 454.444444444 702.222222222 454.444444444 702.222222222 456.802469136 702.222222222 c 0,304,305
 475.666666667 702.222222222 475.666666667 702.222222222 489 688 c 256,306,307
 504 674 504 674 505 650 c 0,308,309
 505 628 505 628 489 612 c 0,310,311
 480 604 480 604 469 600 c 1,312,-1
 469 600 l 1,313,314
 480 596 480 596 489 586 c 0,315,316
 504 572 504 572 505 550 c 256,317,318
 505 528 505 528 489 512 c 0,319,320
 480 502 480 502 469 500 c 1,321,-1
 469 500 l 1,322,323
 480 496 480 496 489 486 c 0,324,325
 504 472 504 472 505 450 c 0,326,327
 505 428 505 428 489 412 c 0,328,329
 480 404 480 404 469 400 c 1,330,-1
 469 400 l 1,331,332
 480 396 480 396 489 388 c 0,333,334
 504 374 504 374 505 350 c 0,335,336
 505 328 505 328 489 312 c 0,337,338
 480 304 480 304 469 300 c 1,339,-1
 469 300 l 1,340,341
 480 296 480 296 489 288 c 0,342,343
 504 274 504 274 505 250 c 0,344,345
 505 228 505 228 489 212 c 0,346,347
 480 204 480 204 469 200 c 1,348,-1
 469 200 l 1,349,350
 480 196 480 196 489 188 c 0,351,352
 504 172 504 172 505 150 c 0,353,354
 505 130 505 130 489 114 c 0,355,356
 480 106 480 106 469 100 c 1,357,-1
 469 100 l 1,358,359
 480 96 480 96 489 88 c 0,360,361
 504 72 504 72 505 50 c 0,362,363
 505 28 505 28 489 12 c 0,364,365
 474 -2 474 -2 452 -2 c 1,366,-1
 452 -2 l 1,211,212
557 -2 m 1,367,368
 535 -2 535 -2 520 12 c 0,369,370
 505 28 505 28 505 50 c 128,-1,371
 505 72 505 72 520 88 c 0,372,373
 529 98 529 98 540 100 c 1,374,-1
 540 100 l 1,375,376
 529 104 529 104 520 114 c 0,377,378
 505 128 505 128 505 150 c 128,-1,379
 505 172 505 172 520 188 c 0,380,381
 529 198 529 198 540 200 c 1,382,-1
 540 200 l 1,383,384
 529 204 529 204 520 212 c 0,385,386
 505 228 505 228 505 250 c 128,-1,387
 505 272 505 272 520 288 c 0,388,389
 529 298 529 298 540 300 c 1,390,-1
 540 300 l 1,391,392
 529 304 529 304 520 312 c 0,393,394
 505 328 505 328 505 350 c 128,-1,395
 505 372 505 372 520 388 c 0,396,397
 529 396 529 396 540 400 c 1,398,-1
 540 400 l 1,399,400
 529 404 529 404 520 412 c 0,401,402
 505 428 505 428 505 450 c 128,-1,403
 505 472 505 472 520 486 c 0,404,405
 529 494 529 494 540 500 c 1,406,-1
 540 500 l 1,407,408
 529 504 529 504 520 512 c 0,409,410
 505 528 505 528 505 550 c 256,411,412
 505 572 505 572 520 586 c 0,413,414
 529 596 529 596 540 600 c 1,415,-1
 540 600 l 1,416,417
 529 604 529 604 520 612 c 0,418,419
 505 628 505 628 505 650 c 128,-1,420
 505 672 505 672 520 688 c 256,421,422
 535 702 535 702 557 702 c 0,423,424
 559.444444444 702.222222222 559.444444444 702.222222222 561.802469136 702.222222222 c 0,425,426
 580.666666667 702.222222222 580.666666667 702.222222222 594 688 c 256,427,428
 609 674 609 674 610 650 c 0,429,430
 610 628 610 628 594 612 c 0,431,432
 585 604 585 604 574 600 c 1,433,-1
 574 600 l 1,434,435
 585 596 585 596 594 586 c 0,436,437
 609 572 609 572 610 550 c 256,438,439
 610 528 610 528 594 512 c 0,440,441
 585 502 585 502 574 500 c 1,442,-1
 574 500 l 1,443,444
 585 496 585 496 594 486 c 0,445,446
 601 480 601 480 605 472 c 1,447,-1
 605 472 l 1,448,449
 609 480 609 480 615 486 c 0,450,451
 630 500 630 500 652 502 c 0,452,453
 674 502 674 502 690 486 c 256,454,455
 705.058823529 471.945098039 705.058823529 471.945098039 705.058823529 447.432525952 c 0,456,457
 705.058823529 427.058823529 705.058823529 427.058823529 690 412 c 256,458,459
 675 398 675 398 652 398 c 0,460,461
 630 398 630 398 615 412 c 0,462,463
 609 418 609 418 605 428 c 1,464,465
 601 420 601 420 594 412 c 0,466,467
 585 404 585 404 574 400 c 1,468,-1
 574 400 l 1,469,470
 585 396 585 396 594 388 c 0,471,472
 609 374 609 374 610 350 c 0,473,474
 610 328 610 328 594 312 c 0,475,476
 585 304 585 304 574 300 c 1,477,-1
 574 300 l 1,478,479
 585 296 585 296 594 288 c 0,480,481
 601 282 601 282 605 272 c 1,482,-1
 605 272 l 1,483,484
 609 280 609 280 615 288 c 0,485,486
 630 302 630 302 652 302 c 128,-1,487
 674 302 674 302 690 288 c 256,488,489
 705.058823529 273.945098039 705.058823529 273.945098039 705.058823529 247.432525952 c 0,490,491
 705.058823529 227.058823529 705.058823529 227.058823529 690 212 c 0,492,493
 675 198 675 198 652 198 c 0,494,495
 630 198 630 198 615 212 c 0,496,497
 609 220 609 220 605 228 c 1,498,-1
 605 228 l 1,499,500
 601 220 601 220 594 212 c 0,501,502
 585 204 585 204 574 200 c 1,503,-1
 574 200 l 1,504,505
 585 196 585 196 594 188 c 0,506,507
 609 172 609 172 610 150 c 0,508,509
 610 130 610 130 594 114 c 0,510,511
 585 106 585 106 574 100 c 1,512,-1
 574 100 l 1,513,514
 585 96 585 96 594 88 c 0,515,516
 609 72 609 72 610 50 c 0,517,518
 610 28 610 28 594 12 c 0,519,520
 579 -2 579 -2 557 -2 c 1,521,-1
 557 -2 l 1,367,368
EndSplineSet
EndChar

StartChar: plus
Encoding: 43 43 11
Width: 1200
VWidth: 696
Flags: W
LayerCount: 2
Fore
SplineSet
204 328 m 1,0,1
 204 328 l 1,2,-1
 204 328 l 1,3,4
 204 328 l 1,5,-1
 204 328 l 1,0,1
605 328 m 1,6,7
 605 328 l 1,8,-1
 605 328 l 1,9,10
 605 328 l 1,11,-1
 605 328 l 1,6,7
52 298 m 1,12,13
 30 298 30 298 15 312 c 0,14,15
 0 328 0 328 0 350 c 128,-1,16
 0 372 0 372 15 388 c 0,17,18
 30 402 30 402 52 402 c 128,-1,19
 74 402 74 402 90 388 c 0,20,21
 105 374 105 374 105 350 c 0,22,23
 105 328 105 328 90 312 c 256,24,25
 74 298 74 298 52 298 c 1,26,-1
 52 298 l 1,12,13
158 298 m 1,27,28
 136 298 136 298 120 312 c 256,29,30
 105 328 105 328 105 350 c 128,-1,31
 105 372 105 372 120 388 c 0,32,33
 136 402 136 402 158 402 c 128,-1,34
 180 402 180 402 195 388 c 0,35,36
 201 380 201 380 204 372 c 1,37,-1
 204 372 l 1,38,39
 208 380 208 380 215 388 c 0,40,41
 230 402 230 402 252 402 c 128,-1,42
 274 402 274 402 290 388 c 0,43,44
 305 374 305 374 305 350 c 0,45,46
 305 328 305 328 290 312 c 256,47,48
 275 298 275 298 252 298 c 0,49,50
 230 298 230 298 215 312 c 0,51,52
 209 318 209 318 204 328 c 1,53,54
 200 320 200 320 195 312 c 0,55,56
 180 298 180 298 158 298 c 1,57,-1
 158 298 l 1,27,28
757 298 m 1,58,59
 735 298 735 298 720 312 c 256,60,61
 705 328 705 328 705 350 c 128,-1,62
 705 372 705 372 720 388 c 0,63,64
 735 402 735 402 757 402 c 0,65,66
 778 402 778 402 794 388 c 0,67,68
 801 380 801 380 805 372 c 1,69,-1
 805 372 l 1,70,71
 810 380 810 380 816 388 c 0,72,73
 831 402 831 402 853 402 c 128,-1,74
 875 402 875 402 890 388 c 0,75,76
 904.0625 374.875 904.0625 374.875 904.0625 352.9609375 c 0,77,78
 904.0625 328.071428571 904.0625 328.071428571 890 312 c 256,79,80
 875 298 875 298 853 298 c 0,81,82
 832 298 832 298 816 312 c 0,83,84
 810 318 810 318 805 328 c 1,85,-1
 805 328 l 1,86,87
 800 320 800 320 794 312 c 0,88,89
 779 298 779 298 757 298 c 1,90,-1
 757 298 l 1,58,59
958 298 m 1,91,92
 936 298 936 298 920 312 c 256,93,94
 905 328 905 328 904 350 c 0,95,96
 904 372 904 372 920 388 c 0,97,98
 935 402 935 402 958 402 c 0,99,100
 980 402 980 402 995 388 c 0,101,102
 1009.0625 374.875 1009.0625 374.875 1009.0625 352.9609375 c 0,103,104
 1009.0625 328.071428571 1009.0625 328.071428571 995 312 c 0,105,106
 980 298 980 298 958 298 c 1,107,-1
 958 298 l 1,91,92
452 98 m 1,108,109
 430 98 430 98 415 114 c 256,110,111
 400 128 400 128 400 150 c 128,-1,112
 400 172 400 172 415 188 c 0,113,114
 424 198 424 198 436 200 c 1,115,-1
 436 200 l 1,116,117
 425 204 425 204 415 212 c 0,118,119
 400 228 400 228 400 250 c 128,-1,120
 400 272 400 272 415 288 c 0,121,122
 424 298 424 298 436 300 c 1,123,-1
 436 300 l 1,124,125
 425 304 425 304 415 312 c 0,126,127
 408 318 408 318 405 328 c 1,128,129
 401 320 401 320 394 312 c 0,130,131
 379 298 379 298 357 298 c 128,-1,132
 335 298 335 298 321 312 c 256,133,134
 306 328 306 328 305 350 c 0,135,136
 305 372 305 372 321 388 c 0,137,138
 336 402 336 402 357 402 c 0,139,140
 379 402 379 402 394 388 c 0,141,142
 400 380 400 380 405 372 c 1,143,-1
 405 372 l 1,144,145
 409 380 409 380 415 388 c 0,146,147
 424 396 424 396 436 400 c 1,148,-1
 436 400 l 1,149,150
 425 404 425 404 415 412 c 0,151,152
 400 428 400 428 400 450 c 128,-1,153
 400 472 400 472 415 486 c 0,154,155
 424 494 424 494 436 500 c 1,156,-1
 436 500 l 1,157,158
 425 504 425 504 415 512 c 0,159,160
 400 528 400 528 400 550 c 256,161,162
 400 572 400 572 415 586 c 256,163,164
 430 600 430 600 452 602 c 0,165,166
 474 602 474 602 489 586 c 256,167,168
 504 572 504 572 505 550 c 256,169,170
 505 528 505 528 489 512 c 0,171,172
 480 502 480 502 469 500 c 1,173,-1
 469 500 l 1,174,175
 480 496 480 496 489 486 c 0,176,177
 504 472 504 472 505 450 c 0,178,179
 505 428 505 428 489 412 c 0,180,181
 480 404 480 404 469 400 c 1,182,-1
 469 400 l 1,183,184
 480 396 480 396 489 388 c 0,185,186
 504 374 504 374 505 350 c 0,187,188
 505 328 505 328 489 312 c 0,189,190
 480 304 480 304 469 300 c 1,191,-1
 469 300 l 1,192,193
 480 296 480 296 489 288 c 0,194,195
 504 274 504 274 505 250 c 0,196,197
 505 228 505 228 489 212 c 0,198,199
 480 204 480 204 469 200 c 1,200,-1
 469 200 l 1,201,202
 480 196 480 196 489 188 c 0,203,204
 504 172 504 172 505 150 c 0,205,206
 505 130 505 130 489 114 c 256,207,208
 474 100 474 100 452 98 c 1,209,-1
 452 98 l 1,108,109
557 98 m 1,210,211
 535 98 535 98 520 114 c 256,212,213
 505 128 505 128 505 150 c 128,-1,214
 505 172 505 172 520 188 c 0,215,216
 529 198 529 198 540 200 c 1,217,-1
 540 200 l 1,218,219
 529 204 529 204 520 212 c 0,220,221
 505 228 505 228 505 250 c 128,-1,222
 505 272 505 272 520 288 c 0,223,224
 529 298 529 298 540 300 c 1,225,-1
 540 300 l 1,226,227
 529 304 529 304 520 312 c 0,228,229
 505 328 505 328 505 350 c 128,-1,230
 505 372 505 372 520 388 c 0,231,232
 529 396 529 396 540 400 c 1,233,-1
 540 400 l 1,234,235
 529 404 529 404 520 412 c 0,236,237
 505 428 505 428 505 450 c 128,-1,238
 505 472 505 472 520 486 c 0,239,240
 529 494 529 494 540 500 c 1,241,-1
 540 500 l 1,242,243
 529 504 529 504 520 512 c 0,244,245
 505 528 505 528 505 550 c 256,246,247
 505 572 505 572 520 586 c 256,248,249
 535 600 535 600 557 602 c 0,250,251
 579 602 579 602 594 586 c 256,252,253
 609 572 609 572 610 550 c 256,254,255
 610 528 610 528 594 512 c 0,256,257
 585 502 585 502 574 500 c 1,258,-1
 574 500 l 1,259,260
 585 496 585 496 594 486 c 0,261,262
 609 472 609 472 610 450 c 0,263,264
 610 428 610 428 594 412 c 0,265,266
 585 404 585 404 574 400 c 1,267,-1
 574 400 l 1,268,269
 585 396 585 396 594 388 c 0,270,271
 601 380 601 380 605 372 c 1,272,-1
 605 372 l 1,273,274
 609 380 609 380 615 388 c 0,275,276
 630 402 630 402 652 402 c 128,-1,277
 674 402 674 402 690 388 c 0,278,279
 705.058823529 373.945098039 705.058823529 373.945098039 705.058823529 347.432525952 c 0,280,281
 705.058823529 327.058823529 705.058823529 327.058823529 690 312 c 256,282,283
 675 298 675 298 652 298 c 0,284,285
 630 298 630 298 615 312 c 0,286,287
 609 318 609 318 605 328 c 1,288,-1
 605 328 l 1,289,290
 601 320 601 320 594 312 c 0,291,292
 585 304 585 304 574 300 c 1,293,-1
 574 300 l 1,294,295
 585 296 585 296 594 288 c 0,296,297
 609 274 609 274 610 250 c 0,298,299
 610 228 610 228 594 212 c 0,300,301
 585 204 585 204 574 200 c 1,302,-1
 574 200 l 1,303,304
 585 196 585 196 594 188 c 0,305,306
 609 172 609 172 610 150 c 0,307,308
 610 130 610 130 594 114 c 256,309,310
 579 100 579 100 557 98 c 1,311,-1
 557 98 l 1,210,211
EndSplineSet
EndChar

StartChar: comma
Encoding: 44 44 12
Width: 1200
VWidth: 696
Flags: W
LayerCount: 2
Fore
SplineSet
252 -2 m 1,0,1
 230 -2 230 -2 215 12 c 0,2,3
 200 28 200 28 200 50 c 0,4,5
 200 72 200 72 215 88 c 0,6,7
 230 102 230 102 252 102 c 0,8,9
 274 102 274 102 290 88 c 256,10,11
 305 72 305 72 305 50 c 0,12,13
 305 28 305 28 290 12 c 0,14,15
 275 -2 275 -2 252 -2 c 1,16,-1
 252 -2 l 1,0,1
357 -2 m 1,17,18
 335 -2 335 -2 321 12 c 0,19,20
 306 28 306 28 305 50 c 0,21,22
 305 72 305 72 321 88 c 256,23,24
 336 102 336 102 357 102 c 0,25,26
 379 102 379 102 394 88 c 256,27,28
 410 72 410 72 410 50 c 0,29,30
 410 28 410 28 394 12 c 0,31,32
 379 -2 379 -2 357 -2 c 1,33,-1
 357 -2 l 1,17,18
452 98 m 1,34,35
 430 98 430 98 415 114 c 256,36,37
 400 128 400 128 400 150 c 0,38,39
 400 172 400 172 415 188 c 0,40,41
 424 198 424 198 436 200 c 1,42,-1
 436 200 l 1,43,44
 425 204 425 204 415 212 c 0,45,46
 400 228 400 228 400 250 c 0,47,48
 400 272 400 272 415 288 c 256,49,50
 430 302 430 302 452 302 c 0,51,52
 474 302 474 302 489 288 c 256,53,54
 504 274 504 274 505 250 c 0,55,56
 505 228 505 228 489 212 c 0,57,58
 480 204 480 204 469 200 c 1,59,-1
 469 200 l 1,60,61
 480 196 480 196 489 188 c 0,62,63
 504 172 504 172 505 150 c 0,64,65
 505 130 505 130 489 114 c 256,66,67
 474 100 474 100 452 98 c 1,68,-1
 452 98 l 1,34,35
557 98 m 1,69,70
 535 98 535 98 520 114 c 256,71,72
 505 128 505 128 505 150 c 0,73,74
 505 172 505 172 520 188 c 0,75,76
 529 198 529 198 540 200 c 1,77,-1
 540 200 l 1,78,79
 529 204 529 204 520 212 c 0,80,81
 505 228 505 228 505 250 c 0,82,83
 505 272 505 272 520 288 c 256,84,85
 535 302 535 302 557 302 c 0,86,87
 579 302 579 302 594 288 c 256,88,89
 609 274 609 274 610 250 c 0,90,91
 610 228 610 228 594 212 c 0,92,93
 585 204 585 204 574 200 c 1,94,-1
 574 200 l 1,95,96
 585 196 585 196 594 188 c 0,97,98
 609 172 609 172 610 150 c 0,99,100
 610 130 610 130 594 114 c 256,101,102
 579 100 579 100 557 98 c 1,103,-1
 557 98 l 1,69,70
EndSplineSet
EndChar

StartChar: hyphen
Encoding: 45 45 13
Width: 1200
VWidth: 696
Flags: W
LayerCount: 2
Fore
SplineSet
204 328 m 1,0,1
 204 328 l 1,2,-1
 204 328 l 1,3,4
 204 328 l 1,5,-1
 204 328 l 1,0,1
605 328 m 1,6,7
 605 328 l 1,8,-1
 605 328 l 1,9,10
 605 328 l 1,11,-1
 605 328 l 1,6,7
52 298 m 1,12,13
 30 298 30 298 15 312 c 0,14,15
 0 328 0 328 0 350 c 128,-1,16
 0 372 0 372 15 388 c 0,17,18
 30 402 30 402 52 402 c 128,-1,19
 74 402 74 402 90 388 c 0,20,21
 105 374 105 374 105 350 c 0,22,23
 105 328 105 328 90 312 c 256,24,25
 74 298 74 298 52 298 c 1,26,-1
 52 298 l 1,12,13
158 298 m 1,27,28
 136 298 136 298 120 312 c 256,29,30
 105 328 105 328 105 350 c 128,-1,31
 105 372 105 372 120 388 c 0,32,33
 136 402 136 402 158 402 c 128,-1,34
 180 402 180 402 195 388 c 0,35,36
 201 380 201 380 204 372 c 1,37,-1
 204 372 l 1,38,39
 208 380 208 380 215 388 c 0,40,41
 230 402 230 402 252 402 c 128,-1,42
 274 402 274 402 290 388 c 0,43,44
 305 374 305 374 305 350 c 0,45,46
 305 328 305 328 290 312 c 256,47,48
 275 298 275 298 252 298 c 0,49,50
 230 298 230 298 215 312 c 0,51,52
 209 318 209 318 204 328 c 1,53,-1
 204 328 l 1,54,55
 200 320 200 320 195 312 c 0,56,57
 180 298 180 298 158 298 c 1,58,-1
 158 298 l 1,27,28
357 298 m 1,59,60
 335 298 335 298 321 312 c 256,61,62
 306 328 306 328 305 350 c 0,63,64
 305 372 305 372 321 388 c 0,65,66
 336 402 336 402 357 402 c 0,67,68
 379 402 379 402 394 388 c 0,69,70
 400 380 400 380 405 372 c 1,71,-1
 405 372 l 1,72,73
 409 380 409 380 415 388 c 0,74,75
 430 402 430 402 452 402 c 128,-1,76
 474 402 474 402 489 388 c 128,-1,77
 504 374 504 374 505 350 c 0,78,79
 505 328 505 328 489 312 c 256,80,81
 474 298 474 298 452 298 c 128,-1,82
 430 298 430 298 415 312 c 0,83,84
 408 318 408 318 405 328 c 1,85,-1
 405 328 l 1,86,87
 401 320 401 320 394 312 c 0,88,89
 379 298 379 298 357 298 c 1,90,-1
 357 298 l 1,59,60
557 298 m 1,91,92
 535 298 535 298 520 312 c 256,93,94
 505 328 505 328 505 350 c 128,-1,95
 505 372 505 372 520 388 c 0,96,97
 535 402 535 402 557 402 c 128,-1,98
 579 402 579 402 594 388 c 0,99,100
 601 380 601 380 605 372 c 1,101,-1
 605 372 l 1,102,103
 609 380 609 380 615 388 c 0,104,105
 630 402 630 402 652 402 c 128,-1,106
 674 402 674 402 690 388 c 0,107,108
 705.058823529 373.945098039 705.058823529 373.945098039 705.058823529 347.432525952 c 0,109,110
 705.058823529 327.058823529 705.058823529 327.058823529 690 312 c 256,111,112
 675 298 675 298 652 298 c 0,113,114
 630 298 630 298 615 312 c 0,115,116
 609 318 609 318 605 328 c 1,117,118
 601 320 601 320 594 312 c 0,119,120
 579 298 579 298 557 298 c 1,121,-1
 557 298 l 1,91,92
757 298 m 1,122,123
 735 298 735 298 720 312 c 256,124,125
 705 328 705 328 705 350 c 128,-1,126
 705 372 705 372 720 388 c 0,127,128
 735 402 735 402 757 402 c 0,129,130
 778 402 778 402 794 388 c 0,131,132
 801 380 801 380 805 372 c 1,133,-1
 805 372 l 1,134,135
 810 380 810 380 816 388 c 0,136,137
 831 402 831 402 853 402 c 128,-1,138
 875 402 875 402 890 388 c 0,139,140
 904.0625 374.875 904.0625 374.875 904.0625 352.9609375 c 0,141,142
 904.0625 328.071428571 904.0625 328.071428571 890 312 c 256,143,144
 875 298 875 298 853 298 c 0,145,146
 832 298 832 298 816 312 c 0,147,148
 810 318 810 318 805 328 c 1,149,150
 800 320 800 320 794 312 c 0,151,152
 779 298 779 298 757 298 c 1,153,-1
 757 298 l 1,122,123
958 298 m 1,154,155
 936 298 936 298 920 312 c 256,156,157
 905 328 905 328 904 350 c 0,158,159
 904 372 904 372 920 388 c 0,160,161
 935 402 935 402 958 402 c 0,162,163
 980 402 980 402 995 388 c 0,164,165
 1009.0625 374.875 1009.0625 374.875 1009.0625 352.9609375 c 0,166,167
 1009.0625 328.071428571 1009.0625 328.071428571 995 312 c 0,168,169
 980 298 980 298 958 298 c 1,170,-1
 958 298 l 1,154,155
EndSplineSet
EndChar

StartChar: period
Encoding: 46 46 14
Width: 1200
VWidth: 696
Flags: W
LayerCount: 2
Fore
SplineSet
405 26 m 1,0,1
 405 26 l 1,2,-1
 405 26 l 1,3,4
 405 26 l 1,5,-1
 405 26 l 1,0,1
405 72 m 1,6,7
 409 80 409 80 415 88 c 0,8,9
 424 98 424 98 436 100 c 1,10,-1
 436 100 l 1,11,12
 425 104 425 104 415 114 c 0,13,14
 408 120 408 120 405 128 c 1,15,-1
 405 128 l 1,16,17
 401 120 401 120 394 114 c 0,18,19
 385 106 385 106 374 100 c 1,20,-1
 374 100 l 1,21,22
 385 96 385 96 394 88 c 0,23,24
 400 80 400 80 405 72 c 1,25,-1
 405 72 l 1,6,7
405 128 m 1,26,27
 405 128 l 1,28,-1
 405 128 l 1,29,30
 405 128 l 1,31,-1
 405 128 l 1,26,27
252 -2 m 1,32,33
 230 -2 230 -2 215 12 c 0,34,35
 200 28 200 28 200 50 c 128,-1,36
 200 72 200 72 215 88 c 0,37,38
 224 98 224 98 236 100 c 1,39,-1
 236 100 l 1,40,41
 224 104 224 104 215 114 c 0,42,43
 200 128 200 128 200 150 c 128,-1,44
 200 172 200 172 215 188 c 0,45,46
 228.333333333 202.222222222 228.333333333 202.222222222 247.197530864 202.222222222 c 0,47,48
 249.555555556 202.222222222 249.555555556 202.222222222 252 202 c 0,49,50
 274 202 274 202 290 188 c 256,51,52
 305 172 305 172 305 150 c 0,53,54
 305 130 305 130 290 114 c 0,55,56
 281 106 281 106 269 100 c 1,57,-1
 269 100 l 1,58,59
 280 96 280 96 290 88 c 0,60,61
 305 72 305 72 305 50 c 128,-1,62
 305 28 305 28 290 12 c 0,63,64
 275 -2 275 -2 252 -2 c 1,65,-1
 252 -2 l 1,32,33
357 -2 m 1,66,67
 335 -2 335 -2 321 12 c 0,68,69
 306 28 306 28 305 50 c 0,70,71
 305 72 305 72 321 88 c 0,72,73
 330 98 330 98 341 100 c 1,74,-1
 341 100 l 1,75,76
 330 104 330 104 321 114 c 0,77,78
 306 128 306 128 305 150 c 0,79,80
 305 172 305 172 321 188 c 256,81,82
 334.333333333 202.222222222 334.333333333 202.222222222 352.407407407 202.222222222 c 0,83,84
 354.666666667 202.222222222 354.666666667 202.222222222 357 202 c 0,85,86
 379 202 379 202 394 188 c 0,87,88
 400 182 400 182 405 172 c 1,89,-1
 405 172 l 1,90,91
 409 180 409 180 415 188 c 0,92,93
 428.333333333 202.222222222 428.333333333 202.222222222 447.197530864 202.222222222 c 0,94,95
 449.555555556 202.222222222 449.555555556 202.222222222 452 202 c 0,96,97
 474 202 474 202 489 188 c 256,98,99
 504 172 504 172 505 150 c 0,100,101
 505 130 505 130 489 114 c 0,102,103
 480 106 480 106 469 100 c 1,104,-1
 469 100 l 1,105,106
 480 96 480 96 489 88 c 0,107,108
 504 72 504 72 505 50 c 0,109,110
 505 28 505 28 489 12 c 0,111,112
 474 -2 474 -2 452 -2 c 128,-1,113
 430 -2 430 -2 415 12 c 0,114,115
 408 18 408 18 405 26 c 1,116,-1
 405 26 l 1,117,118
 401 18 401 18 394 12 c 0,119,120
 379 -2 379 -2 357 -2 c 1,121,-1
 357 -2 l 1,66,67
557 -2 m 1,122,123
 535 -2 535 -2 520 12 c 0,124,125
 505 28 505 28 505 50 c 128,-1,126
 505 72 505 72 520 88 c 0,127,128
 529 98 529 98 540 100 c 1,129,-1
 540 100 l 1,130,131
 529 104 529 104 520 114 c 0,132,133
 505 128 505 128 505 150 c 128,-1,134
 505 172 505 172 520 188 c 256,135,136
 533.333333333 202.222222222 533.333333333 202.222222222 552.197530864 202.222222222 c 0,137,138
 554.555555556 202.222222222 554.555555556 202.222222222 557 202 c 0,139,140
 579 202 579 202 594 188 c 256,141,142
 609 172 609 172 610 150 c 0,143,144
 610 130 610 130 594 114 c 0,145,146
 585 106 585 106 574 100 c 1,147,-1
 574 100 l 1,148,149
 585 96 585 96 594 88 c 0,150,151
 609 72 609 72 610 50 c 0,152,153
 610 28 610 28 594 12 c 0,154,155
 579 -2 579 -2 557 -2 c 1,156,-1
 557 -2 l 1,122,123
EndSplineSet
EndChar

StartChar: slash
Encoding: 47 47 15
Width: 1200
VWidth: 696
Flags: W
LayerCount: 2
Fore
SplineSet
52 98 m 1,0,1
 30 98 30 98 15 114 c 0,2,3
 0 128 0 128 0 150 c 128,-1,4
 0 172 0 172 15 188 c 0,5,6
 28.3333333333 202.222222222 28.3333333333 202.222222222 47.1975308642 202.222222222 c 0,7,8
 49.5555555556 202.222222222 49.5555555556 202.222222222 52 202 c 0,9,10
 74 202 74 202 90 188 c 256,11,12
 105 172 105 172 105 150 c 0,13,14
 105 130 105 130 90 114 c 256,15,16
 74 100 74 100 52 98 c 1,17,-1
 52 98 l 1,0,1
158 98 m 1,18,19
 136 98 136 98 120 114 c 256,20,21
 105 128 105 128 105 150 c 128,-1,22
 105 172 105 172 120 188 c 256,23,24
 134.222222222 202.222222222 134.222222222 202.222222222 153.185185185 202.222222222 c 0,25,26
 155.555555556 202.222222222 155.555555556 202.222222222 158 202 c 0,27,28
 180 202 180 202 195 188 c 256,29,30
 210 172 210 172 210 150 c 0,31,32
 210 130 210 130 195 114 c 256,33,34
 180 100 180 100 158 98 c 1,35,-1
 158 98 l 1,18,19
252 198 m 1,36,37
 230 198 230 198 215 212 c 0,38,39
 200 228 200 228 200 250 c 128,-1,40
 200 272 200 272 215 288 c 0,41,42
 230 302 230 302 252 302 c 128,-1,43
 274 302 274 302 290 288 c 256,44,45
 305 274 305 274 305 250 c 0,46,47
 305 228 305 228 290 212 c 0,48,49
 275 198 275 198 252 198 c 1,50,-1
 252 198 l 1,36,37
357 198 m 1,51,52
 335 198 335 198 321 212 c 0,53,54
 306 228 306 228 305 250 c 0,55,56
 305 272 305 272 321 288 c 256,57,58
 336 302 336 302 357 302 c 0,59,60
 379 302 379 302 394 288 c 256,61,62
 410 274 410 274 410 250 c 0,63,64
 410 228 410 228 394 212 c 0,65,66
 379 198 379 198 357 198 c 1,67,-1
 357 198 l 1,51,52
452 298 m 1,68,69
 430 298 430 298 415 312 c 256,70,71
 400 328 400 328 400 350 c 128,-1,72
 400 372 400 372 415 388 c 0,73,74
 430 402 430 402 452 402 c 128,-1,75
 474 402 474 402 489 388 c 128,-1,76
 504 374 504 374 505 350 c 0,77,78
 505 328 505 328 489 312 c 256,79,80
 474 298 474 298 452 298 c 1,81,-1
 452 298 l 1,68,69
557 298 m 1,82,83
 535 298 535 298 520 312 c 256,84,85
 505 328 505 328 505 350 c 128,-1,86
 505 372 505 372 520 388 c 0,87,88
 535 402 535 402 557 402 c 128,-1,89
 579 402 579 402 594 388 c 128,-1,90
 609 374 609 374 610 350 c 0,91,92
 610 328 610 328 594 312 c 256,93,94
 579 298 579 298 557 298 c 1,95,-1
 557 298 l 1,82,83
652 398 m 1,96,97
 630 398 630 398 615 412 c 256,98,99
 600 428 600 428 600 450 c 128,-1,100
 600 472 600 472 615 486 c 256,101,102
 630 500 630 500 652 502 c 0,103,104
 674 502 674 502 690 486 c 256,105,106
 705.058823529 471.945098039 705.058823529 471.945098039 705.058823529 447.432525952 c 0,107,108
 705.058823529 427.058823529 705.058823529 427.058823529 690 412 c 256,109,110
 675 398 675 398 652 398 c 1,111,-1
 652 398 l 1,96,97
757 398 m 1,112,113
 735 398 735 398 720 412 c 256,114,115
 705 428 705 428 705 450 c 128,-1,116
 705 472 705 472 720 486 c 256,117,118
 735 500 735 500 757 502 c 0,119,120
 778 502 778 502 794 486 c 256,121,122
 809 472 809 472 810 450 c 0,123,124
 810 428 810 428 794 412 c 256,125,126
 779 398 779 398 757 398 c 1,127,-1
 757 398 l 1,112,113
853 498 m 1,128,129
 832 498 832 498 816 512 c 256,130,131
 801 528 801 528 800 550 c 256,132,133
 800 572 800 572 816 586 c 256,134,135
 831 600 831 600 853 602 c 0,136,137
 875 602 875 602 890 586 c 256,138,139
 904.0625 572.875 904.0625 572.875 904.0625 552.71875 c 0,140,141
 904.0625 528.071428571 904.0625 528.071428571 890 512 c 256,142,143
 875 498 875 498 853 498 c 1,144,-1
 853 498 l 1,128,129
958 498 m 1,145,146
 936 498 936 498 920 512 c 256,147,148
 905 528 905 528 904 550 c 256,149,150
 904 572 904 572 920 586 c 256,151,152
 935 600 935 600 958 602 c 0,153,154
 980 602 980 602 995 586 c 0,155,156
 1009.0625 572.875 1009.0625 572.875 1009.0625 552.71875 c 0,157,158
 1009.0625 528.071428571 1009.0625 528.071428571 995 512 c 0,159,160
 980 498 980 498 958 498 c 1,161,-1
 958 498 l 1,145,146
EndSplineSet
EndChar

StartChar: zero
Encoding: 48 48 16
Width: 1200
VWidth: 696
Flags: W
LayerCount: 2
Fore
SplineSet
405 26 m 1,0,1
 405 26 l 1,2,-1
 405 26 l 1,3,4
 405 26 l 1,5,-1
 405 26 l 1,0,1
252 -2 m 1,6,7
 230 -2 230 -2 215 12 c 0,8,9
 200 28 200 28 200 50 c 128,-1,10
 200 72 200 72 215 88 c 0,11,12
 230 102 230 102 252 102 c 128,-1,13
 274 102 274 102 290 88 c 256,14,15
 305 72 305 72 305 50 c 128,-1,16
 305 28 305 28 290 12 c 0,17,18
 275 -2 275 -2 252 -2 c 1,19,-1
 252 -2 l 1,6,7
357 -2 m 1,20,21
 335 -2 335 -2 321 12 c 0,22,23
 306 28 306 28 305 50 c 0,24,25
 305 72 305 72 321 88 c 256,26,27
 336 102 336 102 357 102 c 0,28,29
 379 102 379 102 394 88 c 0,30,31
 400 80 400 80 405 72 c 1,32,-1
 405 72 l 1,33,34
 409 80 409 80 415 88 c 0,35,36
 430 102 430 102 452 102 c 128,-1,37
 474 102 474 102 489 88 c 256,38,39
 504 72 504 72 505 50 c 0,40,41
 505 28 505 28 489 12 c 0,42,43
 474 -2 474 -2 452 -2 c 128,-1,44
 430 -2 430 -2 415 12 c 0,45,46
 408 18 408 18 405 26 c 1,47,48
 401 18 401 18 394 12 c 0,49,50
 379 -2 379 -2 357 -2 c 1,51,-1
 357 -2 l 1,20,21
557 -2 m 1,52,53
 535 -2 535 -2 520 12 c 0,54,55
 505 28 505 28 505 50 c 128,-1,56
 505 72 505 72 520 88 c 256,57,58
 535 102 535 102 557 102 c 128,-1,59
 579 102 579 102 594 88 c 0,60,61
 601 80 601 80 605 72 c 1,62,-1
 605 72 l 1,63,64
 609 80 609 80 615 88 c 0,65,66
 630 102 630 102 652 102 c 128,-1,67
 674 102 674 102 690 88 c 256,68,69
 705.058823529 71.937254902 705.058823529 71.937254902 705.058823529 47.4325259516 c 0,70,71
 705.058823529 27.0588235294 705.058823529 27.0588235294 690 12 c 0,72,73
 675 -2 675 -2 652 -2 c 0,74,75
 630 -2 630 -2 615 12 c 0,76,77
 609 18 609 18 605 26 c 1,78,-1
 605 26 l 1,79,80
 601 18 601 18 594 12 c 0,81,82
 579 -2 579 -2 557 -2 c 1,83,-1
 557 -2 l 1,52,53
757 -2 m 1,84,85
 735 -2 735 -2 720 12 c 0,86,87
 705 28 705 28 705 50 c 128,-1,88
 705 72 705 72 720 88 c 256,89,90
 735 102 735 102 757 102 c 0,91,92
 778 102 778 102 794 88 c 256,93,94
 809 72 809 72 810 50 c 0,95,96
 810 28 810 28 794 12 c 0,97,98
 779 -2 779 -2 757 -2 c 1,99,-1
 757 -2 l 1,84,85
204 228 m 1,100,-1
 204 228 l 1,101,-1
 204 228 l 1,102,-1
 204 228 l 1,103,-1
 204 228 l 1,100,-1
357 198 m 1,104,105
 335 198 335 198 321 212 c 0,106,107
 306 228 306 228 305 250 c 0,108,109
 305 272 305 272 321 288 c 256,110,111
 336 302 336 302 357 302 c 0,112,113
 379 302 379 302 394 288 c 256,114,115
 410 274 410 274 410 250 c 0,116,117
 410 228 410 228 394 212 c 0,118,119
 379 198 379 198 357 198 c 1,120,-1
 357 198 l 1,104,105
452 298 m 1,121,122
 430 298 430 298 415 312 c 256,123,124
 400 328 400 328 400 350 c 128,-1,125
 400 372 400 372 415 388 c 0,126,127
 430 402 430 402 452 402 c 128,-1,128
 474 402 474 402 489 388 c 128,-1,129
 504 374 504 374 505 350 c 0,130,131
 505 328 505 328 489 312 c 256,132,133
 474 298 474 298 452 298 c 1,134,-1
 452 298 l 1,121,122
557 298 m 1,135,136
 535 298 535 298 520 312 c 256,137,138
 505 328 505 328 505 350 c 128,-1,139
 505 372 505 372 520 388 c 0,140,141
 535 402 535 402 557 402 c 128,-1,142
 579 402 579 402 594 388 c 128,-1,143
 609 374 609 374 610 350 c 0,144,145
 610 328 610 328 594 312 c 256,146,147
 579 298 579 298 557 298 c 1,148,-1
 557 298 l 1,135,136
805 428 m 1,149,-1
 805 428 l 1,150,-1
 805 428 l 1,151,-1
 805 428 l 1,152,-1
 805 428 l 1,149,-1
652 398 m 1,153,154
 630 398 630 398 615 412 c 256,155,156
 600 428 600 428 600 450 c 128,-1,157
 600 472 600 472 615 486 c 256,158,159
 630 500 630 500 652 502 c 0,160,161
 674 502 674 502 690 486 c 256,162,163
 705.058823529 471.945098039 705.058823529 471.945098039 705.058823529 447.432525952 c 0,164,165
 705.058823529 427.058823529 705.058823529 427.058823529 690 412 c 256,166,167
 675 398 675 398 652 398 c 1,168,-1
 652 398 l 1,153,154
52 98 m 1,169,170
 30 98 30 98 15 114 c 0,171,172
 0 128 0 128 0 150 c 128,-1,173
 0 172 0 172 15 188 c 0,174,175
 24 198 24 198 36 200 c 1,176,-1
 36 200 l 1,177,178
 24 204 24 204 15 212 c 0,179,180
 0 228 0 228 0 250 c 128,-1,181
 0 272 0 272 15 288 c 0,182,183
 24 298 24 298 36 300 c 1,184,-1
 36 300 l 1,185,186
 24 304 24 304 15 312 c 0,187,188
 0 328 0 328 0 350 c 128,-1,189
 0 372 0 372 15 388 c 0,190,191
 24 396 24 396 36 400 c 1,192,-1
 36 400 l 1,193,194
 24 404 24 404 15 412 c 0,195,196
 0 428 0 428 0 450 c 128,-1,197
 0 472 0 472 15 486 c 0,198,199
 24 494 24 494 36 500 c 1,200,-1
 36 500 l 1,201,202
 24 504 24 504 15 512 c 0,203,204
 0 528 0 528 0 550 c 256,205,206
 0 572 0 572 15 586 c 128,-1,207
 30 600 30 600 52 602 c 0,208,209
 74 602 74 602 90 586 c 256,210,211
 105 572 105 572 105 550 c 256,212,213
 105 528 105 528 90 512 c 0,214,215
 81 502 81 502 69 500 c 1,216,-1
 69 500 l 1,217,218
 81 496 81 496 90 486 c 0,219,220
 105 472 105 472 105 450 c 128,-1,221
 105 428 105 428 90 412 c 0,222,223
 81 404 81 404 69 400 c 1,224,-1
 69 400 l 1,225,226
 81 396 81 396 90 388 c 0,227,228
 105 374 105 374 105 350 c 0,229,230
 105 328 105 328 90 312 c 0,231,232
 81 304 81 304 69 300 c 1,233,-1
 69 300 l 1,234,235
 81 296 81 296 90 288 c 0,236,237
 105 274 105 274 105 250 c 0,238,239
 105 228 105 228 90 212 c 0,240,241
 81 204 81 204 69 200 c 1,242,-1
 69 200 l 1,243,244
 81 196 81 196 90 188 c 0,245,246
 105 172 105 172 105 150 c 0,247,248
 105 130 105 130 90 114 c 256,249,250
 74 100 74 100 52 98 c 1,251,-1
 52 98 l 1,169,170
158 98 m 1,252,253
 136 98 136 98 120 114 c 256,254,255
 105 128 105 128 105 150 c 128,-1,256
 105 172 105 172 120 188 c 0,257,258
 129 198 129 198 141 200 c 1,259,-1
 141 200 l 1,260,261
 129 204 129 204 120 212 c 0,262,263
 105 228 105 228 105 250 c 128,-1,264
 105 272 105 272 120 288 c 0,265,266
 129 298 129 298 141 300 c 1,267,-1
 141 300 l 1,268,269
 129 304 129 304 120 312 c 0,270,271
 105 328 105 328 105 350 c 128,-1,272
 105 372 105 372 120 388 c 0,273,274
 129 396 129 396 141 400 c 1,275,-1
 141 400 l 1,276,277
 129 404 129 404 120 412 c 0,278,279
 105 428 105 428 105 450 c 128,-1,280
 105 472 105 472 120 486 c 0,281,282
 129 494 129 494 141 500 c 1,283,-1
 141 500 l 1,284,285
 129 504 129 504 120 512 c 0,286,287
 105 528 105 528 105 550 c 256,288,289
 105 572 105 572 120 586 c 256,290,291
 136 600 136 600 158 602 c 0,292,293
 180 602 180 602 195 586 c 256,294,295
 210 572 210 572 210 550 c 256,296,297
 210 528 210 528 195 512 c 0,298,299
 186 502 186 502 174 500 c 1,300,-1
 174 500 l 1,301,302
 185 496 185 496 195 486 c 0,303,304
 210 472 210 472 210 450 c 128,-1,305
 210 428 210 428 195 412 c 0,306,307
 186 404 186 404 174 400 c 1,308,-1
 174 400 l 1,309,310
 185 396 185 396 195 388 c 0,311,312
 210 374 210 374 210 350 c 0,313,314
 210 328 210 328 195 312 c 0,315,316
 186 304 186 304 174 300 c 1,317,-1
 174 300 l 1,318,319
 185 296 185 296 195 288 c 0,320,321
 201 282 201 282 204 272 c 1,322,-1
 204 272 l 1,323,324
 208 280 208 280 215 288 c 0,325,326
 230 302 230 302 252 302 c 128,-1,327
 274 302 274 302 290 288 c 256,328,329
 305 274 305 274 305 250 c 0,330,331
 305 228 305 228 290 212 c 0,332,333
 275 198 275 198 252 198 c 0,334,335
 230 198 230 198 215 212 c 0,336,337
 209 220 209 220 204 228 c 1,338,339
 200 220 200 220 195 212 c 0,340,341
 186 204 186 204 174 200 c 1,342,-1
 174 200 l 1,343,344
 185 196 185 196 195 188 c 0,345,346
 210 172 210 172 210 150 c 0,347,348
 210 130 210 130 195 114 c 256,349,350
 180 100 180 100 158 98 c 1,351,-1
 158 98 l 1,252,253
853 98 m 1,352,353
 832 98 832 98 816 114 c 256,354,355
 801 128 801 128 800 150 c 0,356,357
 800 172 800 172 816 188 c 0,358,359
 825 198 825 198 836 200 c 1,360,-1
 836 200 l 1,361,362
 826 204 826 204 816 212 c 0,363,364
 801 228 801 228 800 250 c 0,365,366
 800 272 800 272 816 288 c 0,367,368
 825 298 825 298 836 300 c 1,369,-1
 836 300 l 1,370,371
 826 304 826 304 816 312 c 0,372,373
 801 328 801 328 800 350 c 0,374,375
 800 372 800 372 816 388 c 0,376,377
 825 396 825 396 836 400 c 1,378,-1
 836 400 l 1,379,380
 826 404 826 404 816 412 c 0,381,382
 810 418 810 418 805 428 c 1,383,-1
 805 428 l 1,384,385
 800 420 800 420 794 412 c 0,386,387
 779 398 779 398 757 398 c 128,-1,388
 735 398 735 398 720 412 c 256,389,390
 705 428 705 428 705 450 c 128,-1,391
 705 472 705 472 720 486 c 256,392,393
 735 500 735 500 757 502 c 0,394,395
 778 502 778 502 794 486 c 0,396,397
 801 480 801 480 805 472 c 1,398,-1
 805 472 l 1,399,400
 810 480 810 480 816 486 c 0,401,402
 825 494 825 494 836 500 c 1,403,-1
 836 500 l 1,404,405
 826 504 826 504 816 512 c 0,406,407
 801 528 801 528 800 550 c 256,408,409
 800 572 800 572 816 586 c 256,410,411
 831 600 831 600 853 602 c 0,412,413
 875 602 875 602 890 586 c 256,414,415
 904.0625 572.875 904.0625 572.875 904.0625 552.71875 c 0,416,417
 904.0625 528.071428571 904.0625 528.071428571 890 512 c 0,418,419
 881 502 881 502 869 500 c 1,420,-1
 869 500 l 1,421,422
 880 496 880 496 890 486 c 0,423,424
 904.0625 472.875 904.0625 472.875 904.0625 452.71875 c 0,425,426
 904.0625 428.071428571 904.0625 428.071428571 890 412 c 0,427,428
 881 404 881 404 869 400 c 1,429,-1
 869 400 l 1,430,431
 880 396 880 396 890 388 c 0,432,433
 904.0625 374.875 904.0625 374.875 904.0625 352.9609375 c 0,434,435
 904.0625 328.071428571 904.0625 328.071428571 890 312 c 0,436,437
 881 304 881 304 869 300 c 1,438,-1
 869 300 l 1,439,440
 880 296 880 296 890 288 c 0,441,442
 904.0625 274.875 904.0625 274.875 904.0625 252.9609375 c 0,443,444
 904.0625 228.071428571 904.0625 228.071428571 890 212 c 0,445,446
 881 204 881 204 869 200 c 1,447,-1
 869 200 l 1,448,449
 880 196 880 196 890 188 c 0,450,451
 904.0625 173 904.0625 173 904.0625 152.7265625 c 0,452,453
 904.0625 130.071428571 904.0625 130.071428571 890 114 c 256,454,455
 875 100 875 100 853 98 c 1,456,-1
 853 98 l 1,352,353
958 98 m 1,457,458
 936 98 936 98 920 114 c 256,459,460
 905 128 905 128 904 150 c 0,461,462
 904 172 904 172 920 188 c 0,463,464
 929 198 929 198 941 200 c 1,465,-1
 941 200 l 1,466,467
 929 204 929 204 920 212 c 0,468,469
 905 228 905 228 904 250 c 0,470,471
 904 272 904 272 920 288 c 0,472,473
 929 298 929 298 941 300 c 1,474,-1
 941 300 l 1,475,476
 929 304 929 304 920 312 c 0,477,478
 905 328 905 328 904 350 c 0,479,480
 904 372 904 372 920 388 c 0,481,482
 929 396 929 396 941 400 c 1,483,-1
 941 400 l 1,484,485
 929 404 929 404 920 412 c 0,486,487
 905 428 905 428 904 450 c 0,488,489
 904 472 904 472 920 486 c 0,490,491
 929 494 929 494 941 500 c 1,492,-1
 941 500 l 1,493,494
 929 504 929 504 920 512 c 0,495,496
 905 528 905 528 904 550 c 256,497,498
 904 572 904 572 920 586 c 256,499,500
 935 600 935 600 958 602 c 0,501,502
 980 602 980 602 995 586 c 0,503,504
 1009.0625 572.875 1009.0625 572.875 1009.0625 552.71875 c 0,505,506
 1009.0625 528.071428571 1009.0625 528.071428571 995 512 c 0,507,508
 986 502 986 502 974 500 c 1,509,-1
 974 500 l 1,510,511
 986 496 986 496 995 486 c 0,512,513
 1009.0625 472.875 1009.0625 472.875 1009.0625 452.71875 c 0,514,515
 1009.0625 428.071428571 1009.0625 428.071428571 995 412 c 0,516,517
 986 404 986 404 974 400 c 1,518,-1
 974 400 l 1,519,520
 986 396 986 396 995 388 c 0,521,522
 1009.0625 374.875 1009.0625 374.875 1009.0625 352.9609375 c 0,523,524
 1009.0625 328.071428571 1009.0625 328.071428571 995 312 c 0,525,526
 986 304 986 304 974 300 c 1,527,-1
 974 300 l 1,528,529
 986 296 986 296 995 288 c 0,530,531
 1009.0625 274.875 1009.0625 274.875 1009.0625 252.9609375 c 0,532,533
 1009.0625 228.071428571 1009.0625 228.071428571 995 212 c 0,534,535
 986 204 986 204 974 200 c 1,536,-1
 974 200 l 1,537,538
 986 196 986 196 995 188 c 0,539,540
 1009.0625 173 1009.0625 173 1009.0625 152.7265625 c 0,541,542
 1009.0625 130.071428571 1009.0625 130.071428571 995 114 c 0,543,544
 980 100 980 100 958 98 c 1,545,-1
 958 98 l 1,457,458
405 626 m 1,546,-1
 405 626 l 1,547,-1
 405 626 l 1,548,-1
 405 626 l 1,549,-1
 405 626 l 1,546,-1
252 598 m 1,550,551
 230 598 230 598 215 612 c 0,552,553
 200 628 200 628 200 650 c 128,-1,554
 200 672 200 672 215 688 c 0,555,556
 230 702 230 702 252 702 c 0,557,558
 254.444444444 702.222222222 254.444444444 702.222222222 256.814814815 702.222222222 c 0,559,560
 275.777777778 702.222222222 275.777777778 702.222222222 290 688 c 256,561,562
 305 674 305 674 305 650 c 0,563,564
 305 628 305 628 290 612 c 256,565,566
 275 598 275 598 252 598 c 1,567,-1
 252 598 l 1,550,551
357 598 m 1,568,569
 335 598 335 598 321 612 c 256,570,571
 306 628 306 628 305 650 c 0,572,573
 305 672 305 672 321 688 c 256,574,575
 336 702 336 702 357 702 c 0,576,577
 359.444444444 702.222222222 359.444444444 702.222222222 361.802469136 702.222222222 c 0,578,579
 380.666666667 702.222222222 380.666666667 702.222222222 394 688 c 0,580,581
 400 682 400 682 405 672 c 1,582,-1
 405 672 l 1,583,584
 409 682 409 682 415 688 c 0,585,586
 430 702 430 702 452 702 c 0,587,588
 454.444444444 702.222222222 454.444444444 702.222222222 456.802469136 702.222222222 c 0,589,590
 475.666666667 702.222222222 475.666666667 702.222222222 489 688 c 256,591,592
 504 674 504 674 505 650 c 0,593,594
 505 628 505 628 489 612 c 256,595,596
 474 598 474 598 452 598 c 128,-1,597
 430 598 430 598 415 612 c 0,598,599
 408 618 408 618 405 626 c 1,600,601
 401 618 401 618 394 612 c 0,602,603
 379 598 379 598 357 598 c 1,604,-1
 357 598 l 1,568,569
557 598 m 1,605,606
 535 598 535 598 520 612 c 256,607,608
 505 628 505 628 505 650 c 128,-1,609
 505 672 505 672 520 688 c 256,610,611
 535 702 535 702 557 702 c 0,612,613
 559.444444444 702.222222222 559.444444444 702.222222222 561.802469136 702.222222222 c 0,614,615
 580.666666667 702.222222222 580.666666667 702.222222222 594 688 c 0,616,617
 601 682 601 682 605 672 c 1,618,-1
 605 672 l 1,619,620
 609 682 609 682 615 688 c 0,621,622
 630 702 630 702 652 702 c 0,623,624
 654.444444444 702.222222222 654.444444444 702.222222222 656.814814815 702.222222222 c 0,625,626
 675.777777778 702.222222222 675.777777778 702.222222222 690 688 c 256,627,628
 705.058823529 673.945098039 705.058823529 673.945098039 705.058823529 647.432525952 c 0,629,630
 705.058823529 627.058823529 705.058823529 627.058823529 690 612 c 256,631,632
 675 598 675 598 652 598 c 0,633,634
 630 598 630 598 615 612 c 0,635,636
 609 618 609 618 605 626 c 1,637,638
 601 618 601 618 594 612 c 0,639,640
 579 598 579 598 557 598 c 1,641,-1
 557 598 l 1,605,606
757 598 m 1,642,643
 735 598 735 598 720 612 c 256,644,645
 705 628 705 628 705 650 c 128,-1,646
 705 672 705 672 720 688 c 256,647,648
 735 702 735 702 757 702 c 0,649,650
 759.333333333 702.222222222 759.333333333 702.222222222 761.604938272 702.222222222 c 0,651,652
 779.777777778 702.222222222 779.777777778 702.222222222 794 688 c 256,653,654
 809 674 809 674 810 650 c 0,655,656
 810 628 810 628 794 612 c 256,657,658
 779 598 779 598 757 598 c 1,659,-1
 757 598 l 1,642,643
EndSplineSet
EndChar

StartChar: one
Encoding: 49 49 17
Width: 1200
VWidth: 696
Flags: W
LayerCount: 2
Fore
SplineSet
405 26 m 1,0,1
 405 26 l 1,2,-1
 405 26 l 1,3,4
 405 26 l 1,5,-1
 405 26 l 1,0,1
252 -2 m 1,6,7
 230 -2 230 -2 215 12 c 0,8,9
 200 28 200 28 200 50 c 128,-1,10
 200 72 200 72 215 88 c 0,11,12
 230 102 230 102 252 102 c 128,-1,13
 274 102 274 102 290 88 c 256,14,15
 305 72 305 72 305 50 c 128,-1,16
 305 28 305 28 290 12 c 0,17,18
 275 -2 275 -2 252 -2 c 1,19,-1
 252 -2 l 1,6,7
757 -2 m 1,20,21
 735 -2 735 -2 720 12 c 0,22,23
 705 28 705 28 705 50 c 128,-1,24
 705 72 705 72 720 88 c 256,25,26
 735 102 735 102 757 102 c 0,27,28
 778 102 778 102 794 88 c 256,29,30
 809 72 809 72 810 50 c 0,31,32
 810 28 810 28 794 12 c 0,33,34
 779 -2 779 -2 757 -2 c 1,35,-1
 757 -2 l 1,20,21
252 498 m 1,36,37
 230 498 230 498 215 512 c 0,38,39
 200 528 200 528 200 550 c 256,40,41
 200 572 200 572 215 586 c 128,-1,42
 230 600 230 600 252 602 c 0,43,44
 274 602 274 602 290 586 c 256,45,46
 305 572 305 572 305 550 c 256,47,48
 305 528 305 528 290 512 c 256,49,50
 275 498 275 498 252 498 c 1,51,-1
 252 498 l 1,36,37
357 -2 m 1,52,53
 335 -2 335 -2 321 12 c 0,54,55
 306 28 306 28 305 50 c 0,56,57
 305 72 305 72 321 88 c 256,58,59
 336 102 336 102 357 102 c 0,60,61
 379 102 379 102 394 88 c 0,62,63
 400 80 400 80 405 72 c 1,64,-1
 405 72 l 1,65,66
 409 80 409 80 415 88 c 0,67,68
 424 98 424 98 436 100 c 1,69,-1
 436 100 l 1,70,71
 425 104 425 104 415 114 c 0,72,73
 400 128 400 128 400 150 c 128,-1,74
 400 172 400 172 415 188 c 0,75,76
 424 198 424 198 436 200 c 1,77,-1
 436 200 l 1,78,79
 425 204 425 204 415 212 c 0,80,81
 400 228 400 228 400 250 c 128,-1,82
 400 272 400 272 415 288 c 0,83,84
 424 298 424 298 436 300 c 1,85,-1
 436 300 l 1,86,87
 425 304 425 304 415 312 c 0,88,89
 400 328 400 328 400 350 c 128,-1,90
 400 372 400 372 415 388 c 0,91,92
 424 396 424 396 436 400 c 1,93,-1
 436 400 l 1,94,95
 425 404 425 404 415 412 c 0,96,97
 400 428 400 428 400 450 c 128,-1,98
 400 472 400 472 415 486 c 0,99,100
 424 494 424 494 436 500 c 1,101,-1
 436 500 l 1,102,103
 425 504 425 504 415 512 c 0,104,105
 408 518 408 518 405 526 c 1,106,-1
 405 526 l 1,107,108
 401 518 401 518 394 512 c 0,109,110
 379 498 379 498 357 498 c 128,-1,111
 335 498 335 498 321 512 c 256,112,113
 306 528 306 528 305 550 c 256,114,115
 305 572 305 572 321 586 c 256,116,117
 336 600 336 600 357 602 c 0,118,119
 379 602 379 602 394 586 c 0,120,121
 400 578 400 578 405 572 c 1,122,-1
 405 572 l 1,123,124
 409 580 409 580 415 586 c 0,125,126
 424 596 424 596 436 600 c 1,127,-1
 436 600 l 1,128,129
 425 604 425 604 415 612 c 0,130,131
 400 628 400 628 400 650 c 128,-1,132
 400 672 400 672 415 688 c 256,133,134
 430 702 430 702 452 702 c 0,135,136
 454.444444444 702.222222222 454.444444444 702.222222222 456.802469136 702.222222222 c 0,137,138
 475.666666667 702.222222222 475.666666667 702.222222222 489 688 c 256,139,140
 504 674 504 674 505 650 c 0,141,142
 505 628 505 628 489 612 c 0,143,144
 480 604 480 604 469 600 c 1,145,-1
 469 600 l 1,146,147
 480 596 480 596 489 586 c 0,148,149
 504 572 504 572 505 550 c 256,150,151
 505 528 505 528 489 512 c 0,152,153
 480 502 480 502 469 500 c 1,154,-1
 469 500 l 1,155,156
 480 496 480 496 489 486 c 0,157,158
 504 472 504 472 505 450 c 0,159,160
 505 428 505 428 489 412 c 0,161,162
 480 404 480 404 469 400 c 1,163,-1
 469 400 l 1,164,165
 480 396 480 396 489 388 c 0,166,167
 504 374 504 374 505 350 c 0,168,169
 505 328 505 328 489 312 c 0,170,171
 480 304 480 304 469 300 c 1,172,-1
 469 300 l 1,173,174
 480 296 480 296 489 288 c 0,175,176
 504 274 504 274 505 250 c 0,177,178
 505 228 505 228 489 212 c 0,179,180
 480 204 480 204 469 200 c 1,181,-1
 469 200 l 1,182,183
 480 196 480 196 489 188 c 0,184,185
 504 172 504 172 505 150 c 0,186,187
 505 130 505 130 489 114 c 0,188,189
 480 106 480 106 469 100 c 1,190,-1
 469 100 l 1,191,192
 480 96 480 96 489 88 c 0,193,194
 504 72 504 72 505 50 c 0,195,196
 505 28 505 28 489 12 c 0,197,198
 474 -2 474 -2 452 -2 c 128,-1,199
 430 -2 430 -2 415 12 c 0,200,201
 408 18 408 18 405 26 c 1,202,203
 401 18 401 18 394 12 c 0,204,205
 379 -2 379 -2 357 -2 c 1,206,-1
 357 -2 l 1,52,53
557 -2 m 1,207,208
 535 -2 535 -2 520 12 c 0,209,210
 505 28 505 28 505 50 c 128,-1,211
 505 72 505 72 520 88 c 0,212,213
 529 98 529 98 540 100 c 1,214,-1
 540 100 l 1,215,216
 529 104 529 104 520 114 c 0,217,218
 505 128 505 128 505 150 c 128,-1,219
 505 172 505 172 520 188 c 0,220,221
 529 198 529 198 540 200 c 1,222,-1
 540 200 l 1,223,224
 529 204 529 204 520 212 c 0,225,226
 505 228 505 228 505 250 c 128,-1,227
 505 272 505 272 520 288 c 0,228,229
 529 298 529 298 540 300 c 1,230,-1
 540 300 l 1,231,232
 529 304 529 304 520 312 c 0,233,234
 505 328 505 328 505 350 c 128,-1,235
 505 372 505 372 520 388 c 0,236,237
 529 396 529 396 540 400 c 1,238,-1
 540 400 l 1,239,240
 529 404 529 404 520 412 c 0,241,242
 505 428 505 428 505 450 c 128,-1,243
 505 472 505 472 520 486 c 0,244,245
 529 494 529 494 540 500 c 1,246,-1
 540 500 l 1,247,248
 529 504 529 504 520 512 c 0,249,250
 505 528 505 528 505 550 c 256,251,252
 505 572 505 572 520 586 c 0,253,254
 529 596 529 596 540 600 c 1,255,-1
 540 600 l 1,256,257
 529 604 529 604 520 612 c 0,258,259
 505 628 505 628 505 650 c 128,-1,260
 505 672 505 672 520 688 c 256,261,262
 535 702 535 702 557 702 c 0,263,264
 559.444444444 702.222222222 559.444444444 702.222222222 561.802469136 702.222222222 c 0,265,266
 580.666666667 702.222222222 580.666666667 702.222222222 594 688 c 256,267,268
 609 674 609 674 610 650 c 0,269,270
 610 628 610 628 594 612 c 0,271,272
 585 604 585 604 574 600 c 1,273,-1
 574 600 l 1,274,275
 585 596 585 596 594 586 c 0,276,277
 609 572 609 572 610 550 c 256,278,279
 610 528 610 528 594 512 c 0,280,281
 585 502 585 502 574 500 c 1,282,-1
 574 500 l 1,283,284
 585 496 585 496 594 486 c 0,285,286
 609 472 609 472 610 450 c 0,287,288
 610 428 610 428 594 412 c 0,289,290
 585 404 585 404 574 400 c 1,291,-1
 574 400 l 1,292,293
 585 396 585 396 594 388 c 0,294,295
 609 374 609 374 610 350 c 0,296,297
 610 328 610 328 594 312 c 0,298,299
 585 304 585 304 574 300 c 1,300,-1
 574 300 l 1,301,302
 585 296 585 296 594 288 c 0,303,304
 609 274 609 274 610 250 c 0,305,306
 610 228 610 228 594 212 c 0,307,308
 585 204 585 204 574 200 c 1,309,-1
 574 200 l 1,310,311
 585 196 585 196 594 188 c 0,312,313
 609 172 609 172 610 150 c 0,314,315
 610 130 610 130 594 114 c 0,316,317
 585 106 585 106 574 100 c 1,318,-1
 574 100 l 1,319,320
 585 96 585 96 594 88 c 0,321,322
 601 80 601 80 605 72 c 1,323,-1
 605 72 l 1,324,325
 609 80 609 80 615 88 c 0,326,327
 630 102 630 102 652 102 c 128,-1,328
 674 102 674 102 690 88 c 256,329,330
 705.058823529 71.937254902 705.058823529 71.937254902 705.058823529 47.4325259516 c 0,331,332
 705.058823529 27.0588235294 705.058823529 27.0588235294 690 12 c 0,333,334
 675 -2 675 -2 652 -2 c 0,335,336
 630 -2 630 -2 615 12 c 0,337,338
 609 18 609 18 605 26 c 1,339,-1
 605 26 l 1,340,341
 601 18 601 18 594 12 c 0,342,343
 579 -2 579 -2 557 -2 c 1,344,-1
 557 -2 l 1,207,208
EndSplineSet
EndChar

StartChar: two
Encoding: 50 50 18
Width: 1200
VWidth: 696
Flags: W
LayerCount: 2
Fore
SplineSet
204 26 m 1,0,1
 204 26 l 1,2,-1
 204 26 l 1,3,4
 204 26 l 1,5,-1
 204 26 l 1,0,1
605 26 m 1,6,7
 605 26 l 1,8,-1
 605 26 l 1,9,10
 605 26 l 1,11,-1
 605 26 l 1,6,7
52 -2 m 1,12,13
 30 -2 30 -2 15 12 c 0,14,15
 0 28 0 28 0 50 c 128,-1,16
 0 72 0 72 15 88 c 0,17,18
 30 102 30 102 52 102 c 128,-1,19
 74 102 74 102 90 88 c 256,20,21
 105 72 105 72 105 50 c 128,-1,22
 105 28 105 28 90 12 c 0,23,24
 74 -2 74 -2 52 -2 c 1,25,-1
 52 -2 l 1,12,13
557 -2 m 1,26,27
 535 -2 535 -2 520 12 c 0,28,29
 505 28 505 28 505 50 c 128,-1,30
 505 72 505 72 520 88 c 256,31,32
 535 102 535 102 557 102 c 128,-1,33
 579 102 579 102 594 88 c 0,34,35
 601 80 601 80 605 72 c 1,36,-1
 605 72 l 1,37,38
 609 80 609 80 615 88 c 0,39,40
 630 102 630 102 652 102 c 128,-1,41
 674 102 674 102 690 88 c 256,42,43
 705.058823529 71.937254902 705.058823529 71.937254902 705.058823529 47.4325259516 c 0,44,45
 705.058823529 27.0588235294 705.058823529 27.0588235294 690 12 c 0,46,47
 675 -2 675 -2 652 -2 c 0,48,49
 630 -2 630 -2 615 12 c 0,50,51
 609 18 609 18 605 26 c 1,52,53
 601 18 601 18 594 12 c 0,54,55
 579 -2 579 -2 557 -2 c 1,56,-1
 557 -2 l 1,26,27
757 -2 m 1,57,58
 735 -2 735 -2 720 12 c 0,59,60
 705 28 705 28 705 50 c 128,-1,61
 705 72 705 72 720 88 c 256,62,63
 735 102 735 102 757 102 c 0,64,65
 778 102 778 102 794 88 c 0,66,67
 801 80 801 80 805 72 c 1,68,-1
 805 72 l 1,69,70
 810 80 810 80 816 88 c 0,71,72
 831 102 831 102 853 102 c 128,-1,73
 875 102 875 102 890 88 c 256,74,75
 904.0625 73 904.0625 73 904.0625 52.7265625 c 0,76,77
 904.0625 28.0714285714 904.0625 28.0714285714 890 12 c 0,78,79
 875 -2 875 -2 853 -2 c 0,80,81
 832 -2 832 -2 816 12 c 0,82,83
 810 18 810 18 805 26 c 1,84,85
 800 18 800 18 794 12 c 0,86,87
 779 -2 779 -2 757 -2 c 1,88,-1
 757 -2 l 1,57,58
958 -2 m 1,89,90
 936 -2 936 -2 920 12 c 0,91,92
 905 28 905 28 904 50 c 0,93,94
 904 72 904 72 920 88 c 256,95,96
 935 102 935 102 958 102 c 0,97,98
 980 102 980 102 995 88 c 0,99,100
 1009.0625 73 1009.0625 73 1009.0625 52.7265625 c 0,101,102
 1009.0625 28.0714285714 1009.0625 28.0714285714 995 12 c 0,103,104
 980 -2 980 -2 958 -2 c 1,105,-1
 958 -2 l 1,89,90
158 -2 m 1,106,107
 136 -2 136 -2 120 12 c 0,108,109
 105 28 105 28 105 50 c 128,-1,110
 105 72 105 72 120 88 c 256,111,112
 136 102 136 102 158 102 c 128,-1,113
 180 102 180 102 195 88 c 0,114,115
 201 80 201 80 204 72 c 1,116,-1
 204 72 l 1,117,118
 208 80 208 80 215 88 c 0,119,120
 224 98 224 98 236 100 c 1,121,-1
 236 100 l 1,122,123
 224 104 224 104 215 114 c 0,124,125
 200 128 200 128 200 150 c 128,-1,126
 200 172 200 172 215 188 c 0,127,128
 228.333333333 202.222222222 228.333333333 202.222222222 247.197530864 202.222222222 c 0,129,130
 249.555555556 202.222222222 249.555555556 202.222222222 252 202 c 0,131,132
 274 202 274 202 290 188 c 256,133,134
 305 172 305 172 305 150 c 0,135,136
 305 130 305 130 290 114 c 0,137,138
 281 106 281 106 269 100 c 1,139,-1
 269 100 l 1,140,141
 280 96 280 96 290 88 c 0,142,143
 305 72 305 72 305 50 c 128,-1,144
 305 28 305 28 290 12 c 0,145,146
 275 -2 275 -2 252 -2 c 0,147,148
 230 -2 230 -2 215 12 c 0,149,150
 209 18 209 18 204 26 c 1,151,152
 200 18 200 18 195 12 c 0,153,154
 180 -2 180 -2 158 -2 c 1,155,-1
 158 -2 l 1,106,107
357 -2 m 1,156,157
 335 -2 335 -2 321 12 c 0,158,159
 306 28 306 28 305 50 c 0,160,161
 305 72 305 72 321 88 c 0,162,163
 330 98 330 98 341 100 c 1,164,-1
 341 100 l 1,165,166
 330 104 330 104 321 114 c 0,167,168
 306 128 306 128 305 150 c 0,169,170
 305 172 305 172 321 188 c 256,171,172
 334.333333333 202.222222222 334.333333333 202.222222222 352.407407407 202.222222222 c 0,173,174
 354.666666667 202.222222222 354.666666667 202.222222222 357 202 c 0,175,176
 379 202 379 202 394 188 c 256,177,178
 410 172 410 172 410 150 c 0,179,180
 410 130 410 130 394 114 c 0,181,182
 385 106 385 106 374 100 c 1,183,-1
 374 100 l 1,184,185
 385 96 385 96 394 88 c 0,186,187
 400 80 400 80 405 72 c 1,188,-1
 405 72 l 1,189,190
 409 80 409 80 415 88 c 0,191,192
 430 102 430 102 452 102 c 128,-1,193
 474 102 474 102 489 88 c 256,194,195
 504 72 504 72 505 50 c 0,196,197
 505 28 505 28 489 12 c 0,198,199
 474 -2 474 -2 452 -2 c 128,-1,200
 430 -2 430 -2 415 12 c 0,201,202
 408 18 408 18 405 26 c 1,203,-1
 405 26 l 1,204,205
 401 18 401 18 394 12 c 0,206,207
 379 -2 379 -2 357 -2 c 1,208,-1
 357 -2 l 1,156,157
452 198 m 1,209,210
 430 198 430 198 415 212 c 0,211,212
 400 228 400 228 400 250 c 128,-1,213
 400 272 400 272 415 288 c 256,214,215
 430 302 430 302 452 302 c 128,-1,216
 474 302 474 302 489 288 c 256,217,218
 504 274 504 274 505 250 c 0,219,220
 505 228 505 228 489 212 c 0,221,222
 474 198 474 198 452 198 c 1,223,-1
 452 198 l 1,209,210
557 198 m 1,224,225
 535 198 535 198 520 212 c 0,226,227
 505 228 505 228 505 250 c 128,-1,228
 505 272 505 272 520 288 c 256,229,230
 535 302 535 302 557 302 c 128,-1,231
 579 302 579 302 594 288 c 256,232,233
 609 274 609 274 610 250 c 0,234,235
 610 228 610 228 594 212 c 0,236,237
 579 198 579 198 557 198 c 1,238,-1
 557 198 l 1,224,225
652 298 m 1,239,240
 630 298 630 298 615 312 c 256,241,242
 600 328 600 328 600 350 c 128,-1,243
 600 372 600 372 615 388 c 0,244,245
 630 402 630 402 652 402 c 128,-1,246
 674 402 674 402 690 388 c 0,247,248
 705.058823529 373.945098039 705.058823529 373.945098039 705.058823529 347.432525952 c 0,249,250
 705.058823529 327.058823529 705.058823529 327.058823529 690 312 c 256,251,252
 675 298 675 298 652 298 c 1,253,-1
 652 298 l 1,239,240
757 298 m 1,254,255
 735 298 735 298 720 312 c 256,256,257
 705 328 705 328 705 350 c 128,-1,258
 705 372 705 372 720 388 c 0,259,260
 735 402 735 402 757 402 c 0,261,262
 778 402 778 402 794 388 c 0,263,264
 809 374 809 374 810 350 c 0,265,266
 810 328 810 328 794 312 c 256,267,268
 779 298 779 298 757 298 c 1,269,-1
 757 298 l 1,254,255
52 498 m 1,270,271
 30 498 30 498 15 512 c 0,272,273
 0 528 0 528 0 550 c 256,274,275
 0 572 0 572 15 586 c 128,-1,276
 30 600 30 600 52 602 c 0,277,278
 74 602 74 602 90 586 c 256,279,280
 105 572 105 572 105 550 c 256,281,282
 105 528 105 528 90 512 c 256,283,284
 74 498 74 498 52 498 c 1,285,-1
 52 498 l 1,270,271
158 498 m 1,286,287
 136 498 136 498 120 512 c 256,288,289
 105 528 105 528 105 550 c 256,290,291
 105 572 105 572 120 586 c 256,292,293
 136 600 136 600 158 602 c 0,294,295
 180 602 180 602 195 586 c 256,296,297
 210 572 210 572 210 550 c 256,298,299
 210 528 210 528 195 512 c 256,300,301
 180 498 180 498 158 498 c 1,302,-1
 158 498 l 1,286,287
853 398 m 1,303,304
 832 398 832 398 816 412 c 256,305,306
 801 428 801 428 800 450 c 0,307,308
 800 472 800 472 816 486 c 0,309,310
 825 494 825 494 836 500 c 1,311,-1
 836 500 l 1,312,313
 826 504 826 504 816 512 c 0,314,315
 801 528 801 528 800 550 c 256,316,317
 800 572 800 572 816 586 c 256,318,319
 831 600 831 600 853 602 c 0,320,321
 875 602 875 602 890 586 c 256,322,323
 904.0625 572.875 904.0625 572.875 904.0625 552.71875 c 0,324,325
 904.0625 528.071428571 904.0625 528.071428571 890 512 c 0,326,327
 881 502 881 502 869 500 c 1,328,-1
 869 500 l 1,329,330
 880 496 880 496 890 486 c 0,331,332
 904.0625 472.875 904.0625 472.875 904.0625 452.71875 c 0,333,334
 904.0625 428.071428571 904.0625 428.071428571 890 412 c 256,335,336
 875 398 875 398 853 398 c 1,337,-1
 853 398 l 1,303,304
958 398 m 1,338,339
 936 398 936 398 920 412 c 256,340,341
 905 428 905 428 904 450 c 0,342,343
 904 472 904 472 920 486 c 0,344,345
 929 494 929 494 941 500 c 1,346,-1
 941 500 l 1,347,348
 929 504 929 504 920 512 c 0,349,350
 905 528 905 528 904 550 c 256,351,352
 904 572 904 572 920 586 c 256,353,354
 935 600 935 600 958 602 c 0,355,356
 980 602 980 602 995 586 c 0,357,358
 1009.0625 572.875 1009.0625 572.875 1009.0625 552.71875 c 0,359,360
 1009.0625 528.071428571 1009.0625 528.071428571 995 512 c 0,361,362
 986 502 986 502 974 500 c 1,363,-1
 974 500 l 1,364,365
 986 496 986 496 995 486 c 0,366,367
 1009.0625 472.875 1009.0625 472.875 1009.0625 452.71875 c 0,368,369
 1009.0625 428.071428571 1009.0625 428.071428571 995 412 c 0,370,371
 980 398 980 398 958 398 c 1,372,-1
 958 398 l 1,338,339
405 626 m 1,373,-1
 405 626 l 1,374,-1
 405 626 l 1,375,-1
 405 626 l 1,376,-1
 405 626 l 1,373,-1
605 626 m 1,377,-1
 605 626 l 1,378,-1
 605 626 l 1,379,-1
 605 626 l 1,380,-1
 605 626 l 1,377,-1
252 598 m 1,381,382
 230 598 230 598 215 612 c 0,383,384
 200 628 200 628 200 650 c 128,-1,385
 200 672 200 672 215 688 c 0,386,387
 230 702 230 702 252 702 c 0,388,389
 254.444444444 702.222222222 254.444444444 702.222222222 256.814814815 702.222222222 c 0,390,391
 275.777777778 702.222222222 275.777777778 702.222222222 290 688 c 256,392,393
 305 674 305 674 305 650 c 0,394,395
 305 628 305 628 290 612 c 256,396,397
 275 598 275 598 252 598 c 1,398,-1
 252 598 l 1,381,382
357 598 m 1,399,400
 335 598 335 598 321 612 c 256,401,402
 306 628 306 628 305 650 c 0,403,404
 305 672 305 672 321 688 c 256,405,406
 336 702 336 702 357 702 c 0,407,408
 359.444444444 702.222222222 359.444444444 702.222222222 361.802469136 702.222222222 c 0,409,410
 380.666666667 702.222222222 380.666666667 702.222222222 394 688 c 0,411,412
 400 682 400 682 405 672 c 1,413,-1
 405 672 l 1,414,415
 409 682 409 682 415 688 c 0,416,417
 430 702 430 702 452 702 c 0,418,419
 454.444444444 702.222222222 454.444444444 702.222222222 456.802469136 702.222222222 c 0,420,421
 475.666666667 702.222222222 475.666666667 702.222222222 489 688 c 256,422,423
 504 674 504 674 505 650 c 0,424,425
 505 628 505 628 489 612 c 256,426,427
 474 598 474 598 452 598 c 128,-1,428
 430 598 430 598 415 612 c 0,429,430
 408 618 408 618 405 626 c 1,431,-1
 405 626 l 1,432,433
 401 618 401 618 394 612 c 0,434,435
 379 598 379 598 357 598 c 1,436,-1
 357 598 l 1,399,400
557 598 m 1,437,438
 535 598 535 598 520 612 c 256,439,440
 505 628 505 628 505 650 c 128,-1,441
 505 672 505 672 520 688 c 256,442,443
 535 702 535 702 557 702 c 0,444,445
 559.444444444 702.222222222 559.444444444 702.222222222 561.802469136 702.222222222 c 0,446,447
 580.666666667 702.222222222 580.666666667 702.222222222 594 688 c 0,448,449
 601 682 601 682 605 672 c 1,450,-1
 605 672 l 1,451,452
 609 682 609 682 615 688 c 0,453,454
 630 702 630 702 652 702 c 0,455,456
 654.444444444 702.222222222 654.444444444 702.222222222 656.814814815 702.222222222 c 0,457,458
 675.777777778 702.222222222 675.777777778 702.222222222 690 688 c 256,459,460
 705.058823529 673.945098039 705.058823529 673.945098039 705.058823529 647.432525952 c 0,461,462
 705.058823529 627.058823529 705.058823529 627.058823529 690 612 c 256,463,464
 675 598 675 598 652 598 c 0,465,466
 630 598 630 598 615 612 c 0,467,468
 609 618 609 618 605 626 c 1,469,470
 601 618 601 618 594 612 c 0,471,472
 579 598 579 598 557 598 c 1,473,-1
 557 598 l 1,437,438
757 598 m 1,474,475
 735 598 735 598 720 612 c 256,476,477
 705 628 705 628 705 650 c 128,-1,478
 705 672 705 672 720 688 c 256,479,480
 735 702 735 702 757 702 c 0,481,482
 759.333333333 702.222222222 759.333333333 702.222222222 761.604938272 702.222222222 c 0,483,484
 779.777777778 702.222222222 779.777777778 702.222222222 794 688 c 256,485,486
 809 674 809 674 810 650 c 0,487,488
 810 628 810 628 794 612 c 256,489,490
 779 598 779 598 757 598 c 1,491,-1
 757 598 l 1,474,475
EndSplineSet
EndChar

StartChar: three
Encoding: 51 51 19
Width: 1200
VWidth: 696
Flags: W
LayerCount: 2
Fore
SplineSet
405 26 m 1,0,1
 405 26 l 1,2,-1
 405 26 l 1,3,4
 405 26 l 1,5,-1
 405 26 l 1,0,1
252 -2 m 1,6,7
 230 -2 230 -2 215 12 c 0,8,9
 200 28 200 28 200 50 c 128,-1,10
 200 72 200 72 215 88 c 0,11,12
 230 102 230 102 252 102 c 128,-1,13
 274 102 274 102 290 88 c 256,14,15
 305 72 305 72 305 50 c 128,-1,16
 305 28 305 28 290 12 c 0,17,18
 275 -2 275 -2 252 -2 c 1,19,-1
 252 -2 l 1,6,7
357 -2 m 1,20,21
 335 -2 335 -2 321 12 c 0,22,23
 306 28 306 28 305 50 c 0,24,25
 305 72 305 72 321 88 c 256,26,27
 336 102 336 102 357 102 c 0,28,29
 379 102 379 102 394 88 c 0,30,31
 400 80 400 80 405 72 c 1,32,-1
 405 72 l 1,33,34
 409 80 409 80 415 88 c 0,35,36
 430 102 430 102 452 102 c 128,-1,37
 474 102 474 102 489 88 c 256,38,39
 504 72 504 72 505 50 c 0,40,41
 505 28 505 28 489 12 c 0,42,43
 474 -2 474 -2 452 -2 c 128,-1,44
 430 -2 430 -2 415 12 c 0,45,46
 408 18 408 18 405 26 c 1,47,48
 401 18 401 18 394 12 c 0,49,50
 379 -2 379 -2 357 -2 c 1,51,-1
 357 -2 l 1,20,21
557 -2 m 1,52,53
 535 -2 535 -2 520 12 c 0,54,55
 505 28 505 28 505 50 c 128,-1,56
 505 72 505 72 520 88 c 256,57,58
 535 102 535 102 557 102 c 128,-1,59
 579 102 579 102 594 88 c 0,60,61
 601 80 601 80 605 72 c 1,62,-1
 605 72 l 1,63,64
 609 80 609 80 615 88 c 0,65,66
 630 102 630 102 652 102 c 128,-1,67
 674 102 674 102 690 88 c 256,68,69
 705.058823529 71.937254902 705.058823529 71.937254902 705.058823529 47.4325259516 c 0,70,71
 705.058823529 27.0588235294 705.058823529 27.0588235294 690 12 c 0,72,73
 675 -2 675 -2 652 -2 c 0,74,75
 630 -2 630 -2 615 12 c 0,76,77
 609 18 609 18 605 26 c 1,78,-1
 605 26 l 1,79,80
 601 18 601 18 594 12 c 0,81,82
 579 -2 579 -2 557 -2 c 1,83,-1
 557 -2 l 1,52,53
757 -2 m 1,84,85
 735 -2 735 -2 720 12 c 0,86,87
 705 28 705 28 705 50 c 128,-1,88
 705 72 705 72 720 88 c 256,89,90
 735 102 735 102 757 102 c 0,91,92
 778 102 778 102 794 88 c 256,93,94
 809 72 809 72 810 50 c 0,95,96
 810 28 810 28 794 12 c 0,97,98
 779 -2 779 -2 757 -2 c 1,99,-1
 757 -2 l 1,84,85
52 98 m 1,100,101
 30 98 30 98 15 114 c 0,102,103
 0 128 0 128 0 150 c 128,-1,104
 0 172 0 172 15 188 c 0,105,106
 28.3333333333 202.222222222 28.3333333333 202.222222222 47.1975308642 202.222222222 c 0,107,108
 49.5555555556 202.222222222 49.5555555556 202.222222222 52 202 c 0,109,110
 74 202 74 202 90 188 c 256,111,112
 105 172 105 172 105 150 c 0,113,114
 105 130 105 130 90 114 c 256,115,116
 74 100 74 100 52 98 c 1,117,-1
 52 98 l 1,100,101
158 98 m 1,118,119
 136 98 136 98 120 114 c 256,120,121
 105 128 105 128 105 150 c 128,-1,122
 105 172 105 172 120 188 c 256,123,124
 134.222222222 202.222222222 134.222222222 202.222222222 153.185185185 202.222222222 c 0,125,126
 155.555555556 202.222222222 155.555555556 202.222222222 158 202 c 0,127,128
 180 202 180 202 195 188 c 256,129,130
 210 172 210 172 210 150 c 0,131,132
 210 130 210 130 195 114 c 256,133,134
 180 100 180 100 158 98 c 1,135,-1
 158 98 l 1,118,119
853 98 m 1,136,137
 832 98 832 98 816 114 c 256,138,139
 801 128 801 128 800 150 c 0,140,141
 800 172 800 172 816 188 c 0,142,143
 825 198 825 198 836 200 c 1,144,-1
 836 200 l 1,145,146
 826 204 826 204 816 212 c 0,147,148
 801 228 801 228 800 250 c 0,149,150
 800 272 800 272 816 288 c 256,151,152
 831 302 831 302 853 302 c 128,-1,153
 875 302 875 302 890 288 c 256,154,155
 904.0625 274.875 904.0625 274.875 904.0625 252.9609375 c 0,156,157
 904.0625 228.071428571 904.0625 228.071428571 890 212 c 0,158,159
 881 204 881 204 869 200 c 1,160,-1
 869 200 l 1,161,162
 880 196 880 196 890 188 c 0,163,164
 904.0625 173 904.0625 173 904.0625 152.7265625 c 0,165,166
 904.0625 130.071428571 904.0625 130.071428571 890 114 c 256,167,168
 875 100 875 100 853 98 c 1,169,-1
 853 98 l 1,136,137
958 98 m 1,170,171
 936 98 936 98 920 114 c 256,172,173
 905 128 905 128 904 150 c 0,174,175
 904 172 904 172 920 188 c 0,176,177
 929 198 929 198 941 200 c 1,178,-1
 941 200 l 1,179,180
 929 204 929 204 920 212 c 0,181,182
 905 228 905 228 904 250 c 0,183,184
 904 272 904 272 920 288 c 256,185,186
 935 302 935 302 958 302 c 0,187,188
 980 302 980 302 995 288 c 0,189,190
 1009.0625 274.875 1009.0625 274.875 1009.0625 252.9609375 c 0,191,192
 1009.0625 228.071428571 1009.0625 228.071428571 995 212 c 0,193,194
 986 204 986 204 974 200 c 1,195,-1
 974 200 l 1,196,197
 986 196 986 196 995 188 c 0,198,199
 1009.0625 173 1009.0625 173 1009.0625 152.7265625 c 0,200,201
 1009.0625 130.071428571 1009.0625 130.071428571 995 114 c 0,202,203
 980 100 980 100 958 98 c 1,204,-1
 958 98 l 1,170,171
652 298 m 1,205,206
 630 298 630 298 615 312 c 256,207,208
 600 328 600 328 600 350 c 128,-1,209
 600 372 600 372 615 388 c 0,210,211
 630 402 630 402 652 402 c 128,-1,212
 674 402 674 402 690 388 c 0,213,214
 705.058823529 373.945098039 705.058823529 373.945098039 705.058823529 347.432525952 c 0,215,216
 705.058823529 327.058823529 705.058823529 327.058823529 690 312 c 256,217,218
 675 298 675 298 652 298 c 1,219,-1
 652 298 l 1,205,206
757 298 m 1,220,221
 735 298 735 298 720 312 c 256,222,223
 705 328 705 328 705 350 c 128,-1,224
 705 372 705 372 720 388 c 0,225,226
 735 402 735 402 757 402 c 0,227,228
 778 402 778 402 794 388 c 0,229,230
 809 374 809 374 810 350 c 0,231,232
 810 328 810 328 794 312 c 256,233,234
 779 298 779 298 757 298 c 1,235,-1
 757 298 l 1,220,221
452 398 m 1,236,237
 430 398 430 398 415 412 c 256,238,239
 400 428 400 428 400 450 c 128,-1,240
 400 472 400 472 415 486 c 256,241,242
 430 500 430 500 452 502 c 0,243,244
 474 502 474 502 489 486 c 256,245,246
 504 472 504 472 505 450 c 0,247,248
 505 428 505 428 489 412 c 256,249,250
 474 398 474 398 452 398 c 1,251,-1
 452 398 l 1,236,237
557 398 m 1,252,253
 535 398 535 398 520 412 c 256,254,255
 505 428 505 428 505 450 c 128,-1,256
 505 472 505 472 520 486 c 256,257,258
 535 500 535 500 557 502 c 0,259,260
 579 502 579 502 594 486 c 256,261,262
 609 472 609 472 610 450 c 0,263,264
 610 428 610 428 594 412 c 256,265,266
 579 398 579 398 557 398 c 1,267,-1
 557 398 l 1,252,253
204 626 m 1,268,-1
 204 626 l 1,269,-1
 204 626 l 1,270,-1
 204 626 l 1,271,-1
 204 626 l 1,268,-1
405 626 m 1,272,-1
 405 626 l 1,273,-1
 405 626 l 1,274,-1
 405 626 l 1,275,-1
 405 626 l 1,272,-1
805 626 m 1,276,-1
 805 626 l 1,277,-1
 805 626 l 1,278,-1
 805 626 l 1,279,-1
 805 626 l 1,276,-1
52 598 m 1,280,281
 30 598 30 598 15 612 c 0,282,283
 0 628 0 628 0 650 c 128,-1,284
 0 672 0 672 15 688 c 0,285,286
 30 702 30 702 52 702 c 0,287,288
 54.4444444444 702.222222222 54.4444444444 702.222222222 56.8148148148 702.222222222 c 0,289,290
 75.7777777778 702.222222222 75.7777777778 702.222222222 90 688 c 256,291,292
 105 674 105 674 105 650 c 0,293,294
 105 628 105 628 90 612 c 256,295,296
 74 598 74 598 52 598 c 1,297,-1
 52 598 l 1,280,281
158 598 m 1,298,299
 136 598 136 598 120 612 c 256,300,301
 105 628 105 628 105 650 c 128,-1,302
 105 672 105 672 120 688 c 256,303,304
 136 702 136 702 158 702 c 0,305,306
 160.444444444 702.222222222 160.444444444 702.222222222 162.802469136 702.222222222 c 0,307,308
 181.666666667 702.222222222 181.666666667 702.222222222 195 688 c 0,309,310
 201 682 201 682 204 672 c 1,311,-1
 204 672 l 1,312,313
 208 682 208 682 215 688 c 0,314,315
 230 702 230 702 252 702 c 0,316,317
 254.444444444 702.222222222 254.444444444 702.222222222 256.814814815 702.222222222 c 0,318,319
 275.777777778 702.222222222 275.777777778 702.222222222 290 688 c 256,320,321
 305 674 305 674 305 650 c 0,322,323
 305 628 305 628 290 612 c 256,324,325
 275 598 275 598 252 598 c 0,326,327
 230 598 230 598 215 612 c 0,328,329
 209 618 209 618 204 626 c 1,330,331
 200 618 200 618 195 612 c 0,332,333
 180 598 180 598 158 598 c 1,334,-1
 158 598 l 1,298,299
357 598 m 1,335,336
 335 598 335 598 321 612 c 256,337,338
 306 628 306 628 305 650 c 0,339,340
 305 672 305 672 321 688 c 256,341,342
 336 702 336 702 357 702 c 0,343,344
 359.444444444 702.222222222 359.444444444 702.222222222 361.802469136 702.222222222 c 0,345,346
 380.666666667 702.222222222 380.666666667 702.222222222 394 688 c 0,347,348
 400 682 400 682 405 672 c 1,349,-1
 405 672 l 1,350,351
 409 682 409 682 415 688 c 0,352,353
 430 702 430 702 452 702 c 0,354,355
 454.444444444 702.222222222 454.444444444 702.222222222 456.802469136 702.222222222 c 0,356,357
 475.666666667 702.222222222 475.666666667 702.222222222 489 688 c 256,358,359
 504 674 504 674 505 650 c 0,360,361
 505 628 505 628 489 612 c 256,362,363
 474 598 474 598 452 598 c 128,-1,364
 430 598 430 598 415 612 c 0,365,366
 408 618 408 618 405 626 c 1,367,-1
 405 626 l 1,368,369
 401 618 401 618 394 612 c 0,370,371
 379 598 379 598 357 598 c 1,372,-1
 357 598 l 1,335,336
652 498 m 1,373,374
 630 498 630 498 615 512 c 256,375,376
 600 528 600 528 600 550 c 256,377,378
 600 572 600 572 615 586 c 0,379,380
 624 596 624 596 636 600 c 1,381,-1
 636 600 l 1,382,383
 625 604 625 604 615 612 c 0,384,385
 609 618 609 618 605 626 c 1,386,387
 601 618 601 618 594 612 c 0,388,389
 579 598 579 598 557 598 c 128,-1,390
 535 598 535 598 520 612 c 256,391,392
 505 628 505 628 505 650 c 128,-1,393
 505 672 505 672 520 688 c 256,394,395
 535 702 535 702 557 702 c 0,396,397
 559.444444444 702.222222222 559.444444444 702.222222222 561.802469136 702.222222222 c 0,398,399
 580.666666667 702.222222222 580.666666667 702.222222222 594 688 c 0,400,401
 601 682 601 682 605 672 c 1,402,-1
 605 672 l 1,403,404
 609 682 609 682 615 688 c 0,405,406
 630 702 630 702 652 702 c 0,407,408
 654.444444444 702.222222222 654.444444444 702.222222222 656.814814815 702.222222222 c 0,409,410
 675.777777778 702.222222222 675.777777778 702.222222222 690 688 c 256,411,412
 705.058823529 673.945098039 705.058823529 673.945098039 705.058823529 647.432525952 c 0,413,414
 705.058823529 627.058823529 705.058823529 627.058823529 690 612 c 0,415,416
 681 604 681 604 669 600 c 1,417,-1
 669 600 l 1,418,419
 680 596 680 596 690 586 c 0,420,421
 705.058823529 571.945098039 705.058823529 571.945098039 705.058823529 547.432525952 c 0,422,423
 705.058823529 527.058823529 705.058823529 527.058823529 690 512 c 256,424,425
 675 498 675 498 652 498 c 1,426,-1
 652 498 l 1,373,374
757 498 m 1,427,428
 735 498 735 498 720 512 c 256,429,430
 705 528 705 528 705 550 c 256,431,432
 705 572 705 572 720 586 c 0,433,434
 729 596 729 596 741 600 c 1,435,-1
 741 600 l 1,436,437
 730 604 730 604 720 612 c 0,438,439
 705 628 705 628 705 650 c 128,-1,440
 705 672 705 672 720 688 c 256,441,442
 735 702 735 702 757 702 c 0,443,444
 759.333333333 702.222222222 759.333333333 702.222222222 761.604938272 702.222222222 c 0,445,446
 779.777777778 702.222222222 779.777777778 702.222222222 794 688 c 0,447,448
 801 682 801 682 805 672 c 1,449,-1
 805 672 l 1,450,451
 810 682 810 682 816 688 c 0,452,453
 831 702 831 702 853 702 c 0,454,455
 855.444444444 702.222222222 855.444444444 702.222222222 857.802469136 702.222222222 c 0,456,457
 876.666666667 702.222222222 876.666666667 702.222222222 890 688 c 256,458,459
 904.0625 674.875 904.0625 674.875 904.0625 652.9609375 c 0,460,461
 904.0625 628.071428571 904.0625 628.071428571 890 612 c 256,462,463
 875 598 875 598 853 598 c 0,464,465
 832 598 832 598 816 612 c 0,466,467
 810 618 810 618 805 626 c 1,468,-1
 805 626 l 1,469,470
 800 618 800 618 794 612 c 0,471,472
 786 604 786 604 774 600 c 1,473,-1
 774 600 l 1,474,475
 786 596 786 596 794 586 c 0,476,477
 809 572 809 572 810 550 c 256,478,479
 810 528 810 528 794 512 c 256,480,481
 779 498 779 498 757 498 c 1,482,-1
 757 498 l 1,427,428
958 598 m 1,483,484
 936 598 936 598 920 612 c 256,485,486
 905 628 905 628 904 650 c 0,487,488
 904 672 904 672 920 688 c 256,489,490
 935 702 935 702 958 702 c 0,491,492
 960.444444444 702.222222222 960.444444444 702.222222222 962.802469136 702.222222222 c 0,493,494
 981.666666667 702.222222222 981.666666667 702.222222222 995 688 c 0,495,496
 1009.0625 674.875 1009.0625 674.875 1009.0625 652.9609375 c 0,497,498
 1009.0625 628.071428571 1009.0625 628.071428571 995 612 c 0,499,500
 980 598 980 598 958 598 c 1,501,-1
 958 598 l 1,483,484
EndSplineSet
EndChar

StartChar: four
Encoding: 52 52 20
Width: 1200
VWidth: 696
Flags: W
LayerCount: 2
Fore
SplineSet
204 228 m 1,0,1
 204 228 l 1,2,-1
 204 228 l 1,3,4
 204 228 l 1,5,-1
 204 228 l 1,0,1
605 228 m 1,6,7
 605 228 l 1,8,-1
 605 228 l 1,9,10
 605 228 l 1,11,-1
 605 228 l 1,6,7
357 198 m 1,12,13
 335 198 335 198 321 212 c 0,14,15
 306 228 306 228 305 250 c 0,16,17
 305 272 305 272 321 288 c 256,18,19
 336 302 336 302 357 302 c 0,20,21
 379 302 379 302 394 288 c 0,22,23
 400 282 400 282 405 272 c 1,24,-1
 405 272 l 1,25,26
 409 280 409 280 415 288 c 0,27,28
 430 302 430 302 452 302 c 128,-1,29
 474 302 474 302 489 288 c 256,30,31
 504 274 504 274 505 250 c 0,32,33
 505 228 505 228 489 212 c 0,34,35
 474 198 474 198 452 198 c 128,-1,36
 430 198 430 198 415 212 c 0,37,38
 408 220 408 220 405 228 c 1,39,40
 401 220 401 220 394 212 c 0,41,42
 379 198 379 198 357 198 c 1,43,-1
 357 198 l 1,12,13
958 198 m 1,44,45
 936 198 936 198 920 212 c 0,46,47
 905 228 905 228 904 250 c 0,48,49
 904 272 904 272 920 288 c 256,50,51
 935 302 935 302 958 302 c 0,52,53
 980 302 980 302 995 288 c 0,54,55
 1009.0625 274.875 1009.0625 274.875 1009.0625 252.9609375 c 0,56,57
 1009.0625 228.071428571 1009.0625 228.071428571 995 212 c 0,58,59
 980 198 980 198 958 198 c 1,60,-1
 958 198 l 1,44,45
52 198 m 1,61,62
 30 198 30 198 15 212 c 0,63,64
 0 228 0 228 0 250 c 128,-1,65
 0 272 0 272 15 288 c 0,66,67
 24 298 24 298 36 300 c 1,68,-1
 36 300 l 1,69,70
 24 304 24 304 15 312 c 0,71,72
 0 328 0 328 0 350 c 128,-1,73
 0 372 0 372 15 388 c 0,74,75
 30 402 30 402 52 402 c 128,-1,76
 74 402 74 402 90 388 c 0,77,78
 105 374 105 374 105 350 c 0,79,80
 105 328 105 328 90 312 c 0,81,82
 81 304 81 304 69 300 c 1,83,-1
 69 300 l 1,84,85
 81 296 81 296 90 288 c 0,86,87
 105 274 105 274 105 250 c 0,88,89
 105 228 105 228 90 212 c 0,90,91
 74 198 74 198 52 198 c 1,92,-1
 52 198 l 1,61,62
158 198 m 1,93,94
 136 198 136 198 120 212 c 0,95,96
 105 228 105 228 105 250 c 128,-1,97
 105 272 105 272 120 288 c 0,98,99
 129 298 129 298 141 300 c 1,100,-1
 141 300 l 1,101,102
 129 304 129 304 120 312 c 0,103,104
 105 328 105 328 105 350 c 128,-1,105
 105 372 105 372 120 388 c 0,106,107
 136 402 136 402 158 402 c 128,-1,108
 180 402 180 402 195 388 c 128,-1,109
 210 374 210 374 210 350 c 0,110,111
 210 328 210 328 195 312 c 0,112,113
 186 304 186 304 174 300 c 1,114,-1
 174 300 l 1,115,116
 185 296 185 296 195 288 c 0,117,118
 201 282 201 282 204 272 c 1,119,-1
 204 272 l 1,120,121
 208 280 208 280 215 288 c 0,122,123
 230 302 230 302 252 302 c 128,-1,124
 274 302 274 302 290 288 c 256,125,126
 305 274 305 274 305 250 c 0,127,128
 305 228 305 228 290 212 c 0,129,130
 275 198 275 198 252 198 c 0,131,132
 230 198 230 198 215 212 c 0,133,134
 209 220 209 220 204 228 c 1,135,136
 200 220 200 220 195 212 c 0,137,138
 180 198 180 198 158 198 c 1,139,-1
 158 198 l 1,93,94
252 398 m 1,140,141
 230 398 230 398 215 412 c 0,142,143
 200 428 200 428 200 450 c 128,-1,144
 200 472 200 472 215 486 c 128,-1,145
 230 500 230 500 252 502 c 0,146,147
 274 502 274 502 290 486 c 256,148,149
 305 472 305 472 305 450 c 128,-1,150
 305 428 305 428 290 412 c 256,151,152
 275 398 275 398 252 398 c 1,153,-1
 252 398 l 1,140,141
357 398 m 1,154,155
 335 398 335 398 321 412 c 256,156,157
 306 428 306 428 305 450 c 0,158,159
 305 472 305 472 321 486 c 256,160,161
 336 500 336 500 357 502 c 0,162,163
 379 502 379 502 394 486 c 256,164,165
 410 472 410 472 410 450 c 128,-1,166
 410 428 410 428 394 412 c 256,167,168
 379 398 379 398 357 398 c 1,169,-1
 357 398 l 1,154,155
605 526 m 1,170,-1
 605 526 l 1,171,-1
 605 526 l 1,172,-1
 605 526 l 1,173,-1
 605 526 l 1,170,-1
452 498 m 1,174,175
 430 498 430 498 415 512 c 256,176,177
 400 528 400 528 400 550 c 256,178,179
 400 572 400 572 415 586 c 256,180,181
 430 600 430 600 452 602 c 0,182,183
 474 602 474 602 489 586 c 256,184,185
 504 572 504 572 505 550 c 256,186,187
 505 528 505 528 489 512 c 256,188,189
 474 498 474 498 452 498 c 1,190,-1
 452 498 l 1,174,175
652 -2 m 1,191,192
 630 -2 630 -2 615 12 c 0,193,194
 600 28 600 28 600 50 c 128,-1,195
 600 72 600 72 615 88 c 0,196,197
 624 98 624 98 636 100 c 1,198,-1
 636 100 l 1,199,200
 625 104 625 104 615 114 c 0,201,202
 600 128 600 128 600 150 c 128,-1,203
 600 172 600 172 615 188 c 0,204,205
 624 198 624 198 636 200 c 1,206,-1
 636 200 l 1,207,208
 625 204 625 204 615 212 c 0,209,210
 609 220 609 220 605 228 c 1,211,-1
 605 228 l 1,212,213
 601 220 601 220 594 212 c 0,214,215
 579 198 579 198 557 198 c 128,-1,216
 535 198 535 198 520 212 c 0,217,218
 505 228 505 228 505 250 c 128,-1,219
 505 272 505 272 520 288 c 256,220,221
 535 302 535 302 557 302 c 128,-1,222
 579 302 579 302 594 288 c 0,223,224
 601 282 601 282 605 272 c 1,225,-1
 605 272 l 1,226,227
 609 280 609 280 615 288 c 0,228,229
 624 298 624 298 636 300 c 1,230,-1
 636 300 l 1,231,232
 625 304 625 304 615 312 c 0,233,234
 600 328 600 328 600 350 c 128,-1,235
 600 372 600 372 615 388 c 0,236,237
 624 396 624 396 636 400 c 1,238,-1
 636 400 l 1,239,240
 625 404 625 404 615 412 c 0,241,242
 600 428 600 428 600 450 c 128,-1,243
 600 472 600 472 615 486 c 0,244,245
 624 494 624 494 636 500 c 1,246,-1
 636 500 l 1,247,248
 625 504 625 504 615 512 c 0,249,250
 609 518 609 518 605 526 c 1,251,-1
 605 526 l 1,252,253
 601 518 601 518 594 512 c 0,254,255
 579 498 579 498 557 498 c 128,-1,256
 535 498 535 498 520 512 c 256,257,258
 505 528 505 528 505 550 c 256,259,260
 505 572 505 572 520 586 c 256,261,262
 535 600 535 600 557 602 c 0,263,264
 579 602 579 602 594 586 c 0,265,266
 601 578 601 578 605 572 c 1,267,-1
 605 572 l 1,268,269
 609 580 609 580 615 586 c 0,270,271
 624 596 624 596 636 600 c 1,272,-1
 636 600 l 1,273,274
 625 604 625 604 615 612 c 0,275,276
 600 628 600 628 600 650 c 128,-1,277
 600 672 600 672 615 688 c 256,278,279
 630 702 630 702 652 702 c 0,280,281
 654.444444444 702.222222222 654.444444444 702.222222222 656.814814815 702.222222222 c 0,282,283
 675.777777778 702.222222222 675.777777778 702.222222222 690 688 c 256,284,285
 705.058823529 673.945098039 705.058823529 673.945098039 705.058823529 647.432525952 c 0,286,287
 705.058823529 627.058823529 705.058823529 627.058823529 690 612 c 0,288,289
 681 604 681 604 669 600 c 1,290,-1
 669 600 l 1,291,292
 680 596 680 596 690 586 c 0,293,294
 705.058823529 571.945098039 705.058823529 571.945098039 705.058823529 547.432525952 c 0,295,296
 705.058823529 527.058823529 705.058823529 527.058823529 690 512 c 0,297,298
 681 502 681 502 669 500 c 1,299,-1
 669 500 l 1,300,301
 680 496 680 496 690 486 c 0,302,303
 705.058823529 471.945098039 705.058823529 471.945098039 705.058823529 447.432525952 c 0,304,305
 705.058823529 427.058823529 705.058823529 427.058823529 690 412 c 0,306,307
 681 404 681 404 669 400 c 1,308,-1
 669 400 l 1,309,310
 680 396 680 396 690 388 c 0,311,312
 705.058823529 373.945098039 705.058823529 373.945098039 705.058823529 347.432525952 c 0,313,314
 705.058823529 327.058823529 705.058823529 327.058823529 690 312 c 0,315,316
 681 304 681 304 669 300 c 1,317,-1
 669 300 l 1,318,319
 680 296 680 296 690 288 c 0,320,321
 705.058823529 273.945098039 705.058823529 273.945098039 705.058823529 247.432525952 c 0,322,323
 705.058823529 227.058823529 705.058823529 227.058823529 690 212 c 0,324,325
 681 204 681 204 669 200 c 1,326,-1
 669 200 l 1,327,328
 680 196 680 196 690 188 c 0,329,330
 705.058823529 171.937254902 705.058823529 171.937254902 705.058823529 147.660899654 c 0,331,332
 705.058823529 129.058823529 705.058823529 129.058823529 690 114 c 0,333,334
 681 106 681 106 669 100 c 1,335,-1
 669 100 l 1,336,337
 680 96 680 96 690 88 c 0,338,339
 705.058823529 71.937254902 705.058823529 71.937254902 705.058823529 47.4325259516 c 0,340,341
 705.058823529 27.0588235294 705.058823529 27.0588235294 690 12 c 0,342,343
 675 -2 675 -2 652 -2 c 1,344,-1
 652 -2 l 1,191,192
757 -2 m 1,345,346
 735 -2 735 -2 720 12 c 0,347,348
 705 28 705 28 705 50 c 128,-1,349
 705 72 705 72 720 88 c 0,350,351
 729 98 729 98 741 100 c 1,352,-1
 741 100 l 1,353,354
 730 104 730 104 720 114 c 0,355,356
 705 128 705 128 705 150 c 128,-1,357
 705 172 705 172 720 188 c 0,358,359
 729 198 729 198 741 200 c 1,360,-1
 741 200 l 1,361,362
 730 204 730 204 720 212 c 0,363,364
 705 228 705 228 705 250 c 128,-1,365
 705 272 705 272 720 288 c 0,366,367
 729 298 729 298 741 300 c 1,368,-1
 741 300 l 1,369,370
 730 304 730 304 720 312 c 0,371,372
 705 328 705 328 705 350 c 128,-1,373
 705 372 705 372 720 388 c 0,374,375
 729 396 729 396 741 400 c 1,376,-1
 741 400 l 1,377,378
 730 404 730 404 720 412 c 0,379,380
 705 428 705 428 705 450 c 128,-1,381
 705 472 705 472 720 486 c 0,382,383
 729 494 729 494 741 500 c 1,384,-1
 741 500 l 1,385,386
 730 504 730 504 720 512 c 0,387,388
 705 528 705 528 705 550 c 256,389,390
 705 572 705 572 720 586 c 0,391,392
 729 596 729 596 741 600 c 1,393,-1
 741 600 l 1,394,395
 730 604 730 604 720 612 c 0,396,397
 705 628 705 628 705 650 c 128,-1,398
 705 672 705 672 720 688 c 256,399,400
 735 702 735 702 757 702 c 0,401,402
 759.333333333 702.222222222 759.333333333 702.222222222 761.604938272 702.222222222 c 0,403,404
 779.777777778 702.222222222 779.777777778 702.222222222 794 688 c 256,405,406
 809 674 809 674 810 650 c 0,407,408
 810 628 810 628 794 612 c 0,409,410
 786 604 786 604 774 600 c 1,411,-1
 774 600 l 1,412,413
 786 596 786 596 794 586 c 0,414,415
 809 572 809 572 810 550 c 256,416,417
 810 528 810 528 794 512 c 0,418,419
 786 502 786 502 774 500 c 1,420,-1
 774 500 l 1,421,422
 786 496 786 496 794 486 c 0,423,424
 809 472 809 472 810 450 c 0,425,426
 810 428 810 428 794 412 c 0,427,428
 786 404 786 404 774 400 c 1,429,-1
 774 400 l 1,430,431
 786 396 786 396 794 388 c 0,432,433
 809 374 809 374 810 350 c 0,434,435
 810 328 810 328 794 312 c 0,436,437
 786 304 786 304 774 300 c 1,438,-1
 774 300 l 1,439,440
 786 296 786 296 794 288 c 0,441,442
 801 282 801 282 805 272 c 1,443,-1
 805 272 l 1,444,445
 810 280 810 280 816 288 c 0,446,447
 831 302 831 302 853 302 c 128,-1,448
 875 302 875 302 890 288 c 256,449,450
 904.0625 274.875 904.0625 274.875 904.0625 252.9609375 c 0,451,452
 904.0625 228.071428571 904.0625 228.071428571 890 212 c 0,453,454
 875 198 875 198 853 198 c 0,455,456
 832 198 832 198 816 212 c 0,457,458
 810 220 810 220 805 228 c 1,459,-1
 805 228 l 1,460,461
 800 220 800 220 794 212 c 0,462,463
 786 204 786 204 774 200 c 1,464,-1
 774 200 l 1,465,466
 786 196 786 196 794 188 c 0,467,468
 809 172 809 172 810 150 c 0,469,470
 810 130 810 130 794 114 c 0,471,472
 786 106 786 106 774 100 c 1,473,-1
 774 100 l 1,474,475
 786 96 786 96 794 88 c 0,476,477
 809 72 809 72 810 50 c 0,478,479
 810 28 810 28 794 12 c 0,480,481
 779 -2 779 -2 757 -2 c 1,482,-1
 757 -2 l 1,345,346
EndSplineSet
EndChar

StartChar: five
Encoding: 53 53 21
Width: 1200
VWidth: 696
Flags: W
LayerCount: 2
Fore
SplineSet
405 26 m 1,0,1
 405 26 l 1,2,-1
 405 26 l 1,3,4
 405 26 l 1,5,-1
 405 26 l 1,0,1
252 -2 m 1,6,7
 230 -2 230 -2 215 12 c 0,8,9
 200 28 200 28 200 50 c 128,-1,10
 200 72 200 72 215 88 c 0,11,12
 230 102 230 102 252 102 c 128,-1,13
 274 102 274 102 290 88 c 256,14,15
 305 72 305 72 305 50 c 128,-1,16
 305 28 305 28 290 12 c 0,17,18
 275 -2 275 -2 252 -2 c 1,19,-1
 252 -2 l 1,6,7
357 -2 m 1,20,21
 335 -2 335 -2 321 12 c 0,22,23
 306 28 306 28 305 50 c 0,24,25
 305 72 305 72 321 88 c 256,26,27
 336 102 336 102 357 102 c 0,28,29
 379 102 379 102 394 88 c 0,30,31
 400 80 400 80 405 72 c 1,32,-1
 405 72 l 1,33,34
 409 80 409 80 415 88 c 0,35,36
 430 102 430 102 452 102 c 128,-1,37
 474 102 474 102 489 88 c 256,38,39
 504 72 504 72 505 50 c 0,40,41
 505 28 505 28 489 12 c 0,42,43
 474 -2 474 -2 452 -2 c 128,-1,44
 430 -2 430 -2 415 12 c 0,45,46
 408 18 408 18 405 26 c 1,47,48
 401 18 401 18 394 12 c 0,49,50
 379 -2 379 -2 357 -2 c 1,51,-1
 357 -2 l 1,20,21
557 -2 m 1,52,53
 535 -2 535 -2 520 12 c 0,54,55
 505 28 505 28 505 50 c 128,-1,56
 505 72 505 72 520 88 c 256,57,58
 535 102 535 102 557 102 c 128,-1,59
 579 102 579 102 594 88 c 0,60,61
 601 80 601 80 605 72 c 1,62,-1
 605 72 l 1,63,64
 609 80 609 80 615 88 c 0,65,66
 630 102 630 102 652 102 c 128,-1,67
 674 102 674 102 690 88 c 256,68,69
 705.058823529 71.937254902 705.058823529 71.937254902 705.058823529 47.4325259516 c 0,70,71
 705.058823529 27.0588235294 705.058823529 27.0588235294 690 12 c 0,72,73
 675 -2 675 -2 652 -2 c 0,74,75
 630 -2 630 -2 615 12 c 0,76,77
 609 18 609 18 605 26 c 1,78,-1
 605 26 l 1,79,80
 601 18 601 18 594 12 c 0,81,82
 579 -2 579 -2 557 -2 c 1,83,-1
 557 -2 l 1,52,53
757 -2 m 1,84,85
 735 -2 735 -2 720 12 c 0,86,87
 705 28 705 28 705 50 c 128,-1,88
 705 72 705 72 720 88 c 256,89,90
 735 102 735 102 757 102 c 0,91,92
 778 102 778 102 794 88 c 256,93,94
 809 72 809 72 810 50 c 0,95,96
 810 28 810 28 794 12 c 0,97,98
 779 -2 779 -2 757 -2 c 1,99,-1
 757 -2 l 1,84,85
52 98 m 1,100,101
 30 98 30 98 15 114 c 0,102,103
 0 128 0 128 0 150 c 128,-1,104
 0 172 0 172 15 188 c 0,105,106
 28.3333333333 202.222222222 28.3333333333 202.222222222 47.1975308642 202.222222222 c 0,107,108
 49.5555555556 202.222222222 49.5555555556 202.222222222 52 202 c 0,109,110
 74 202 74 202 90 188 c 256,111,112
 105 172 105 172 105 150 c 0,113,114
 105 130 105 130 90 114 c 256,115,116
 74 100 74 100 52 98 c 1,117,-1
 52 98 l 1,100,101
158 98 m 1,118,119
 136 98 136 98 120 114 c 256,120,121
 105 128 105 128 105 150 c 128,-1,122
 105 172 105 172 120 188 c 256,123,124
 134.222222222 202.222222222 134.222222222 202.222222222 153.185185185 202.222222222 c 0,125,126
 155.555555556 202.222222222 155.555555556 202.222222222 158 202 c 0,127,128
 180 202 180 202 195 188 c 256,129,130
 210 172 210 172 210 150 c 0,131,132
 210 130 210 130 195 114 c 256,133,134
 180 100 180 100 158 98 c 1,135,-1
 158 98 l 1,118,119
853 98 m 1,136,137
 832 98 832 98 816 114 c 256,138,139
 801 128 801 128 800 150 c 0,140,141
 800 172 800 172 816 188 c 0,142,143
 825 198 825 198 836 200 c 1,144,-1
 836 200 l 1,145,146
 826 204 826 204 816 212 c 0,147,148
 801 228 801 228 800 250 c 0,149,150
 800 272 800 272 816 288 c 0,151,152
 825 298 825 298 836 300 c 1,153,-1
 836 300 l 1,154,155
 826 304 826 304 816 312 c 0,156,157
 801 328 801 328 800 350 c 0,158,159
 800 372 800 372 816 388 c 0,160,161
 831 402 831 402 853 402 c 128,-1,162
 875 402 875 402 890 388 c 0,163,164
 904.0625 374.875 904.0625 374.875 904.0625 352.9609375 c 0,165,166
 904.0625 328.071428571 904.0625 328.071428571 890 312 c 0,167,168
 881 304 881 304 869 300 c 1,169,-1
 869 300 l 1,170,171
 880 296 880 296 890 288 c 0,172,173
 904.0625 274.875 904.0625 274.875 904.0625 252.9609375 c 0,174,175
 904.0625 228.071428571 904.0625 228.071428571 890 212 c 0,176,177
 881 204 881 204 869 200 c 1,178,-1
 869 200 l 1,179,180
 880 196 880 196 890 188 c 0,181,182
 904.0625 173 904.0625 173 904.0625 152.7265625 c 0,183,184
 904.0625 130.071428571 904.0625 130.071428571 890 114 c 256,185,186
 875 100 875 100 853 98 c 1,187,-1
 853 98 l 1,136,137
958 98 m 1,188,189
 936 98 936 98 920 114 c 256,190,191
 905 128 905 128 904 150 c 0,192,193
 904 172 904 172 920 188 c 0,194,195
 929 198 929 198 941 200 c 1,196,-1
 941 200 l 1,197,198
 929 204 929 204 920 212 c 0,199,200
 905 228 905 228 904 250 c 0,201,202
 904 272 904 272 920 288 c 0,203,204
 929 298 929 298 941 300 c 1,205,-1
 941 300 l 1,206,207
 929 304 929 304 920 312 c 0,208,209
 905 328 905 328 904 350 c 0,210,211
 904 372 904 372 920 388 c 0,212,213
 935 402 935 402 958 402 c 0,214,215
 980 402 980 402 995 388 c 0,216,217
 1009.0625 374.875 1009.0625 374.875 1009.0625 352.9609375 c 0,218,219
 1009.0625 328.071428571 1009.0625 328.071428571 995 312 c 0,220,221
 986 304 986 304 974 300 c 1,222,-1
 974 300 l 1,223,224
 986 296 986 296 995 288 c 0,225,226
 1009.0625 274.875 1009.0625 274.875 1009.0625 252.9609375 c 0,227,228
 1009.0625 228.071428571 1009.0625 228.071428571 995 212 c 0,229,230
 986 204 986 204 974 200 c 1,231,-1
 974 200 l 1,232,233
 986 196 986 196 995 188 c 0,234,235
 1009.0625 173 1009.0625 173 1009.0625 152.7265625 c 0,236,237
 1009.0625 130.071428571 1009.0625 130.071428571 995 114 c 0,238,239
 980 100 980 100 958 98 c 1,240,-1
 958 98 l 1,188,189
405 428 m 1,241,-1
 405 428 l 1,242,-1
 405 428 l 1,243,-1
 405 428 l 1,244,-1
 405 428 l 1,241,-1
357 398 m 1,245,246
 335 398 335 398 321 412 c 256,247,248
 306 428 306 428 305 450 c 0,249,250
 305 472 305 472 321 486 c 256,251,252
 336 500 336 500 357 502 c 0,253,254
 379 502 379 502 394 486 c 0,255,256
 400 480 400 480 405 472 c 1,257,-1
 405 472 l 1,258,259
 409 480 409 480 415 486 c 0,260,261
 430 500 430 500 452 502 c 0,262,263
 474 502 474 502 489 486 c 256,264,265
 504 472 504 472 505 450 c 0,266,267
 505 428 505 428 489 412 c 256,268,269
 474 398 474 398 452 398 c 128,-1,270
 430 398 430 398 415 412 c 0,271,272
 408 418 408 418 405 428 c 1,273,-1
 405 428 l 1,274,275
 401 420 401 420 394 412 c 0,276,277
 379 398 379 398 357 398 c 1,278,-1
 357 398 l 1,245,246
557 398 m 1,279,280
 535 398 535 398 520 412 c 256,281,282
 505 428 505 428 505 450 c 128,-1,283
 505 472 505 472 520 486 c 256,284,285
 535 500 535 500 557 502 c 0,286,287
 579 502 579 502 594 486 c 0,288,289
 601 480 601 480 605 472 c 1,290,-1
 605 472 l 1,291,292
 609 480 609 480 615 486 c 0,293,294
 630 500 630 500 652 502 c 0,295,296
 674 502 674 502 690 486 c 256,297,298
 705.058823529 471.945098039 705.058823529 471.945098039 705.058823529 447.432525952 c 0,299,300
 705.058823529 427.058823529 705.058823529 427.058823529 690 412 c 256,301,302
 675 398 675 398 652 398 c 0,303,304
 630 398 630 398 615 412 c 0,305,306
 609 418 609 418 605 428 c 1,307,308
 601 420 601 420 594 412 c 0,309,310
 579 398 579 398 557 398 c 1,311,-1
 557 398 l 1,279,280
757 398 m 1,312,313
 735 398 735 398 720 412 c 256,314,315
 705 428 705 428 705 450 c 128,-1,316
 705 472 705 472 720 486 c 256,317,318
 735 500 735 500 757 502 c 0,319,320
 778 502 778 502 794 486 c 256,321,322
 809 472 809 472 810 450 c 0,323,324
 810 428 810 428 794 412 c 256,325,326
 779 398 779 398 757 398 c 1,327,-1
 757 398 l 1,312,313
204 626 m 1,328,-1
 204 626 l 1,329,-1
 204 626 l 1,330,-1
 204 626 l 1,331,-1
 204 626 l 1,328,-1
605 626 m 1,332,-1
 605 626 l 1,333,-1
 605 626 l 1,334,-1
 605 626 l 1,335,-1
 605 626 l 1,332,-1
52 398 m 1,336,337
 30 398 30 398 15 412 c 0,338,339
 0 428 0 428 0 450 c 128,-1,340
 0 472 0 472 15 486 c 0,341,342
 24 494 24 494 36 500 c 1,343,-1
 36 500 l 1,344,345
 24 504 24 504 15 512 c 0,346,347
 0 528 0 528 0 550 c 256,348,349
 0 572 0 572 15 586 c 0,350,351
 24 596 24 596 36 600 c 1,352,-1
 36 600 l 1,353,354
 24 604 24 604 15 612 c 0,355,356
 0 628 0 628 0 650 c 128,-1,357
 0 672 0 672 15 688 c 0,358,359
 30 702 30 702 52 702 c 0,360,361
 54.4444444444 702.222222222 54.4444444444 702.222222222 56.8148148148 702.222222222 c 0,362,363
 75.7777777778 702.222222222 75.7777777778 702.222222222 90 688 c 256,364,365
 105 674 105 674 105 650 c 0,366,367
 105 628 105 628 90 612 c 0,368,369
 81 604 81 604 69 600 c 1,370,-1
 69 600 l 1,371,372
 81 596 81 596 90 586 c 0,373,374
 105 572 105 572 105 550 c 256,375,376
 105 528 105 528 90 512 c 0,377,378
 81 502 81 502 69 500 c 1,379,-1
 69 500 l 1,380,381
 81 496 81 496 90 486 c 0,382,383
 105 472 105 472 105 450 c 128,-1,384
 105 428 105 428 90 412 c 256,385,386
 74 398 74 398 52 398 c 1,387,-1
 52 398 l 1,336,337
158 398 m 1,388,389
 136 398 136 398 120 412 c 256,390,391
 105 428 105 428 105 450 c 128,-1,392
 105 472 105 472 120 486 c 0,393,394
 129 494 129 494 141 500 c 1,395,-1
 141 500 l 1,396,397
 129 504 129 504 120 512 c 0,398,399
 105 528 105 528 105 550 c 256,400,401
 105 572 105 572 120 586 c 0,402,403
 129 596 129 596 141 600 c 1,404,-1
 141 600 l 1,405,406
 129 604 129 604 120 612 c 0,407,408
 105 628 105 628 105 650 c 128,-1,409
 105 672 105 672 120 688 c 256,410,411
 136 702 136 702 158 702 c 0,412,413
 160.444444444 702.222222222 160.444444444 702.222222222 162.802469136 702.222222222 c 0,414,415
 181.666666667 702.222222222 181.666666667 702.222222222 195 688 c 0,416,417
 201 682 201 682 204 672 c 1,418,-1
 204 672 l 1,419,420
 208 682 208 682 215 688 c 0,421,422
 230 702 230 702 252 702 c 0,423,424
 254.444444444 702.222222222 254.444444444 702.222222222 256.814814815 702.222222222 c 0,425,426
 275.777777778 702.222222222 275.777777778 702.222222222 290 688 c 256,427,428
 305 674 305 674 305 650 c 0,429,430
 305 628 305 628 290 612 c 256,431,432
 275 598 275 598 252 598 c 0,433,434
 230 598 230 598 215 612 c 0,435,436
 209 618 209 618 204 626 c 1,437,-1
 204 626 l 1,438,439
 200 618 200 618 195 612 c 0,440,441
 186 604 186 604 174 600 c 1,442,-1
 174 600 l 1,443,444
 185 596 185 596 195 586 c 0,445,446
 210 572 210 572 210 550 c 256,447,448
 210 528 210 528 195 512 c 0,449,450
 186 502 186 502 174 500 c 1,451,-1
 174 500 l 1,452,453
 185 496 185 496 195 486 c 0,454,455
 201 480 201 480 204 472 c 1,456,-1
 204 472 l 1,457,458
 208 480 208 480 215 486 c 0,459,460
 230 500 230 500 252 502 c 0,461,462
 274 502 274 502 290 486 c 256,463,464
 305 472 305 472 305 450 c 128,-1,465
 305 428 305 428 290 412 c 256,466,467
 275 398 275 398 252 398 c 0,468,469
 230 398 230 398 215 412 c 0,470,471
 209 418 209 418 204 428 c 1,472,473
 200 420 200 420 195 412 c 0,474,475
 180 398 180 398 158 398 c 1,476,-1
 158 398 l 1,388,389
357 598 m 1,477,478
 335 598 335 598 321 612 c 256,479,480
 306 628 306 628 305 650 c 0,481,482
 305 672 305 672 321 688 c 256,483,484
 336 702 336 702 357 702 c 0,485,486
 359.444444444 702.222222222 359.444444444 702.222222222 361.802469136 702.222222222 c 0,487,488
 380.666666667 702.222222222 380.666666667 702.222222222 394 688 c 0,489,490
 400 682 400 682 405 672 c 1,491,-1
 405 672 l 1,492,493
 409 682 409 682 415 688 c 0,494,495
 430 702 430 702 452 702 c 0,496,497
 454.444444444 702.222222222 454.444444444 702.222222222 456.802469136 702.222222222 c 0,498,499
 475.666666667 702.222222222 475.666666667 702.222222222 489 688 c 256,500,501
 504 674 504 674 505 650 c 0,502,503
 505 628 505 628 489 612 c 256,504,505
 474 598 474 598 452 598 c 128,-1,506
 430 598 430 598 415 612 c 0,507,508
 408 618 408 618 405 626 c 1,509,-1
 405 626 l 1,510,511
 401 618 401 618 394 612 c 0,512,513
 379 598 379 598 357 598 c 1,514,-1
 357 598 l 1,477,478
557 598 m 1,515,516
 535 598 535 598 520 612 c 256,517,518
 505 628 505 628 505 650 c 128,-1,519
 505 672 505 672 520 688 c 256,520,521
 535 702 535 702 557 702 c 0,522,523
 559.444444444 702.222222222 559.444444444 702.222222222 561.802469136 702.222222222 c 0,524,525
 580.666666667 702.222222222 580.666666667 702.222222222 594 688 c 0,526,527
 601 682 601 682 605 672 c 1,528,-1
 605 672 l 1,529,530
 609 682 609 682 615 688 c 0,531,532
 630 702 630 702 652 702 c 0,533,534
 654.444444444 702.222222222 654.444444444 702.222222222 656.814814815 702.222222222 c 0,535,536
 675.777777778 702.222222222 675.777777778 702.222222222 690 688 c 256,537,538
 705.058823529 673.945098039 705.058823529 673.945098039 705.058823529 647.432525952 c 0,539,540
 705.058823529 627.058823529 705.058823529 627.058823529 690 612 c 256,541,542
 675 598 675 598 652 598 c 0,543,544
 630 598 630 598 615 612 c 0,545,546
 609 618 609 618 605 626 c 1,547,-1
 605 626 l 1,548,549
 601 618 601 618 594 612 c 0,550,551
 579 598 579 598 557 598 c 1,552,-1
 557 598 l 1,515,516
757 598 m 1,553,554
 735 598 735 598 720 612 c 256,555,556
 705 628 705 628 705 650 c 128,-1,557
 705 672 705 672 720 688 c 256,558,559
 735 702 735 702 757 702 c 0,560,561
 759.333333333 702.222222222 759.333333333 702.222222222 761.604938272 702.222222222 c 0,562,563
 779.777777778 702.222222222 779.777777778 702.222222222 794 688 c 0,564,565
 801 682 801 682 805 672 c 1,566,-1
 805 672 l 1,567,568
 810 682 810 682 816 688 c 0,569,570
 831 702 831 702 853 702 c 0,571,572
 855.444444444 702.222222222 855.444444444 702.222222222 857.802469136 702.222222222 c 0,573,574
 876.666666667 702.222222222 876.666666667 702.222222222 890 688 c 256,575,576
 904.0625 674.875 904.0625 674.875 904.0625 652.9609375 c 0,577,578
 904.0625 628.071428571 904.0625 628.071428571 890 612 c 256,579,580
 875 598 875 598 853 598 c 0,581,582
 832 598 832 598 816 612 c 0,583,584
 810 618 810 618 805 626 c 1,585,586
 800 618 800 618 794 612 c 0,587,588
 779 598 779 598 757 598 c 1,589,-1
 757 598 l 1,553,554
958 598 m 1,590,591
 936 598 936 598 920 612 c 256,592,593
 905 628 905 628 904 650 c 0,594,595
 904 672 904 672 920 688 c 256,596,597
 935 702 935 702 958 702 c 0,598,599
 960.444444444 702.222222222 960.444444444 702.222222222 962.802469136 702.222222222 c 0,600,601
 981.666666667 702.222222222 981.666666667 702.222222222 995 688 c 0,602,603
 1009.0625 674.875 1009.0625 674.875 1009.0625 652.9609375 c 0,604,605
 1009.0625 628.071428571 1009.0625 628.071428571 995 612 c 0,606,607
 980 598 980 598 958 598 c 1,608,-1
 958 598 l 1,590,591
EndSplineSet
EndChar

StartChar: six
Encoding: 54 54 22
Width: 1200
VWidth: 696
Flags: W
LayerCount: 2
Fore
SplineSet
405 26 m 1,0,1
 405 26 l 1,2,-1
 405 26 l 1,3,4
 405 26 l 1,5,-1
 405 26 l 1,0,1
252 -2 m 1,6,7
 230 -2 230 -2 215 12 c 0,8,9
 200 28 200 28 200 50 c 128,-1,10
 200 72 200 72 215 88 c 0,11,12
 230 102 230 102 252 102 c 128,-1,13
 274 102 274 102 290 88 c 256,14,15
 305 72 305 72 305 50 c 128,-1,16
 305 28 305 28 290 12 c 0,17,18
 275 -2 275 -2 252 -2 c 1,19,-1
 252 -2 l 1,6,7
357 -2 m 1,20,21
 335 -2 335 -2 321 12 c 0,22,23
 306 28 306 28 305 50 c 0,24,25
 305 72 305 72 321 88 c 256,26,27
 336 102 336 102 357 102 c 0,28,29
 379 102 379 102 394 88 c 0,30,31
 400 80 400 80 405 72 c 1,32,-1
 405 72 l 1,33,34
 409 80 409 80 415 88 c 0,35,36
 430 102 430 102 452 102 c 128,-1,37
 474 102 474 102 489 88 c 256,38,39
 504 72 504 72 505 50 c 0,40,41
 505 28 505 28 489 12 c 0,42,43
 474 -2 474 -2 452 -2 c 128,-1,44
 430 -2 430 -2 415 12 c 0,45,46
 408 18 408 18 405 26 c 1,47,48
 401 18 401 18 394 12 c 0,49,50
 379 -2 379 -2 357 -2 c 1,51,-1
 357 -2 l 1,20,21
557 -2 m 1,52,53
 535 -2 535 -2 520 12 c 0,54,55
 505 28 505 28 505 50 c 128,-1,56
 505 72 505 72 520 88 c 256,57,58
 535 102 535 102 557 102 c 128,-1,59
 579 102 579 102 594 88 c 0,60,61
 601 80 601 80 605 72 c 1,62,-1
 605 72 l 1,63,64
 609 80 609 80 615 88 c 0,65,66
 630 102 630 102 652 102 c 128,-1,67
 674 102 674 102 690 88 c 256,68,69
 705.058823529 71.937254902 705.058823529 71.937254902 705.058823529 47.4325259516 c 0,70,71
 705.058823529 27.0588235294 705.058823529 27.0588235294 690 12 c 0,72,73
 675 -2 675 -2 652 -2 c 0,74,75
 630 -2 630 -2 615 12 c 0,76,77
 609 18 609 18 605 26 c 1,78,-1
 605 26 l 1,79,80
 601 18 601 18 594 12 c 0,81,82
 579 -2 579 -2 557 -2 c 1,83,-1
 557 -2 l 1,52,53
757 -2 m 1,84,85
 735 -2 735 -2 720 12 c 0,86,87
 705 28 705 28 705 50 c 128,-1,88
 705 72 705 72 720 88 c 256,89,90
 735 102 735 102 757 102 c 0,91,92
 778 102 778 102 794 88 c 256,93,94
 809 72 809 72 810 50 c 0,95,96
 810 28 810 28 794 12 c 0,97,98
 779 -2 779 -2 757 -2 c 1,99,-1
 757 -2 l 1,84,85
853 98 m 1,100,101
 832 98 832 98 816 114 c 256,102,103
 801 128 801 128 800 150 c 0,104,105
 800 172 800 172 816 188 c 0,106,107
 825 198 825 198 836 200 c 1,108,-1
 836 200 l 1,109,110
 826 204 826 204 816 212 c 0,111,112
 801 228 801 228 800 250 c 0,113,114
 800 272 800 272 816 288 c 256,115,116
 831 302 831 302 853 302 c 128,-1,117
 875 302 875 302 890 288 c 256,118,119
 904.0625 274.875 904.0625 274.875 904.0625 252.9609375 c 0,120,121
 904.0625 228.071428571 904.0625 228.071428571 890 212 c 0,122,123
 881 204 881 204 869 200 c 1,124,-1
 869 200 l 1,125,126
 880 196 880 196 890 188 c 0,127,128
 904.0625 173 904.0625 173 904.0625 152.7265625 c 0,129,130
 904.0625 130.071428571 904.0625 130.071428571 890 114 c 256,131,132
 875 100 875 100 853 98 c 1,133,-1
 853 98 l 1,100,101
958 98 m 1,134,135
 936 98 936 98 920 114 c 256,136,137
 905 128 905 128 904 150 c 0,138,139
 904 172 904 172 920 188 c 0,140,141
 929 198 929 198 941 200 c 1,142,-1
 941 200 l 1,143,144
 929 204 929 204 920 212 c 0,145,146
 905 228 905 228 904 250 c 0,147,148
 904 272 904 272 920 288 c 256,149,150
 935 302 935 302 958 302 c 0,151,152
 980 302 980 302 995 288 c 0,153,154
 1009.0625 274.875 1009.0625 274.875 1009.0625 252.9609375 c 0,155,156
 1009.0625 228.071428571 1009.0625 228.071428571 995 212 c 0,157,158
 986 204 986 204 974 200 c 1,159,-1
 974 200 l 1,160,161
 986 196 986 196 995 188 c 0,162,163
 1009.0625 173 1009.0625 173 1009.0625 152.7265625 c 0,164,165
 1009.0625 130.071428571 1009.0625 130.071428571 995 114 c 0,166,167
 980 100 980 100 958 98 c 1,168,-1
 958 98 l 1,134,135
405 328 m 1,169,-1
 405 328 l 1,170,-1
 405 328 l 1,171,-1
 405 328 l 1,172,-1
 405 328 l 1,169,-1
357 298 m 1,173,174
 335 298 335 298 321 312 c 256,175,176
 306 328 306 328 305 350 c 0,177,178
 305 372 305 372 321 388 c 0,179,180
 336 402 336 402 357 402 c 0,181,182
 379 402 379 402 394 388 c 0,183,184
 400 380 400 380 405 372 c 1,185,-1
 405 372 l 1,186,187
 409 380 409 380 415 388 c 0,188,189
 430 402 430 402 452 402 c 128,-1,190
 474 402 474 402 489 388 c 128,-1,191
 504 374 504 374 505 350 c 0,192,193
 505 328 505 328 489 312 c 256,194,195
 474 298 474 298 452 298 c 128,-1,196
 430 298 430 298 415 312 c 0,197,198
 408 318 408 318 405 328 c 1,199,200
 401 320 401 320 394 312 c 0,201,202
 379 298 379 298 357 298 c 1,203,-1
 357 298 l 1,173,174
557 298 m 1,204,205
 535 298 535 298 520 312 c 256,206,207
 505 328 505 328 505 350 c 128,-1,208
 505 372 505 372 520 388 c 0,209,210
 535 402 535 402 557 402 c 128,-1,211
 579 402 579 402 594 388 c 0,212,213
 601 380 601 380 605 372 c 1,214,-1
 605 372 l 1,215,216
 609 380 609 380 615 388 c 0,217,218
 630 402 630 402 652 402 c 128,-1,219
 674 402 674 402 690 388 c 0,220,221
 705.058823529 373.945098039 705.058823529 373.945098039 705.058823529 347.432525952 c 0,222,223
 705.058823529 327.058823529 705.058823529 327.058823529 690 312 c 256,224,225
 675 298 675 298 652 298 c 0,226,227
 630 298 630 298 615 312 c 0,228,229
 609 318 609 318 605 328 c 1,230,-1
 605 328 l 1,231,232
 601 320 601 320 594 312 c 0,233,234
 579 298 579 298 557 298 c 1,235,-1
 557 298 l 1,204,205
757 298 m 1,236,237
 735 298 735 298 720 312 c 256,238,239
 705 328 705 328 705 350 c 128,-1,240
 705 372 705 372 720 388 c 0,241,242
 735 402 735 402 757 402 c 0,243,244
 778 402 778 402 794 388 c 0,245,246
 809 374 809 374 810 350 c 0,247,248
 810 328 810 328 794 312 c 256,249,250
 779 298 779 298 757 298 c 1,251,-1
 757 298 l 1,236,237
52 98 m 1,252,253
 30 98 30 98 15 114 c 0,254,255
 0 128 0 128 0 150 c 128,-1,256
 0 172 0 172 15 188 c 0,257,258
 24 198 24 198 36 200 c 1,259,-1
 36 200 l 1,260,261
 24 204 24 204 15 212 c 0,262,263
 0 228 0 228 0 250 c 128,-1,264
 0 272 0 272 15 288 c 0,265,266
 24 298 24 298 36 300 c 1,267,-1
 36 300 l 1,268,269
 24 304 24 304 15 312 c 0,270,271
 0 328 0 328 0 350 c 128,-1,272
 0 372 0 372 15 388 c 0,273,274
 24 396 24 396 36 400 c 1,275,-1
 36 400 l 1,276,277
 24 404 24 404 15 412 c 0,278,279
 0 428 0 428 0 450 c 128,-1,280
 0 472 0 472 15 486 c 0,281,282
 24 494 24 494 36 500 c 1,283,-1
 36 500 l 1,284,285
 24 504 24 504 15 512 c 0,286,287
 0 528 0 528 0 550 c 256,288,289
 0 572 0 572 15 586 c 128,-1,290
 30 600 30 600 52 602 c 0,291,292
 74 602 74 602 90 586 c 256,293,294
 105 572 105 572 105 550 c 256,295,296
 105 528 105 528 90 512 c 0,297,298
 81 502 81 502 69 500 c 1,299,-1
 69 500 l 1,300,301
 81 496 81 496 90 486 c 0,302,303
 105 472 105 472 105 450 c 128,-1,304
 105 428 105 428 90 412 c 0,305,306
 81 404 81 404 69 400 c 1,307,-1
 69 400 l 1,308,309
 81 396 81 396 90 388 c 0,310,311
 105 374 105 374 105 350 c 0,312,313
 105 328 105 328 90 312 c 0,314,315
 81 304 81 304 69 300 c 1,316,-1
 69 300 l 1,317,318
 81 296 81 296 90 288 c 0,319,320
 105 274 105 274 105 250 c 0,321,322
 105 228 105 228 90 212 c 0,323,324
 81 204 81 204 69 200 c 1,325,-1
 69 200 l 1,326,327
 81 196 81 196 90 188 c 0,328,329
 105 172 105 172 105 150 c 0,330,331
 105 130 105 130 90 114 c 256,332,333
 74 100 74 100 52 98 c 1,334,-1
 52 98 l 1,252,253
158 98 m 1,335,336
 136 98 136 98 120 114 c 256,337,338
 105 128 105 128 105 150 c 128,-1,339
 105 172 105 172 120 188 c 0,340,341
 129 198 129 198 141 200 c 1,342,-1
 141 200 l 1,343,344
 129 204 129 204 120 212 c 0,345,346
 105 228 105 228 105 250 c 128,-1,347
 105 272 105 272 120 288 c 0,348,349
 129 298 129 298 141 300 c 1,350,-1
 141 300 l 1,351,352
 129 304 129 304 120 312 c 0,353,354
 105 328 105 328 105 350 c 128,-1,355
 105 372 105 372 120 388 c 0,356,357
 129 396 129 396 141 400 c 1,358,-1
 141 400 l 1,359,360
 129 404 129 404 120 412 c 0,361,362
 105 428 105 428 105 450 c 128,-1,363
 105 472 105 472 120 486 c 0,364,365
 129 494 129 494 141 500 c 1,366,-1
 141 500 l 1,367,368
 129 504 129 504 120 512 c 0,369,370
 105 528 105 528 105 550 c 256,371,372
 105 572 105 572 120 586 c 256,373,374
 136 600 136 600 158 602 c 0,375,376
 180 602 180 602 195 586 c 256,377,378
 210 572 210 572 210 550 c 256,379,380
 210 528 210 528 195 512 c 0,381,382
 186 502 186 502 174 500 c 1,383,-1
 174 500 l 1,384,385
 185 496 185 496 195 486 c 0,386,387
 210 472 210 472 210 450 c 128,-1,388
 210 428 210 428 195 412 c 0,389,390
 186 404 186 404 174 400 c 1,391,-1
 174 400 l 1,392,393
 185 396 185 396 195 388 c 0,394,395
 201 380 201 380 204 372 c 1,396,-1
 204 372 l 1,397,398
 208 380 208 380 215 388 c 0,399,400
 230 402 230 402 252 402 c 128,-1,401
 274 402 274 402 290 388 c 0,402,403
 305 374 305 374 305 350 c 0,404,405
 305 328 305 328 290 312 c 256,406,407
 275 298 275 298 252 298 c 0,408,409
 230 298 230 298 215 312 c 0,410,411
 209 318 209 318 204 328 c 1,412,413
 200 320 200 320 195 312 c 0,414,415
 186 304 186 304 174 300 c 1,416,-1
 174 300 l 1,417,418
 185 296 185 296 195 288 c 0,419,420
 210 274 210 274 210 250 c 0,421,422
 210 228 210 228 195 212 c 0,423,424
 186 204 186 204 174 200 c 1,425,-1
 174 200 l 1,426,427
 185 196 185 196 195 188 c 0,428,429
 210 172 210 172 210 150 c 0,430,431
 210 130 210 130 195 114 c 256,432,433
 180 100 180 100 158 98 c 1,434,-1
 158 98 l 1,335,336
405 626 m 1,435,-1
 405 626 l 1,436,-1
 405 626 l 1,437,-1
 405 626 l 1,438,-1
 405 626 l 1,435,-1
605 626 m 1,439,-1
 605 626 l 1,440,-1
 605 626 l 1,441,-1
 605 626 l 1,442,-1
 605 626 l 1,439,-1
252 598 m 1,443,444
 230 598 230 598 215 612 c 0,445,446
 200 628 200 628 200 650 c 128,-1,447
 200 672 200 672 215 688 c 0,448,449
 230 702 230 702 252 702 c 0,450,451
 254.444444444 702.222222222 254.444444444 702.222222222 256.814814815 702.222222222 c 0,452,453
 275.777777778 702.222222222 275.777777778 702.222222222 290 688 c 256,454,455
 305 674 305 674 305 650 c 0,456,457
 305 628 305 628 290 612 c 256,458,459
 275 598 275 598 252 598 c 1,460,-1
 252 598 l 1,443,444
357 598 m 1,461,462
 335 598 335 598 321 612 c 256,463,464
 306 628 306 628 305 650 c 0,465,466
 305 672 305 672 321 688 c 256,467,468
 336 702 336 702 357 702 c 0,469,470
 359.444444444 702.222222222 359.444444444 702.222222222 361.802469136 702.222222222 c 0,471,472
 380.666666667 702.222222222 380.666666667 702.222222222 394 688 c 0,473,474
 400 682 400 682 405 672 c 1,475,-1
 405 672 l 1,476,477
 409 682 409 682 415 688 c 0,478,479
 430 702 430 702 452 702 c 0,480,481
 454.444444444 702.222222222 454.444444444 702.222222222 456.802469136 702.222222222 c 0,482,483
 475.666666667 702.222222222 475.666666667 702.222222222 489 688 c 256,484,485
 504 674 504 674 505 650 c 0,486,487
 505 628 505 628 489 612 c 256,488,489
 474 598 474 598 452 598 c 128,-1,490
 430 598 430 598 415 612 c 0,491,492
 408 618 408 618 405 626 c 1,493,494
 401 618 401 618 394 612 c 0,495,496
 379 598 379 598 357 598 c 1,497,-1
 357 598 l 1,461,462
557 598 m 1,498,499
 535 598 535 598 520 612 c 256,500,501
 505 628 505 628 505 650 c 128,-1,502
 505 672 505 672 520 688 c 256,503,504
 535 702 535 702 557 702 c 0,505,506
 559.444444444 702.222222222 559.444444444 702.222222222 561.802469136 702.222222222 c 0,507,508
 580.666666667 702.222222222 580.666666667 702.222222222 594 688 c 0,509,510
 601 682 601 682 605 672 c 1,511,-1
 605 672 l 1,512,513
 609 682 609 682 615 688 c 0,514,515
 630 702 630 702 652 702 c 0,516,517
 654.444444444 702.222222222 654.444444444 702.222222222 656.814814815 702.222222222 c 0,518,519
 675.777777778 702.222222222 675.777777778 702.222222222 690 688 c 256,520,521
 705.058823529 673.945098039 705.058823529 673.945098039 705.058823529 647.432525952 c 0,522,523
 705.058823529 627.058823529 705.058823529 627.058823529 690 612 c 256,524,525
 675 598 675 598 652 598 c 0,526,527
 630 598 630 598 615 612 c 0,528,529
 609 618 609 618 605 626 c 1,530,531
 601 618 601 618 594 612 c 0,532,533
 579 598 579 598 557 598 c 1,534,-1
 557 598 l 1,498,499
757 598 m 1,535,536
 735 598 735 598 720 612 c 256,537,538
 705 628 705 628 705 650 c 128,-1,539
 705 672 705 672 720 688 c 256,540,541
 735 702 735 702 757 702 c 0,542,543
 759.333333333 702.222222222 759.333333333 702.222222222 761.604938272 702.222222222 c 0,544,545
 779.777777778 702.222222222 779.777777778 702.222222222 794 688 c 0,546,547
 801 682 801 682 805 672 c 1,548,-1
 805 672 l 1,549,550
 810 682 810 682 816 688 c 0,551,552
 831 702 831 702 853 702 c 0,553,554
 855.444444444 702.222222222 855.444444444 702.222222222 857.802469136 702.222222222 c 0,555,556
 876.666666667 702.222222222 876.666666667 702.222222222 890 688 c 256,557,558
 904.0625 674.875 904.0625 674.875 904.0625 652.9609375 c 0,559,560
 904.0625 628.071428571 904.0625 628.071428571 890 612 c 256,561,562
 875 598 875 598 853 598 c 0,563,564
 832 598 832 598 816 612 c 0,565,566
 810 618 810 618 805 626 c 1,567,568
 800 618 800 618 794 612 c 0,569,570
 779 598 779 598 757 598 c 1,571,-1
 757 598 l 1,535,536
958 598 m 1,572,573
 936 598 936 598 920 612 c 256,574,575
 905 628 905 628 904 650 c 0,576,577
 904 672 904 672 920 688 c 256,578,579
 935 702 935 702 958 702 c 0,580,581
 960.444444444 702.222222222 960.444444444 702.222222222 962.802469136 702.222222222 c 0,582,583
 981.666666667 702.222222222 981.666666667 702.222222222 995 688 c 0,584,585
 1009.0625 674.875 1009.0625 674.875 1009.0625 652.9609375 c 0,586,587
 1009.0625 628.071428571 1009.0625 628.071428571 995 612 c 0,588,589
 980 598 980 598 958 598 c 1,590,-1
 958 598 l 1,572,573
EndSplineSet
EndChar

StartChar: seven
Encoding: 55 55 23
Width: 1200
VWidth: 696
Flags: W
LayerCount: 2
Fore
SplineSet
252 -2 m 1,0,1
 230 -2 230 -2 215 12 c 0,2,3
 200 28 200 28 200 50 c 128,-1,4
 200 72 200 72 215 88 c 0,5,6
 224 98 224 98 236 100 c 1,7,-1
 236 100 l 1,8,9
 224 104 224 104 215 114 c 0,10,11
 200 128 200 128 200 150 c 128,-1,12
 200 172 200 172 215 188 c 0,13,14
 224 198 224 198 236 200 c 1,15,-1
 236 200 l 1,16,17
 224 204 224 204 215 212 c 0,18,19
 200 228 200 228 200 250 c 128,-1,20
 200 272 200 272 215 288 c 0,21,22
 230 302 230 302 252 302 c 128,-1,23
 274 302 274 302 290 288 c 256,24,25
 305 274 305 274 305 250 c 0,26,27
 305 228 305 228 290 212 c 0,28,29
 281 204 281 204 269 200 c 1,30,-1
 269 200 l 1,31,32
 280 196 280 196 290 188 c 0,33,34
 305 172 305 172 305 150 c 0,35,36
 305 130 305 130 290 114 c 0,37,38
 281 106 281 106 269 100 c 1,39,-1
 269 100 l 1,40,41
 280 96 280 96 290 88 c 0,42,43
 305 72 305 72 305 50 c 128,-1,44
 305 28 305 28 290 12 c 0,45,46
 275 -2 275 -2 252 -2 c 1,47,-1
 252 -2 l 1,0,1
357 -2 m 1,48,49
 335 -2 335 -2 321 12 c 0,50,51
 306 28 306 28 305 50 c 0,52,53
 305 72 305 72 321 88 c 0,54,55
 330 98 330 98 341 100 c 1,56,-1
 341 100 l 1,57,58
 330 104 330 104 321 114 c 0,59,60
 306 128 306 128 305 150 c 0,61,62
 305 172 305 172 321 188 c 0,63,64
 330 198 330 198 341 200 c 1,65,-1
 341 200 l 1,66,67
 330 204 330 204 321 212 c 0,68,69
 306 228 306 228 305 250 c 0,70,71
 305 272 305 272 321 288 c 256,72,73
 336 302 336 302 357 302 c 0,74,75
 379 302 379 302 394 288 c 256,76,77
 410 274 410 274 410 250 c 0,78,79
 410 228 410 228 394 212 c 0,80,81
 385 204 385 204 374 200 c 1,82,-1
 374 200 l 1,83,84
 385 196 385 196 394 188 c 0,85,86
 410 172 410 172 410 150 c 0,87,88
 410 130 410 130 394 114 c 0,89,90
 385 106 385 106 374 100 c 1,91,-1
 374 100 l 1,92,93
 385 96 385 96 394 88 c 0,94,95
 410 72 410 72 410 50 c 128,-1,96
 410 28 410 28 394 12 c 0,97,98
 379 -2 379 -2 357 -2 c 1,99,-1
 357 -2 l 1,48,49
452 298 m 1,100,101
 430 298 430 298 415 312 c 256,102,103
 400 328 400 328 400 350 c 128,-1,104
 400 372 400 372 415 388 c 0,105,106
 430 402 430 402 452 402 c 128,-1,107
 474 402 474 402 489 388 c 128,-1,108
 504 374 504 374 505 350 c 0,109,110
 505 328 505 328 489 312 c 256,111,112
 474 298 474 298 452 298 c 1,113,-1
 452 298 l 1,100,101
557 298 m 1,114,115
 535 298 535 298 520 312 c 256,116,117
 505 328 505 328 505 350 c 128,-1,118
 505 372 505 372 520 388 c 0,119,120
 535 402 535 402 557 402 c 128,-1,121
 579 402 579 402 594 388 c 128,-1,122
 609 374 609 374 610 350 c 0,123,124
 610 328 610 328 594 312 c 256,125,126
 579 298 579 298 557 298 c 1,127,-1
 557 298 l 1,114,115
652 398 m 1,128,129
 630 398 630 398 615 412 c 256,130,131
 600 428 600 428 600 450 c 128,-1,132
 600 472 600 472 615 486 c 256,133,134
 630 500 630 500 652 502 c 0,135,136
 674 502 674 502 690 486 c 256,137,138
 705.058823529 471.945098039 705.058823529 471.945098039 705.058823529 447.432525952 c 0,139,140
 705.058823529 427.058823529 705.058823529 427.058823529 690 412 c 256,141,142
 675 398 675 398 652 398 c 1,143,-1
 652 398 l 1,128,129
757 398 m 1,144,145
 735 398 735 398 720 412 c 256,146,147
 705 428 705 428 705 450 c 128,-1,148
 705 472 705 472 720 486 c 256,149,150
 735 500 735 500 757 502 c 0,151,152
 778 502 778 502 794 486 c 256,153,154
 809 472 809 472 810 450 c 0,155,156
 810 428 810 428 794 412 c 256,157,158
 779 398 779 398 757 398 c 1,159,-1
 757 398 l 1,144,145
204 626 m 1,160,-1
 204 626 l 1,161,-1
 204 626 l 1,162,-1
 204 626 l 1,163,-1
 204 626 l 1,160,-1
605 626 m 1,164,-1
 605 626 l 1,165,-1
 605 626 l 1,166,-1
 605 626 l 1,167,-1
 605 626 l 1,164,-1
52 598 m 1,168,169
 30 598 30 598 15 612 c 0,170,171
 0 628 0 628 0 650 c 128,-1,172
 0 672 0 672 15 688 c 0,173,174
 30 702 30 702 52 702 c 0,175,176
 54.4444444444 702.222222222 54.4444444444 702.222222222 56.8148148148 702.222222222 c 0,177,178
 75.7777777778 702.222222222 75.7777777778 702.222222222 90 688 c 256,179,180
 105 674 105 674 105 650 c 0,181,182
 105 628 105 628 90 612 c 256,183,184
 74 598 74 598 52 598 c 1,185,-1
 52 598 l 1,168,169
158 598 m 1,186,187
 136 598 136 598 120 612 c 256,188,189
 105 628 105 628 105 650 c 128,-1,190
 105 672 105 672 120 688 c 256,191,192
 136 702 136 702 158 702 c 0,193,194
 160.444444444 702.222222222 160.444444444 702.222222222 162.802469136 702.222222222 c 0,195,196
 181.666666667 702.222222222 181.666666667 702.222222222 195 688 c 0,197,198
 201 682 201 682 204 672 c 1,199,-1
 204 672 l 1,200,201
 208 682 208 682 215 688 c 0,202,203
 230 702 230 702 252 702 c 0,204,205
 254.444444444 702.222222222 254.444444444 702.222222222 256.814814815 702.222222222 c 0,206,207
 275.777777778 702.222222222 275.777777778 702.222222222 290 688 c 256,208,209
 305 674 305 674 305 650 c 0,210,211
 305 628 305 628 290 612 c 256,212,213
 275 598 275 598 252 598 c 0,214,215
 230 598 230 598 215 612 c 0,216,217
 209 618 209 618 204 626 c 1,218,-1
 204 626 l 1,219,220
 200 618 200 618 195 612 c 0,221,222
 180 598 180 598 158 598 c 1,223,-1
 158 598 l 1,186,187
357 598 m 1,224,225
 335 598 335 598 321 612 c 256,226,227
 306 628 306 628 305 650 c 0,228,229
 305 672 305 672 321 688 c 256,230,231
 336 702 336 702 357 702 c 0,232,233
 359.444444444 702.222222222 359.444444444 702.222222222 361.802469136 702.222222222 c 0,234,235
 380.666666667 702.222222222 380.666666667 702.222222222 394 688 c 0,236,237
 400 682 400 682 405 672 c 1,238,-1
 405 672 l 1,239,240
 409 682 409 682 415 688 c 0,241,242
 430 702 430 702 452 702 c 0,243,244
 454.444444444 702.222222222 454.444444444 702.222222222 456.802469136 702.222222222 c 0,245,246
 475.666666667 702.222222222 475.666666667 702.222222222 489 688 c 256,247,248
 504 674 504 674 505 650 c 0,249,250
 505 628 505 628 489 612 c 256,251,252
 474 598 474 598 452 598 c 128,-1,253
 430 598 430 598 415 612 c 0,254,255
 408 618 408 618 405 626 c 1,256,257
 401 618 401 618 394 612 c 0,258,259
 379 598 379 598 357 598 c 1,260,-1
 357 598 l 1,224,225
557 598 m 1,261,262
 535 598 535 598 520 612 c 256,263,264
 505 628 505 628 505 650 c 128,-1,265
 505 672 505 672 520 688 c 256,266,267
 535 702 535 702 557 702 c 0,268,269
 559.444444444 702.222222222 559.444444444 702.222222222 561.802469136 702.222222222 c 0,270,271
 580.666666667 702.222222222 580.666666667 702.222222222 594 688 c 0,272,273
 601 682 601 682 605 672 c 1,274,-1
 605 672 l 1,275,276
 609 682 609 682 615 688 c 0,277,278
 630 702 630 702 652 702 c 0,279,280
 654.444444444 702.222222222 654.444444444 702.222222222 656.814814815 702.222222222 c 0,281,282
 675.777777778 702.222222222 675.777777778 702.222222222 690 688 c 256,283,284
 705.058823529 673.945098039 705.058823529 673.945098039 705.058823529 647.432525952 c 0,285,286
 705.058823529 627.058823529 705.058823529 627.058823529 690 612 c 256,287,288
 675 598 675 598 652 598 c 0,289,290
 630 598 630 598 615 612 c 0,291,292
 609 618 609 618 605 626 c 1,293,-1
 605 626 l 1,294,295
 601 618 601 618 594 612 c 0,296,297
 579 598 579 598 557 598 c 1,298,-1
 557 598 l 1,261,262
853 498 m 1,299,300
 832 498 832 498 816 512 c 256,301,302
 801 528 801 528 800 550 c 256,303,304
 800 572 800 572 816 586 c 0,305,306
 825 596 825 596 836 600 c 1,307,-1
 836 600 l 1,308,309
 826 604 826 604 816 612 c 0,310,311
 810 618 810 618 805 626 c 1,312,-1
 805 626 l 1,313,314
 800 618 800 618 794 612 c 0,315,316
 779 598 779 598 757 598 c 128,-1,317
 735 598 735 598 720 612 c 256,318,319
 705 628 705 628 705 650 c 128,-1,320
 705 672 705 672 720 688 c 256,321,322
 735 702 735 702 757 702 c 0,323,324
 759.333333333 702.222222222 759.333333333 702.222222222 761.604938272 702.222222222 c 0,325,326
 779.777777778 702.222222222 779.777777778 702.222222222 794 688 c 0,327,328
 801 682 801 682 805 672 c 1,329,-1
 805 672 l 1,330,331
 810 682 810 682 816 688 c 0,332,333
 831 702 831 702 853 702 c 0,334,335
 855.444444444 702.222222222 855.444444444 702.222222222 857.802469136 702.222222222 c 0,336,337
 876.666666667 702.222222222 876.666666667 702.222222222 890 688 c 256,338,339
 904.0625 674.875 904.0625 674.875 904.0625 652.9609375 c 0,340,341
 904.0625 628.071428571 904.0625 628.071428571 890 612 c 0,342,343
 881 604 881 604 869 600 c 1,344,-1
 869 600 l 1,345,346
 880 596 880 596 890 586 c 0,347,348
 904.0625 572.875 904.0625 572.875 904.0625 552.71875 c 0,349,350
 904.0625 528.071428571 904.0625 528.071428571 890 512 c 256,351,352
 875 498 875 498 853 498 c 1,353,-1
 853 498 l 1,299,300
958 498 m 1,354,355
 936 498 936 498 920 512 c 256,356,357
 905 528 905 528 904 550 c 256,358,359
 904 572 904 572 920 586 c 0,360,361
 929 596 929 596 941 600 c 1,362,-1
 941 600 l 1,363,364
 929 604 929 604 920 612 c 0,365,366
 905 628 905 628 904 650 c 0,367,368
 904 672 904 672 920 688 c 256,369,370
 935 702 935 702 958 702 c 0,371,372
 960.444444444 702.222222222 960.444444444 702.222222222 962.802469136 702.222222222 c 0,373,374
 981.666666667 702.222222222 981.666666667 702.222222222 995 688 c 0,375,376
 1009.0625 674.875 1009.0625 674.875 1009.0625 652.9609375 c 0,377,378
 1009.0625 628.071428571 1009.0625 628.071428571 995 612 c 0,379,380
 986 604 986 604 974 600 c 1,381,-1
 974 600 l 1,382,383
 986 596 986 596 995 586 c 0,384,385
 1009.0625 572.875 1009.0625 572.875 1009.0625 552.71875 c 0,386,387
 1009.0625 528.071428571 1009.0625 528.071428571 995 512 c 0,388,389
 980 498 980 498 958 498 c 1,390,-1
 958 498 l 1,354,355
EndSplineSet
EndChar

